<svg width="112" height="21" viewBox="0 0 112 21" fill="none" xmlns="http://www.w3.org/2000/svg">
  <path fill-rule="evenodd" clip-rule="evenodd"
    d="M0.875977 20.1286V17.9211H3.07879V2.44754H0.875977V0.23999H7.49033V9.08202H14.1106V11.2896H16.3134V17.924H14.1106V20.1316H7.49033V17.924H11.9019V11.2896H7.49033V17.924H5.28752V20.1316H0.875977V20.1286ZM27.3364 17.9211V9.07904H22.9248V17.9211H27.3364ZM20.7161 20.1286V17.9211H18.5133V9.07904H20.7161V6.86557H29.5392V9.07904H31.7479V17.9211H29.5392V20.1286H20.7161ZM33.9509 17.9211V20.1286H33.9538H47.1855V17.9211H42.7739V0.23999H33.9509V2.44754H38.3624V17.9211H33.9509ZM53.7942 20.1287V17.9211H51.5855V9.07908H49.3827V6.86561H51.5855V4.65806H53.7942V2.4446H55.997V6.86561H62.6173V9.07908H55.997V17.9211H58.2057V15.7076H62.6173V17.9211H60.4086V20.1287H53.7942ZM64.8167 17.9211V20.1286V20.1316H69.2282V17.924H71.431V20.1316H78.0513V17.924H80.2541V11.2896H78.0513V9.08202H71.431V0.23999H64.8167V2.44754H67.0195V17.9211H64.8167ZM71.431 17.924V11.2896H75.8426V17.924H71.431ZM91.2771 17.9211V9.07904H86.8655V17.9211H91.2771ZM84.6568 20.1286V17.9211H82.454V9.07904H84.6568V6.86557H93.4799V9.07904H95.6886V17.9211H93.4799V20.1286H84.6568ZM102.3 17.9211V20.1287H108.915V17.9211H111.124V15.7076H106.712V17.9211H104.503V9.07908H111.124V6.86561H104.503V2.4446H102.3V4.65806H100.092V6.86561H97.8889V9.07908H100.092V17.9211H102.3Z"
    fill="white" />
</svg>
  