<svg width="134" height="29" viewBox="0 0 134 29" fill="none" xmlns="http://www.w3.org/2000/svg">
  <path fill-rule="evenodd" clip-rule="evenodd"
    d="M16.4053 28.048C20.4013 28.048 23.7862 24.6631 23.7862 20.674C23.7862 18.3945 22.6464 16.2798 20.9368 14.9066C21.9049 13.6639 22.5435 12.0916 22.5435 10.382C22.5435 6.35858 19.1242 2.90503 15.1008 2.90503H4.00549V8.26731H11.6404V12.8331H4.00549V28.048H16.4053ZM12.3476 12.1946V8.83718H12.0317V12.1946H12.3476ZM12.8282 12.7164V8.31537H12.5124V12.7164H12.8282ZM14.3662 11.7827V12.4349L17.0782 12.0985L14.3662 11.7827ZM14.3662 8.59687V9.24913L17.0782 8.89897L14.3662 8.59687ZM14.3662 10.2447V10.7871L19.083 10.5262L14.3662 10.2447ZM10.4595 22.5827V18.2229H14.888C16.0277 18.2229 17.0645 19.1978 17.0645 20.3994C17.0645 21.6078 16.0964 22.5827 14.888 22.5827H10.4595Z"
    fill="white" />
  <path fill-rule="evenodd" clip-rule="evenodd"
    d="M4.06686 12.7987V8.23291C2.76921 8.23291 0.215088 9.87386 0.215088 10.4643C0.215088 11.1303 2.64562 12.7987 4.06686 12.7987ZM3.74417 12.3868C3.74417 12.2838 3.74417 12.1877 3.74417 12.0916C2.98205 11.9405 1.10079 11.1372 0.819288 10.6703C0.819288 10.6703 1.6226 11.8924 3.74417 12.3868Z"
    fill="white" />
  <path
    d="M110.386 12.3595V28.0481H116.984V12.3595H110.386ZM123.657 8.23313V2.87085H103.842V8.23313H123.657Z"
    fill="white" />
  <path
    d="M83.8896 28.0481H102.853V22.6515H90.4947V18.0239H98.4728V12.3595C93.6118 12.3595 88.7507 12.3595 83.8896 12.3595V28.0481ZM102.853 8.23313V2.87085H83.8896V8.23313H102.853Z"
    fill="white" />
  <path
    d="M45.1798 28.0825H63.7178V22.6584H51.7848V12.3595H45.1798V28.0825ZM51.7848 8.23313V2.87085H45.1798V8.23313H51.7848Z"
    fill="white" />
  <path
    d="M31.2422 2.87085H24.6029V8.23313H31.2422V2.87085ZM24.6029 12.3595V18.1132C24.6029 23.654 28.9971 28.0481 34.531 28.0481C39.9963 28.0481 44.4523 23.654 44.4523 18.1132V12.3595H37.8129V18.0171C37.8129 19.8228 36.3367 21.299 34.531 21.299C32.7184 21.299 31.2422 19.8228 31.2422 18.0171V12.3595H24.6029ZM44.4523 8.23313V2.87085H37.8129V8.23313H44.4523Z"
    fill="white" />
  <path d="M4.28662 12.428V12.1328H11.3928V12.428H4.28662Z" fill="white" />
  <path
    d="M64.576 28.0825H83.114V22.6584H71.1811V12.3595H64.576V28.0825ZM71.1811 8.23313V2.87085H64.576V8.23313H71.1811Z"
    fill="white" />
  <path fill-rule="evenodd" clip-rule="evenodd"
    d="M56.1515 1.43579L59.1725 3.96931L58.3074 0.289185L56.1515 1.43579Z" fill="white" />
  <path fill-rule="evenodd" clip-rule="evenodd"
    d="M125.483 20.0905L127.117 18.5663L123.684 16.7743L125.483 20.0905Z" fill="white" />
  <path fill-rule="evenodd" clip-rule="evenodd"
    d="M54.9707 15.0371L55.9388 16.4995L57.4287 14.2544L54.9707 15.0371Z" fill="white" />
  <path fill-rule="evenodd" clip-rule="evenodd"
    d="M60.0583 5.6515L61.5757 7.05215L61.0402 5.03357L60.0583 5.6515Z" fill="white" />
  <path fill-rule="evenodd" clip-rule="evenodd"
    d="M121.213 15.9778L122.661 14.941L120.622 13.712L121.213 15.9778Z" fill="white" />
  <path fill-rule="evenodd" clip-rule="evenodd"
    d="M55.5886 5.40428L57.6827 6.09087L56.1516 4.42932L55.5886 5.40428Z" fill="white" />
  <path fill-rule="evenodd" clip-rule="evenodd"
    d="M120.149 19.5412L121.646 19.1498L120.025 17.296L120.149 19.5412Z" fill="white" />
  <path fill-rule="evenodd" clip-rule="evenodd"
    d="M129.926 5.46598L133.784 3.89369L131.999 2.10168L129.926 5.46598Z" fill="white" />
  <path fill-rule="evenodd" clip-rule="evenodd"
    d="M126.109 7.77291L128.464 6.98333L127.619 5.71313L126.109 7.77291Z" fill="white" />
  <path fill-rule="evenodd" clip-rule="evenodd"
    d="M129.919 8.10265H132.329L131.698 6.81873L129.919 8.10265Z" fill="white" />
  <path fill-rule="evenodd" clip-rule="evenodd"
    d="M126.259 4.20258L127.825 2.69895L126.699 1.97803L126.259 4.20258Z" fill="white" />
  <path fill-rule="evenodd" clip-rule="evenodd"
    d="M60.0032 18.4771L61.2802 19.0607L61.6647 16.9048L60.0032 18.4771Z" fill="white" />
  <path fill-rule="evenodd" clip-rule="evenodd"
    d="M59.1721 14.124L60.5384 14.9067L61.0602 12.5105L59.1721 14.124Z" fill="white" />
  <path fill-rule="evenodd" clip-rule="evenodd"
    d="M62.3172 4.0242L62.4202 2.14294L61.2324 2.2322L62.3172 4.0242Z" fill="white" />
</svg>
  