<svg width="102" height="36" viewBox="0 0 102 36" fill="none" xmlns="http://www.w3.org/2000/svg">
  <path
    d="M48.7056 16.9182H45.1992V13.1035H48.7056V11.4473C48.7056 5.05135 50.5673 4.80008 57.9569 4.80008V8.26077C53.9594 8.26077 53.4569 8.47778 53.4569 10.6593V13.092H57.9569V16.9068H53.4569V31.3206H48.7056V16.9182ZM61.3263 4.75439H66.2261V8.9689H61.3263V4.75439ZM61.3605 13.092H66.1461V31.3206H61.3605V13.092Z"
    fill="white" />
  <path
    d="M71.1603 13.0921H75.626L75.7631 16.2444H76.0486C77.0195 13.5375 78.9497 12.8065 81.885 12.8065V17.3522C77.2022 17.3522 75.9116 19.0655 75.9116 24.0338V31.3206H71.1603V13.0921Z"
    fill="white" />
  <path
    d="M84.4208 22.1721C84.4208 14.8053 84.8891 12.8065 92.7813 12.8065C100.673 12.8065 101.142 14.8053 101.142 22.1721C101.142 29.5389 100.673 31.6062 92.7813 31.6062C84.8891 31.6176 84.4208 29.5275 84.4208 22.1721ZM96.3562 22.1721C96.3562 17.1581 96.3562 16.6327 92.7813 16.6327C89.2064 16.6327 89.2064 17.1695 89.2064 22.1721C89.2064 27.1747 89.2064 27.78 92.7813 27.78C96.3562 27.78 96.3562 27.1747 96.3562 22.1721Z"
    fill="white" />
  <path
    d="M10.8667 25.9753C11.2778 25.9753 11.6662 25.7468 11.8489 25.3814L14.4644 20.413H10.4212C9.80448 20.413 9.31335 19.9105 9.31335 19.3052V17.078C9.31335 16.4612 9.8159 15.9701 10.4212 15.9701H16.8172L21.7855 6.55885C21.9797 6.19337 22.3566 5.96494 22.7678 5.96494H31.1397C27.896 2.53852 23.316 0.40271 18.2221 0.40271C8.39964 0.40271 0.42749 8.36344 0.42749 18.1973C0.42749 20.9841 1.06709 23.6339 2.22065 25.9867L10.8667 25.9753Z"
    fill="white" />
  <path
    d="M25.5545 10.3964C25.1433 10.3964 24.755 10.6249 24.5723 10.9903L21.9568 15.9587H25.9999C26.6167 15.9587 27.1078 16.4612 27.1078 17.0665V19.2937C27.1078 19.9105 26.6053 20.4016 25.9999 20.4016H19.604L14.6356 29.8128C14.4415 30.1783 14.0646 30.4068 13.6534 30.4068H5.28149C8.52518 33.8332 13.1052 35.969 18.1991 35.969C28.0215 35.969 35.9937 28.0083 35.9937 18.1744C35.9937 15.3876 35.3541 12.7378 34.2005 10.385L25.5545 10.3964Z"
    fill="white" />
</svg>
  