<svg width="129" height="26" viewBox="0 0 129 26" fill="none" xmlns="http://www.w3.org/2000/svg">
<path d="M99.6984 18.2089V6.15137H101.24V18.2089H99.6984Z" fill="white"/>
<path d="M107.215 18.3802C106.415 18.3802 105.695 18.1917 105.056 17.8148C104.416 17.4379 103.908 16.9296 103.531 16.2899C103.154 15.6388 102.965 14.9135 102.965 14.1139C102.965 13.3258 103.154 12.6176 103.531 11.9894C103.908 11.3497 104.416 10.8414 105.056 10.4645C105.695 10.0875 106.415 9.89906 107.215 9.89906C108.003 9.89906 108.717 10.0875 109.356 10.4645C110.007 10.83 110.521 11.3326 110.898 11.9722C111.275 12.6119 111.464 13.3258 111.464 14.1139C111.464 14.9135 111.275 15.6388 110.898 16.2899C110.521 16.9296 110.007 17.4379 109.356 17.8148C108.717 18.1917 108.003 18.3802 107.215 18.3802ZM107.215 16.8896C107.729 16.8896 108.185 16.7696 108.585 16.5298C108.985 16.2899 109.299 15.9644 109.528 15.5532C109.756 15.1305 109.87 14.6508 109.87 14.1139C109.87 13.5885 109.75 13.1202 109.51 12.709C109.282 12.2978 108.968 11.9779 108.568 11.7495C108.18 11.5096 107.729 11.3897 107.215 11.3897C106.701 11.3897 106.244 11.5096 105.844 11.7495C105.444 11.9779 105.13 12.2978 104.902 12.709C104.673 13.1202 104.559 13.5885 104.559 14.1139C104.559 14.6508 104.673 15.1305 104.902 15.5532C105.13 15.9644 105.444 16.2899 105.844 16.5298C106.244 16.7696 106.701 16.8896 107.215 16.8896Z" fill="white"/>
<path d="M116.919 18.3802C116.12 18.3802 115.394 18.1917 114.743 17.8148C114.104 17.4379 113.595 16.9296 113.218 16.2899C112.853 15.6388 112.67 14.9192 112.67 14.1311C112.67 13.3315 112.853 12.6119 113.218 11.9722C113.595 11.3326 114.104 10.83 114.743 10.4645C115.394 10.0875 116.12 9.89906 116.919 9.89906C117.547 9.89906 118.13 10.019 118.667 10.2589C119.204 10.4873 119.666 10.8243 120.055 11.2698L119.027 12.2978C118.775 12.0008 118.467 11.7781 118.101 11.6296C117.747 11.4696 117.353 11.3897 116.919 11.3897C116.405 11.3897 115.948 11.5096 115.548 11.7495C115.149 11.9779 114.835 12.2978 114.606 12.709C114.378 13.1202 114.263 13.5942 114.263 14.1311C114.263 14.6679 114.378 15.142 114.606 15.5532C114.835 15.9644 115.149 16.2899 115.548 16.5298C115.948 16.7696 116.405 16.8896 116.919 16.8896C117.353 16.8896 117.747 16.8153 118.101 16.6668C118.467 16.5069 118.781 16.2785 119.044 15.9815L120.055 17.0095C119.678 17.4436 119.215 17.7805 118.667 18.0204C118.13 18.2603 117.547 18.3802 116.919 18.3802Z" fill="white"/>
<path d="M126.793 18.2089L122.989 14.0454L126.758 10.0704H128.626L124.428 14.4566L124.497 13.5657L128.78 18.2089H126.793ZM121.584 18.2089V6.15137H123.126V18.2089H121.584Z" fill="white"/>
<path d="M82.9653 18.2352L80.4295 14.6714L80.1382 14.3972L76.9342 10.0967H78.8018L81.1148 13.2664L81.4061 13.5063L84.8328 18.2352H82.9653ZM76.78 18.2352L80.1382 13.7119L81.012 14.8427L78.5962 18.2352H76.78ZM81.526 14.3801L80.6351 13.2835L82.8796 10.0967H84.6786L81.526 14.3801Z" fill="white"/>
<path d="M92.1184 9.04901L92.1109 9.0415L89.7365 9.04401L91.8366 11.1731L93.0388 9.97022L92.1184 9.04901Z" fill="#50D4F2"/>
<path d="M90.8967 15.3003H92.084L96.8874 10.5102C97.2719 10.1255 97.5229 9.64652 97.6131 9.125C97.6969 8.6415 97.6404 8.14274 97.4499 7.682C97.2594 7.22151 96.9469 6.82855 96.5461 6.54591C96.1139 6.241 95.5979 6.07966 95.0541 6.07941L86.7402 6.07617V18.3036L94.9804 18.294C95.5299 18.2933 96.0514 18.1297 96.4881 17.8213C96.8931 17.5351 97.2089 17.1377 97.4011 16.6722C97.5936 16.2064 97.6504 15.7022 97.5656 15.2134C97.4741 14.6864 97.2204 14.2022 96.8319 13.8134L96.2104 13.1915L95.0084 14.3941L95.6299 15.0161C96.0344 15.4208 95.8856 15.8885 95.8304 16.0224C95.7751 16.1562 95.5504 16.5924 94.9781 16.5934L88.4402 16.6007V7.77781L95.0534 7.7803C95.6076 7.78055 95.8256 8.20327 95.8791 8.33284C95.9326 8.46241 96.0771 8.91539 95.6851 9.3076L89.7444 15.2988L90.8967 15.3003Z" fill="white"/>
<path d="M2.95003 14.304V12.904H5.40003C5.73603 12.904 6.03003 12.8387 6.28203 12.708C6.54336 12.568 6.7487 12.3767 6.89803 12.134C7.04736 11.882 7.12203 11.588 7.12203 11.252C7.12203 10.916 7.04736 10.6267 6.89803 10.384C6.7487 10.132 6.54336 9.94067 6.28203 9.81C6.03003 9.67 5.73603 9.6 5.40003 9.6H2.95003V8.2H5.48403C6.10003 8.2 6.6507 8.326 7.13603 8.578C7.6307 8.83 8.01803 9.18467 8.29803 9.642C8.58736 10.0993 8.73203 10.636 8.73203 11.252C8.73203 11.868 8.58736 12.4047 8.29803 12.862C8.01803 13.3193 7.6307 13.674 7.13603 13.926C6.6507 14.178 6.10003 14.304 5.48403 14.304H2.95003ZM1.84403 18V8.2H3.45403V18H1.84403ZM12.8215 18.14C12.1681 18.14 11.5755 17.986 11.0435 17.678C10.5115 17.3607 10.0868 16.936 9.76945 16.404C9.46145 15.872 9.30745 15.2793 9.30745 14.626C9.30745 13.9727 9.46145 13.3847 9.76945 12.862C10.0868 12.3393 10.5115 11.924 11.0435 11.616C11.5755 11.2987 12.1681 11.14 12.8215 11.14C13.4841 11.14 14.0815 11.294 14.6135 11.602C15.1455 11.91 15.5655 12.33 15.8735 12.862C16.1908 13.3847 16.3495 13.9727 16.3495 14.626C16.3495 15.2793 16.1908 15.872 15.8735 16.404C15.5655 16.936 15.1455 17.3607 14.6135 17.678C14.0815 17.986 13.4841 18.14 12.8215 18.14ZM12.8215 16.656C13.2041 16.656 13.5401 16.572 13.8295 16.404C14.1281 16.2267 14.3568 15.984 14.5155 15.676C14.6835 15.368 14.7675 15.018 14.7675 14.626C14.7675 14.234 14.6835 13.8887 14.5155 13.59C14.3475 13.2913 14.1188 13.058 13.8295 12.89C13.5401 12.7127 13.2041 12.624 12.8215 12.624C12.4481 12.624 12.1121 12.7127 11.8135 12.89C11.5241 13.058 11.2955 13.2913 11.1275 13.59C10.9688 13.8887 10.8895 14.234 10.8895 14.626C10.8895 15.018 10.9688 15.368 11.1275 15.676C11.2955 15.984 11.5241 16.2267 11.8135 16.404C12.1121 16.572 12.4481 16.656 12.8215 16.656ZM19.4261 18L16.7241 11.28H18.3201L20.1401 16.166L19.6641 16.18L21.4421 11.28H22.3381L24.1161 16.18L23.6401 16.166L25.4601 11.28H27.0561L24.3541 18H23.4581L21.6381 13.352H22.1421L20.3221 18H19.4261ZM30.9787 18.14C30.3067 18.14 29.7 17.9907 29.1587 17.692C28.6267 17.384 28.202 16.964 27.8847 16.432C27.5767 15.9 27.4227 15.3027 27.4227 14.64C27.4227 13.9773 27.5767 13.3847 27.8847 12.862C28.1927 12.33 28.608 11.91 29.1307 11.602C29.6627 11.294 30.2507 11.14 30.8947 11.14C31.52 11.14 32.0707 11.2847 32.5467 11.574C33.032 11.8633 33.41 12.26 33.6807 12.764C33.9607 13.268 34.1007 13.842 34.1007 14.486C34.1007 14.598 34.0914 14.7147 34.0727 14.836C34.0634 14.948 34.0447 15.074 34.0167 15.214H28.5007V13.954H33.2187L32.6447 14.458C32.626 14.0473 32.5467 13.702 32.4067 13.422C32.2667 13.142 32.066 12.9273 31.8047 12.778C31.5527 12.6287 31.24 12.554 30.8667 12.554C30.4747 12.554 30.134 12.638 29.8447 12.806C29.5554 12.974 29.3314 13.212 29.1727 13.52C29.014 13.8187 28.9347 14.178 28.9347 14.598C28.9347 15.018 29.0187 15.3867 29.1867 15.704C29.3547 16.0213 29.5927 16.2687 29.9007 16.446C30.2087 16.614 30.5634 16.698 30.9647 16.698C31.31 16.698 31.6274 16.6373 31.9167 16.516C32.2154 16.3947 32.4674 16.2173 32.6727 15.984L33.6527 16.978C33.326 17.3607 32.9294 17.65 32.4627 17.846C31.996 18.042 31.5014 18.14 30.9787 18.14ZM35.3352 18V11.28H36.8752V18H35.3352ZM36.8752 14.262L36.3432 13.996C36.3432 13.1467 36.5299 12.4607 36.9032 11.938C37.2859 11.406 37.8599 11.14 38.6252 11.14C38.9612 11.14 39.2645 11.2007 39.5352 11.322C39.8059 11.4433 40.0579 11.6393 40.2912 11.91L39.2832 12.946C39.1619 12.8153 39.0265 12.722 38.8772 12.666C38.7279 12.61 38.5552 12.582 38.3592 12.582C37.9299 12.582 37.5752 12.7173 37.2952 12.988C37.0152 13.2587 36.8752 13.6833 36.8752 14.262ZM43.9533 18.14C43.2813 18.14 42.6746 17.9907 42.1333 17.692C41.6013 17.384 41.1766 16.964 40.8593 16.432C40.5513 15.9 40.3973 15.3027 40.3973 14.64C40.3973 13.9773 40.5513 13.3847 40.8593 12.862C41.1673 12.33 41.5826 11.91 42.1053 11.602C42.6373 11.294 43.2253 11.14 43.8693 11.14C44.4946 11.14 45.0453 11.2847 45.5213 11.574C46.0066 11.8633 46.3846 12.26 46.6553 12.764C46.9353 13.268 47.0753 13.842 47.0753 14.486C47.0753 14.598 47.066 14.7147 47.0473 14.836C47.038 14.948 47.0193 15.074 46.9913 15.214H41.4753V13.954H46.1933L45.6193 14.458C45.6006 14.0473 45.5213 13.702 45.3813 13.422C45.2413 13.142 45.0406 12.9273 44.7793 12.778C44.5273 12.6287 44.2146 12.554 43.8413 12.554C43.4493 12.554 43.1086 12.638 42.8193 12.806C42.53 12.974 42.306 13.212 42.1473 13.52C41.9886 13.8187 41.9093 14.178 41.9093 14.598C41.9093 15.018 41.9933 15.3867 42.1613 15.704C42.3293 16.0213 42.5673 16.2687 42.8753 16.446C43.1833 16.614 43.538 16.698 43.9393 16.698C44.2846 16.698 44.602 16.6373 44.8913 16.516C45.19 16.3947 45.442 16.2173 45.6473 15.984L46.6273 16.978C46.3006 17.3607 45.904 17.65 45.4373 17.846C44.9706 18.042 44.476 18.14 43.9533 18.14ZM51.1238 18.14C50.5171 18.14 49.9665 17.986 49.4718 17.678C48.9865 17.37 48.5991 16.9547 48.3098 16.432C48.0298 15.9 47.8898 15.3073 47.8898 14.654C47.8898 13.9913 48.0298 13.3987 48.3098 12.876C48.5991 12.344 48.9865 11.924 49.4718 11.616C49.9665 11.2987 50.5171 11.14 51.1238 11.14C51.6371 11.14 52.0898 11.252 52.4818 11.476C52.8831 11.6907 53.2005 11.9893 53.4338 12.372C53.6671 12.7547 53.7838 13.1887 53.7838 13.674V15.606C53.7838 16.0913 53.6671 16.5253 53.4338 16.908C53.2098 17.2907 52.8971 17.594 52.4958 17.818C52.0945 18.0327 51.6371 18.14 51.1238 18.14ZM51.3758 16.684C51.7585 16.684 52.0898 16.6 52.3698 16.432C52.6591 16.2547 52.8831 16.012 53.0418 15.704C53.2005 15.396 53.2798 15.0413 53.2798 14.64C53.2798 14.2387 53.2005 13.884 53.0418 13.576C52.8831 13.268 52.6591 13.03 52.3698 12.862C52.0898 12.6847 51.7585 12.596 51.3758 12.596C51.0025 12.596 50.6711 12.6847 50.3818 12.862C50.1018 13.03 49.8778 13.268 49.7098 13.576C49.5511 13.884 49.4718 14.2387 49.4718 14.64C49.4718 15.0413 49.5511 15.396 49.7098 15.704C49.8778 16.012 50.1018 16.2547 50.3818 16.432C50.6711 16.6 51.0025 16.684 51.3758 16.684ZM54.7218 18H53.1818V16.194L53.4478 14.556L53.1818 12.932V7.92H54.7218V18ZM62.8316 18.14C62.3183 18.14 61.861 18.0327 61.4596 17.818C61.0583 17.594 60.741 17.2907 60.5076 16.908C60.2836 16.5253 60.1716 16.0913 60.1716 15.606V13.674C60.1716 13.1887 60.2883 12.7547 60.5216 12.372C60.755 11.9893 61.0723 11.6907 61.4736 11.476C61.875 11.252 62.3276 11.14 62.8316 11.14C63.4383 11.14 63.9843 11.2987 64.4696 11.616C64.9643 11.924 65.3516 12.344 65.6316 12.876C65.921 13.3987 66.0656 13.9913 66.0656 14.654C66.0656 15.3073 65.921 15.9 65.6316 16.432C65.3516 16.9547 64.9643 17.37 64.4696 17.678C63.9843 17.986 63.4383 18.14 62.8316 18.14ZM62.5796 16.684C62.953 16.684 63.2796 16.6 63.5596 16.432C63.849 16.2547 64.073 16.012 64.2316 15.704C64.3996 15.396 64.4836 15.0413 64.4836 14.64C64.4836 14.2387 64.3996 13.884 64.2316 13.576C64.073 13.268 63.849 13.03 63.5596 12.862C63.2796 12.6847 62.953 12.596 62.5796 12.596C62.2063 12.596 61.875 12.6847 61.5856 12.862C61.2963 13.03 61.0723 13.268 60.9136 13.576C60.755 13.884 60.6756 14.2387 60.6756 14.64C60.6756 15.0413 60.755 15.396 60.9136 15.704C61.0723 16.012 61.2963 16.2547 61.5856 16.432C61.875 16.6 62.2063 16.684 62.5796 16.684ZM59.2336 18V7.92H60.7736V12.932L60.5076 14.556L60.7736 16.194V18H59.2336ZM69.2923 18.07L66.4223 11.28H68.1163L70.0763 16.264H69.5863L71.6583 11.28H73.3663L70.2443 18.07H69.2923ZM67.2903 20.8L69.3763 16.502L70.2443 18.07L68.9983 20.8H67.2903Z" fill="#50D4F2"/>
</svg>
