<svg width="40" height="29" viewBox="0 0 40 29" fill="none" xmlns="http://www.w3.org/2000/svg">
  <path
    d="M18.0058 23.7055C18.1558 23.7058 18.3043 23.7354 18.4428 23.7928C18.5814 23.8502 18.7072 23.9342 18.8131 24.0401C18.919 24.146 19.003 24.2716 19.0602 24.4098C19.1174 24.548 19.1468 24.696 19.1466 24.8455C19.1463 24.995 19.1166 25.143 19.059 25.281C19.0014 25.419 18.917 25.5444 18.8108 25.65C18.7046 25.7555 18.5785 25.8392 18.4398 25.8962C18.3012 25.9532 18.1526 25.9824 18.0025 25.9822C17.6996 25.9818 17.4092 25.8615 17.1952 25.6477C16.9813 25.4339 16.8613 25.1442 16.8618 24.8423C16.8622 24.5404 16.983 24.251 17.1975 24.0378C17.4121 23.8246 17.7028 23.7051 18.0058 23.7055ZM35.9201 16.6666C35.7701 16.6665 35.6215 16.637 35.483 16.5797C35.3444 16.5223 35.2185 16.4384 35.1125 16.3326C35.0065 16.2268 34.9225 16.1013 34.8651 15.9631C34.8078 15.825 34.7784 15.6769 34.7785 15.5275C34.7786 15.378 34.8083 15.23 34.8658 15.0919C34.9233 14.9538 35.0075 14.8284 35.1137 14.7228C35.2198 14.6171 35.3458 14.5334 35.4845 14.4763C35.6231 14.4192 35.7717 14.3898 35.9217 14.3899C36.2247 14.3901 36.5152 14.5103 36.7293 14.7239C36.9433 14.9375 37.0635 15.2272 37.0633 15.5291C37.0631 15.831 36.9425 16.1204 36.7281 16.3338C36.5137 16.5471 36.2231 16.6668 35.9201 16.6666ZM35.9201 12.0096C34.9834 12.0105 34.0853 12.3816 33.423 13.0416C32.7606 13.7016 32.3881 14.5965 32.3873 15.5299C32.3873 15.9072 32.4506 16.2828 32.5741 16.6488L20.9048 22.8392C20.5813 22.3711 20.1483 21.9884 19.6433 21.724C19.1382 21.4597 18.5763 21.3217 18.0058 21.322C16.6586 21.322 15.4317 22.0911 14.837 23.291L4.35394 17.7823C3.24568 17.2026 2.41691 15.3858 2.50466 13.7309C2.55016 12.8678 2.84917 12.1974 3.3058 11.9384C3.59506 11.7764 3.94281 11.7894 4.31332 11.9821L4.38157 12.0193C7.16036 13.4767 16.2508 18.2486 16.6343 18.4251C17.2242 18.6988 17.5524 18.8089 18.5599 18.3328L37.3517 8.59458C37.628 8.49095 37.9497 8.22701 37.9497 7.82705C37.9497 7.27327 37.3745 7.05467 37.3728 7.05467C36.3036 6.5446 34.6607 5.77869 33.0584 5.03059C29.6328 3.43237 25.7507 1.62204 24.046 0.731444C22.5737 -0.036087 21.3891 0.611618 21.1778 0.741159L20.7683 0.943567C13.095 4.72455 2.82479 9.79284 2.23978 10.1475C1.19489 10.7822 0.546507 12.0469 0.462006 13.6159C0.332004 16.1047 1.6044 18.7004 3.42605 19.6509L14.512 25.3475C14.6341 26.1843 15.0543 26.9494 15.6958 27.5029C16.3372 28.0565 17.1572 28.3616 18.0058 28.3625C18.9326 28.361 19.8218 27.9971 20.4821 27.3491C21.1424 26.7011 21.5212 25.8207 21.537 24.8973L33.7474 18.3021C34.3649 18.7846 35.1336 19.0485 35.9201 19.0485C36.8568 19.0477 37.7549 18.6765 38.4172 18.0165C39.0795 17.3565 39.452 16.4616 39.4529 15.5283C39.452 14.5949 39.0795 13.7 38.4172 13.04C37.7549 12.38 36.8568 12.0088 35.9201 12.008"
    fill="none" />
</svg>
  