<svg width="20" height="21" viewBox="0 0 20 21" fill="none" xmlns="http://www.w3.org/2000/svg">
<path d="M9.99911 20.4939C15.4772 20.4939 20 15.9659 20 10.4969C20 5.01999 15.4693 0.5 9.99116 0.5C4.52272 0.5 0 5.01999 0 10.4969C0 15.9659 4.53065 20.4939 9.99911 20.4939ZM9.99911 18.5246C5.54338 18.5246 1.97762 14.9517 1.97762 10.4969C1.97762 6.04217 5.53543 2.46925 9.99116 2.46925C14.4469 2.46925 18.0303 6.04217 18.0303 10.4969C18.0303 14.9517 14.4548 18.5246 9.99911 18.5246Z" fill="#D9D9D9" style="mix-blend-mode:screen"/>
<path d="M8.81437 15.1478V8.69195H10.904V15.1478H8.81437ZM9.86601 7.80195C9.53823 7.80195 9.26507 7.69569 9.04655 7.48315C8.83713 7.26176 8.73242 6.99608 8.73242 6.68613C8.73242 6.36733 8.83713 6.10166 9.04655 5.88912C9.26507 5.67658 9.53823 5.57031 9.86601 5.57031C10.1938 5.57031 10.4624 5.67658 10.6718 5.88912C10.8812 6.10166 10.9859 6.36733 10.9859 6.68613C10.9859 6.99608 10.8812 7.26176 10.6718 7.48315C10.4624 7.69569 10.1938 7.80195 9.86601 7.80195Z" fill="#D9D9D9" style="mix-blend-mode:screen"/>
</svg>
