<svg width="16" height="17" viewBox="0 0 16 17" fill="none" xmlns="http://www.w3.org/2000/svg">
<path fill-rule="evenodd" clip-rule="evenodd" d="M10.89 1.41797H5.11065C2.8456 1.41797 1.33398 3.0397 1.33398 5.36197V10.8073C1.33398 13.1318 2.84156 14.7513 5.11065 14.7513H10.8893C13.1591 14.7513 14.6673 13.1317 14.6673 10.8073V5.36197C14.6673 3.03764 13.1592 1.41797 10.89 1.41797ZM5.11065 2.41797H10.89C12.5903 2.41797 13.6673 3.57461 13.6673 5.36197V10.8073C13.6673 12.5947 12.5902 13.7513 10.8893 13.7513H5.11065C3.41049 13.7513 2.33398 12.5948 2.33398 10.8073V5.36197C2.33398 3.57688 3.41421 2.41797 5.11065 2.41797ZM8.00018 5.05404C8.27633 5.05404 8.50018 5.27789 8.50018 5.55404C8.50018 5.80717 8.31208 6.01636 8.06803 6.04947L7.99352 6.05404C7.71738 6.05404 7.49352 5.83018 7.49352 5.55404C7.49352 5.30091 7.68162 5.09171 7.92567 5.0586L8.00018 5.05404ZM7.99352 7.16924C8.24665 7.16924 8.45584 7.35734 8.48895 7.60139L8.49352 7.66924V10.6152C8.49352 10.8914 8.26966 11.1152 7.99352 11.1152C7.74039 11.1152 7.53119 10.9271 7.49808 10.6831L7.49352 10.6152V7.66924C7.49352 7.39309 7.71738 7.16924 7.99352 7.16924Z" fill="white"/>
</svg>
