<svg width="17" height="17" viewBox="0 0 17 17" fill="none" xmlns="http://www.w3.org/2000/svg">
<path fill-rule="evenodd" clip-rule="evenodd" d="M11.39 1.42432H5.61065C3.3456 1.42432 1.83398 3.04605 1.83398 5.36832V10.8136C1.83398 13.1381 3.34156 14.7576 5.61065 14.7576H11.3893C13.6591 14.7576 15.1673 13.1381 15.1673 10.8136V5.36832C15.1673 3.04399 13.6592 1.42432 11.39 1.42432ZM5.61065 2.42432H11.39C13.0903 2.42432 14.1673 3.58096 14.1673 5.36832V10.8136C14.1673 12.6011 13.0902 13.7576 11.3893 13.7576H5.61065C3.91049 13.7576 2.83398 12.6012 2.83398 10.8136V5.36832C2.83398 3.58323 3.91421 2.42432 5.61065 2.42432ZM8.50018 5.06038C8.77633 5.06038 9.00018 5.28424 9.00018 5.56038C9.00018 5.81351 8.81208 6.02271 8.56803 6.05582L8.49352 6.06038C8.21738 6.06038 7.99352 5.83653 7.99352 5.56038C7.99352 5.30725 8.18162 5.09806 8.42567 5.06495L8.50018 5.06038ZM8.49352 7.17558C8.74665 7.17558 8.95584 7.36369 8.98895 7.60774L8.99352 7.67558V10.6216C8.99352 10.8977 8.76966 11.1216 8.49352 11.1216C8.24039 11.1216 8.03119 10.9335 7.99808 10.6894L7.99352 10.6216V7.67558C7.99352 7.39944 8.21738 7.17558 8.49352 7.17558Z" fill="#F98F3B"/>
</svg>
