<svg width="42" height="43" viewBox="0 0 42 43" fill="none" xmlns="http://www.w3.org/2000/svg">
<circle cx="21" cy="21.2998" r="21" fill="url(#paint0_linear_1630_31258)"/>
<path d="M33.0572 23.6426C32.6534 22.9474 32.1689 22.2938 31.6819 21.6378C31.1386 20.9034 30.5978 20.1714 30.1671 19.3832C29.3571 17.9022 28.9949 16.0834 29.893 14.7517C29.8979 14.7443 29.893 14.7321 29.8832 14.7321C28.366 14.4237 26.9466 13.7603 25.7622 12.8398C24.8641 12.1422 24.0761 11.2952 23.501 10.3454C23.1315 9.73339 22.8427 9.08468 22.6445 8.41884C22.598 8.25972 22.2799 8.25972 22.2627 8.42129L22.1453 9.57427C22.1159 9.85089 22.0865 10.1373 21.9275 10.3674C21.5286 10.9549 20.6036 10.9133 19.8205 10.8423C17.5617 10.6367 15.2614 10.7419 13.1837 11.4249C11.9895 11.819 10.8785 12.4114 9.96081 13.1923C9.50074 13.584 9.08962 14.0246 8.74701 14.5069C8.42154 14.9622 8.24534 15.4763 8.1083 16.0099C7.77793 17.3098 8.24534 18.7394 8.94279 19.9364C9.34657 20.6317 9.83356 21.2853 10.3181 21.9413C10.8614 22.6757 11.4022 23.4076 11.8329 24.1959C12.6429 25.6769 13.0051 27.4957 12.107 28.8274C12.1021 28.8347 12.107 28.847 12.1168 28.847C13.634 29.1554 15.0534 29.8188 16.2378 30.7392C17.1359 31.4369 17.8994 32.2839 18.4745 33.2337C18.844 33.8457 19.1328 34.4944 19.3286 35.1578C19.3751 35.3169 19.8498 35.3561 19.9086 35.2043C19.9918 34.9889 20.0774 34.7637 20.1508 34.4821C20.1631 34.4356 20.1753 34.3842 20.19 34.3328C20.3148 33.8506 20.4861 33.197 20.628 32.9889C20.9413 32.5262 21.4894 32.6095 22.089 32.7C22.2505 32.7245 22.4169 32.749 22.5858 32.7637C24.8445 32.9693 26.7386 32.8371 28.8163 32.1541C30.0105 31.76 31.1215 31.1676 32.0392 30.3867C32.4993 29.9951 32.9104 29.5544 33.253 29.0722C33.576 28.6169 33.7547 28.1028 33.8917 27.5691C34.2221 26.2693 33.7547 24.8397 33.0572 23.6426ZM29.198 27.5373C28.4443 28.3745 27.1693 28.6609 25.9555 28.776C25.8258 28.7882 25.7084 28.8005 25.5982 28.8102C24.6145 28.9082 24.3257 28.9351 23.1535 28.7907C22.7277 28.7368 21.9715 28.5018 21.7317 28.4259C21.6852 28.4112 21.6509 28.3745 21.6387 28.3256C21.5898 28.1297 21.4601 27.5838 21.394 27.0183C21.3328 26.492 21.2741 25.5985 21.2937 24.7369C21.2961 24.5802 21.0808 24.5214 21.0269 24.6634C20.9853 24.776 20.9437 24.8886 20.9021 25.0012C20.4959 26.1077 20.0921 27.2093 19.0839 27.88C17.7306 28.7833 15.6113 28.7221 13.7319 28.6707C13.541 28.6658 13.3526 28.6609 13.1666 28.656C13.0222 28.6536 12.9488 28.4259 13.0491 28.3256C13.6511 27.7209 13.5973 26.8029 13.5435 25.8409C13.5386 25.7723 13.5361 25.7038 13.5312 25.6353C13.4676 24.426 13.1348 23.2363 12.802 22.0441C12.5426 21.1188 12.2832 20.1935 12.151 19.2584C11.9871 18.1225 12.0458 16.8863 12.8142 16.0344C13.5679 15.1972 14.8429 14.9108 16.0567 14.7957C17.3439 14.6733 18.4672 14.6807 19.7715 14.8398C20.2756 14.9035 20.376 14.972 20.5228 15.2511C20.5252 15.2584 20.5277 15.2633 20.5301 15.2706C20.6256 15.5644 20.7749 16.8275 20.7749 16.8422L21.0808 19.2314C21.0979 19.371 21.2741 19.4003 21.3157 19.2706C21.438 18.8936 21.5237 18.4921 21.6069 18.0931C21.8271 17.0528 22.0449 16.0246 22.921 15.4396C24.1569 14.6146 25.9971 14.7345 27.7273 14.8447C28.0846 14.8667 28.4394 14.8912 28.782 14.9035C28.9264 14.9083 28.9998 15.1409 28.9019 15.2413C28.3464 15.8165 28.4002 16.6733 28.459 17.5766C28.4663 17.6941 28.4737 17.8116 28.481 17.9316C28.5446 19.1409 28.8774 20.3306 29.2103 21.5227C29.4697 22.448 29.7291 23.3734 29.8612 24.3085C30.0252 25.4443 29.9664 26.6805 29.198 27.5324V27.5373Z" fill="white"/>
<defs>
<linearGradient id="paint0_linear_1630_31258" x1="33.7028" y1="162.1" x2="-16.3321" y2="159.139" gradientUnits="userSpaceOnUse">
<stop stop-color="#DC7DB6"/>
<stop offset="0.556754" stop-color="#8692FF"/>
<stop offset="1" stop-color="#F8E048"/>
</linearGradient>
</defs>
</svg>
