<svg width="234" height="81" viewBox="0 0 234 81" fill="none" xmlns="http://www.w3.org/2000/svg">
  <path
    d="M226.998 0.789063C227.219 1.42844 227.66 1.91106 228.102 2.38956C229.536 3.92819 231.254 4.97181 233.274 5.48743C233.395 5.51631 233.511 5.56168 233.696 5.61943C233.696 5.78856 233.7 5.96593 233.696 6.13918C233.379 14.9956 233.09 23.8478 233.001 32.7083C232.941 38.8834 232.981 45.0627 233.214 51.2337C233.323 54.1541 233.511 57.0705 233.664 59.9869C233.672 60.1684 233.664 60.3499 233.664 60.6015C230.917 61.014 228.628 62.2886 226.845 64.5203C226.203 63.6788 225.652 62.8373 224.978 62.1195C224.311 61.41 223.56 60.7583 222.769 60.2014C221.962 59.6363 221.054 59.2238 220.143 58.7123C220.143 58.506 220.118 58.2131 220.143 57.9285C220.516 54.0304 220.749 50.124 220.902 46.2135C221.207 38.4214 221.143 30.6293 220.837 22.8372C220.657 18.2626 220.379 13.6962 220.151 9.12568C220.126 8.63068 220.151 8.13568 220.151 7.57881C220.291 7.50043 220.48 7.39731 220.665 7.29831C223.211 5.92056 225.174 3.94469 226.468 1.29644C226.548 1.13144 226.604 0.958187 226.672 0.789062C226.781 0.789062 226.889 0.789062 226.994 0.789062L226.998 0.789063Z"
    fill="none" />
  <path
    d="M20.5698 58.4971C21.0356 52.3839 21.124 46.3408 21.0999 40.3348C21.0517 40.2811 21.0396 40.2688 21.0276 40.2564C21.0156 40.244 21.0035 40.2275 20.9874 40.2234C20.8991 40.211 20.8107 40.1904 20.7224 40.1904C18.3048 40.2688 15.8873 40.3513 13.4697 40.4338C13.4215 40.4338 13.3693 40.4709 13.2448 40.5163C13.281 43.6306 13.4095 46.7656 13.6223 49.8924C13.8352 53.0067 14.1323 56.117 14.3974 59.2974C13.0561 59.8377 11.8031 60.638 10.6586 61.6197C9.52211 62.5973 8.65869 63.8142 7.81536 65.1384C6.89974 64.0865 5.9279 63.1501 4.76329 62.4571C3.58664 61.7559 2.28951 61.4217 0.908046 61.1907C1.81162 42.8428 1.17711 24.536 0.305664 6.20456C1.71925 5.80856 3.02843 5.34244 4.20508 4.52569C5.38575 3.70894 6.29334 2.64056 7.13668 1.36182C8.0282 2.80144 8.85146 4.18744 10.0402 5.29706C11.2289 6.40256 12.4898 7.38431 13.9878 8.09793C13.7548 14.2235 13.4296 20.3285 13.293 26.4872C15.8471 26.5862 18.3209 26.6563 20.875 26.7347C20.6822 20.7245 20.3971 14.801 20.124 8.89405C24.9953 7.08318 23.8789 7.70193 27.0153 4.63294C28.5975 7.35956 30.8986 9.21168 33.766 10.3791C33.766 10.6224 33.774 10.8411 33.766 11.0556C33.5812 14.6525 33.3684 18.2495 33.2118 21.8507C32.9026 28.9044 32.7981 35.9623 33.1114 43.0201C33.2278 45.6478 33.3764 48.2712 33.5612 50.8906C33.6816 52.6149 33.8945 54.3267 34.0672 56.0469C34.0953 56.3191 34.1113 56.5914 34.1395 56.9255C32.8142 57.4411 31.5291 58.031 30.3846 58.9014C29.2521 59.7635 28.3365 60.836 27.4691 62.024C26.4852 61.0711 25.5254 60.1677 24.3246 59.5944C23.148 59.0334 21.9031 58.6992 20.5778 58.4971H20.5698Z"
    fill="none" />
  <path
    d="M212.584 8.61419C212.584 8.88644 212.592 9.08857 212.584 9.28657C212.48 12.1534 212.376 15.0162 212.263 17.8831C211.938 26.3145 211.813 34.7543 211.934 43.1899C211.998 47.8223 212.203 52.4505 212.544 57.0705C212.564 57.3386 212.544 57.615 212.544 57.879C207.91 59.1825 208.757 58.8525 205.721 61.3316C204.031 58.935 201.802 57.2933 198.971 56.4848C199.043 55.8041 199.119 55.1524 199.183 54.4965C199.272 53.6014 199.344 52.7021 199.44 51.807C199.477 51.4605 199.408 51.1635 199.22 50.8706C197.963 48.9278 196.75 46.9478 195.449 45.0379C193.569 42.2824 191.625 39.5764 189.706 36.8498C189.638 36.7549 189.545 36.6765 189.453 36.5734C189.288 37.1757 189.304 41.8575 189.517 46.065C189.674 49.2165 189.887 52.368 190.079 55.5896C187.569 55.9774 185.236 56.8684 183.317 58.8154C182.919 58.3905 182.574 57.9821 182.184 57.615C181.791 57.2438 181.373 56.889 180.935 56.5714C180.497 56.2538 180.032 55.9691 179.562 55.7134C179.088 55.4535 178.598 55.2266 178.1 55.0204C177.606 54.8183 177.092 54.6656 176.542 54.4759C176.594 53.9355 176.65 53.4116 176.694 52.8836C176.827 51.3656 176.98 49.8476 177.084 48.3255C177.582 40.9995 177.57 33.6653 177.289 26.331C177.116 21.8678 176.807 17.4128 176.558 12.9537C176.546 12.7722 176.542 12.5907 176.53 12.3679C177.895 11.8564 179.184 11.2253 180.357 10.3756C181.518 9.53407 182.465 8.46982 183.293 7.20345C185.116 9.45569 187.477 10.5859 190.168 11.1469C190.12 12.3349 190.071 13.4693 190.023 14.6491C193.168 18.9432 196.396 23.2043 199.661 27.4365C199.701 27.4283 199.746 27.4159 199.786 27.4077C199.79 27.222 199.806 27.0323 199.802 26.8467C199.721 24.7347 199.653 22.6227 199.553 20.5107C199.44 18.1223 199.3 15.7381 199.167 13.3538C199.115 12.4381 199.043 11.5182 198.983 10.6024C198.975 10.4952 198.983 10.3879 198.983 10.2188C201.838 9.01432 204.187 7.17457 205.733 4.2417C206.633 5.40082 207.577 6.3867 208.765 7.08795C209.954 7.7892 211.231 8.25532 212.584 8.61832V8.61419Z"
    fill="none" />
  <path
    d="M39.4922 11.1555C45.0381 11.8279 50.3029 11.2586 55.2023 8.37939C55.3509 8.47839 55.5035 8.56914 55.64 8.68052C58.2022 10.7389 61.1257 11.9764 64.2782 12.7065C66.2942 13.1726 68.3382 13.416 70.3944 13.581C70.5349 13.5934 70.6755 13.6099 70.8803 13.6264C70.8883 13.8285 70.9084 14.0224 70.9004 14.2163C70.808 16.2375 70.6956 18.2546 70.6153 20.2759C70.4024 25.7498 70.2659 31.2278 70.4104 36.7099C70.4988 39.9439 70.6032 43.1779 70.7558 46.4119C70.8642 48.6682 71.069 50.9205 71.2337 53.1769C71.2457 53.3584 71.2578 53.5357 71.2739 53.7667C70.6353 53.8327 70.037 53.8946 69.4346 53.9565C66.9488 54.2081 64.5031 54.6866 62.1337 55.4951C59.8206 56.283 57.6761 57.405 55.7525 58.956C55.6963 59.0014 55.632 59.0302 55.5477 59.0797C50.6081 56.2706 45.263 55.8127 39.697 56.2954C39.7934 53.7544 39.8978 51.267 39.9741 48.7755C40.0504 46.2757 40.1106 43.776 40.1387 41.2762C40.1709 38.7559 40.1709 36.2396 40.1588 33.7192C40.1428 31.2195 40.1066 28.7198 40.0504 26.22C39.9942 23.7203 39.9219 21.2205 39.8295 18.7208C39.7372 16.2251 39.6167 13.7336 39.5002 11.1514L39.4922 11.1555ZM59.5997 32.6797C59.5435 31.9001 59.4672 30.543 59.3387 29.19C59.2182 27.9278 58.9973 26.6779 58.6078 25.4693C58.3748 24.7515 58.0857 24.0585 57.6159 23.4645C57.1219 22.8416 56.4994 22.5075 55.7043 22.5323C55.4031 22.5405 55.0979 22.524 54.7927 22.4951C53.9694 22.4209 53.3189 22.7385 52.845 23.4191C52.6482 23.6996 52.4836 24.0131 52.339 24.3266C51.8049 25.4651 51.5679 26.6903 51.3912 27.9319C50.9214 31.2484 50.9415 34.5649 51.4073 37.8772C51.6001 39.2426 51.845 40.6039 52.4795 41.8414C52.6924 42.258 52.9655 42.6622 53.2827 43.0005C53.7566 43.5079 54.367 43.6811 55.0537 43.5532C55.2947 43.5079 55.5517 43.5079 55.7967 43.5285C56.4673 43.5862 57.0456 43.3759 57.4914 42.8726C57.7644 42.5632 58.0415 42.2209 58.1941 41.8414C58.4993 41.0824 58.7885 40.3027 58.9732 39.5025C59.4431 37.4524 59.5515 35.361 59.6037 32.6797H59.5997Z"
    fill="none" />
  <path
    d="M115.059 13.8818C115.232 13.8736 115.392 13.8571 115.549 13.8571C119.171 13.8736 122.782 13.6797 126.38 13.2507C128.143 13.0403 129.898 12.7598 131.576 12.1493C132.295 11.8853 132.982 11.5182 133.785 11.147C133.845 11.18 134.018 11.2625 134.187 11.3573C136.604 12.6856 139.086 13.8777 141.696 14.7605C143.146 15.2513 144.616 15.6473 146.13 15.8495C146.467 15.8948 146.809 15.9113 147.146 15.9402C147.319 15.9567 147.491 15.9691 147.712 15.9897C147.347 18.803 147.206 21.5667 147.351 24.3428C147.495 27.1107 147.917 29.825 148.917 32.4278C147.266 38.3843 146.644 44.4646 146.784 50.6851C144.411 50.9821 142.198 51.6957 140.014 52.5331C137.845 53.3663 135.801 54.4677 133.765 55.5278C127.834 52.4712 121.597 51.8896 115.087 52.8507C115.087 52.6692 115.079 52.4959 115.087 52.3186C115.3 48.7339 115.268 45.1534 114.947 41.5771C114.694 38.7349 114.228 35.9299 113.533 33.1662C113.477 32.9352 113.421 32.7042 113.38 32.5309C113.73 31.5616 114.099 30.6623 114.38 29.7342C115.188 27.0983 115.485 24.3841 115.529 21.6327C115.565 19.2361 115.388 16.856 115.059 14.4882C115.039 14.3438 115.019 14.1995 115.007 14.051C115.007 14.018 115.027 13.9808 115.055 13.8818H115.059ZM127.468 40.0714C128.448 40.4056 129.673 40.4633 130.564 40.3891C132.432 40.2241 133.962 39.4073 135.074 37.8439C136.271 36.1609 136.881 34.2387 136.938 32.1845C136.998 30.0395 136.363 28.0512 135.183 26.2692C134.279 24.908 133.058 23.9963 131.472 23.6457C130.243 23.3735 129.014 23.4271 127.793 23.7076C127.677 23.7323 127.568 23.7942 127.464 23.8313V40.0756L127.468 40.0714Z"
    fill="none" />
  <path
    d="M96.7826 14.9262C99.2564 14.2703 101.401 13.0947 103.003 10.9374C104.606 13.0906 106.686 14.4147 109.16 15.1283C109.172 15.2851 109.192 15.4088 109.184 15.5326C108.971 18.7047 108.75 21.8768 108.533 25.049C108.461 26.0761 108.393 27.1032 108.32 28.1303C108.208 29.7267 108.047 31.3189 107.987 32.9153C107.915 34.7881 107.891 36.6649 107.919 38.5377C107.983 42.4358 108.288 46.3215 108.67 50.199C108.73 50.8013 108.786 51.3994 108.846 52.0677C108.617 52.0883 108.429 52.113 108.24 52.1213C106.324 52.1914 104.409 52.2863 102.513 52.608C99.2524 53.1567 96.1361 54.1384 93.2808 55.8957C93.2045 55.941 93.1242 55.9782 93.0037 56.0442C88.0883 53.334 82.7351 52.8762 77.2293 53.0907C77.2293 52.8143 77.2173 52.5957 77.2293 52.3853C77.386 49.9474 77.5747 47.5095 77.7032 45.0676C77.9723 39.8701 78.0365 34.6684 77.6229 29.4709C77.4181 26.9258 77.2896 24.3725 77.133 21.8232C76.9924 19.5503 76.8599 17.2733 76.7274 14.9963C76.7113 14.7447 76.7274 14.489 76.7274 14.1713C79.2092 13.5732 81.3014 12.3151 82.8957 10.1206C84.5021 12.3605 86.502 13.9816 89.1284 14.7447C89.1284 14.9922 89.1324 15.2108 89.1284 15.4253C89.0079 20.8827 88.9115 26.3442 88.7469 31.8016C88.6786 34.0992 88.8914 36.3556 89.4858 38.5624C89.6705 39.2431 89.9717 39.9113 90.3251 40.5218C90.8592 41.4499 91.6745 41.9161 92.7668 41.7593C93.0117 41.7263 93.2688 41.7511 93.5177 41.7676C94.2928 41.8129 94.9153 41.4994 95.4092 40.9096C95.871 40.3568 96.1762 39.7133 96.3971 39.0286C96.8228 37.7127 96.9955 36.3473 97.132 34.9696C97.2967 33.2824 97.2565 31.5912 97.2043 29.8999C97.0959 26.4803 97.0075 23.0648 96.9071 19.6452C96.867 18.3046 96.8268 16.964 96.7867 15.6192C96.7786 15.4006 96.7867 15.182 96.7867 14.9262H96.7826Z"
    fill="none" />
  <path
    d="M155.979 13.7328C161.067 11.6497 160.769 11.3568 162.753 9.24072C164.581 11.2785 166.946 12.285 169.556 12.8501C169.556 13.2543 169.572 13.638 169.556 14.0175C169.424 16.4388 169.275 18.8602 169.151 21.2857C168.878 26.7389 168.725 32.1963 168.773 37.6578C168.793 39.9926 168.833 42.3273 168.93 44.6579C169.05 47.5949 169.203 50.5319 169.556 53.4524C169.576 53.6298 169.572 53.8154 169.584 54.0629C167.034 54.3764 164.765 55.3417 162.745 57.0659C161.822 56.1089 160.826 55.255 159.661 54.6322C158.509 54.0175 157.292 53.6092 156.015 53.3328C156.015 53.1678 156.003 53.044 156.015 52.9203C156.958 44.6455 157.043 36.3419 156.729 28.0301C156.557 23.439 156.236 18.8561 155.983 14.265C155.974 14.1 155.983 13.935 155.983 13.737L155.979 13.7328Z"
    fill="none" />
  <path
    d="M92.8199 62.4907H96.8318C98.0767 66.4713 99.3257 70.4561 100.575 74.4449H100.719C102.02 70.4685 103.317 66.492 104.623 62.5031H108.221C109.486 66.525 110.743 70.5345 112.004 74.5481H112.132C112.811 72.5598 113.421 70.5427 114.072 68.5421C114.723 66.5415 115.353 64.5326 116 62.5113H119.698C117.879 68.274 116.048 73.9994 114.217 79.7497H110.032C108.823 75.9258 107.606 72.0896 106.394 68.2533C106.349 68.2533 106.305 68.2533 106.261 68.2492C104.98 72.0731 103.767 75.9176 102.486 79.7579H98.3337C96.5025 74.0324 94.6713 68.2987 92.8159 62.4948L92.8199 62.4907Z"
    fill="none" />
  <path
    d="M144.681 62.4948C144.801 62.4865 144.889 62.4783 144.978 62.4783C147.375 62.4783 149.777 62.4659 152.174 62.4865C153.307 62.4948 154.419 62.6845 155.479 63.1177C157.941 64.12 159.298 66.2568 159.19 68.9751C159.081 71.7636 157.604 73.7395 154.981 74.581C154.017 74.8904 153.026 75.0265 152.018 75.0306C151.014 75.0348 150.014 75.0306 149.01 75.0306C148.853 75.0306 148.696 75.043 148.488 75.0554V79.7331H144.705C144.588 79.3701 144.552 63.2579 144.677 62.4948H144.681ZM148.52 65.77V71.7719C148.644 71.7884 148.729 71.809 148.817 71.809C149.801 71.809 150.785 71.842 151.765 71.7925C152.347 71.7636 152.937 71.6564 153.499 71.4914C154.134 71.3058 154.632 70.8768 154.949 70.2621C155.889 68.4265 154.973 66.3475 153.009 65.8732C152.785 65.8195 152.552 65.77 152.323 65.7659C151.142 65.7453 149.965 65.737 148.785 65.7288C148.7 65.7288 148.612 65.7577 148.52 65.7783V65.77Z"
    fill="none" />
  <path
    d="M125.489 79.7619H121.65C121.65 79.7619 121.618 79.7331 121.614 79.7166C121.606 79.7001 121.598 79.6794 121.598 79.6629C121.61 79.6093 121.622 79.5557 121.642 79.5062C124.096 73.8508 126.545 68.1913 129.011 62.5112H132.87C135.352 68.2202 137.846 73.9498 140.364 79.7413H136.308C135.818 78.5409 135.324 77.3282 134.826 76.1031H126.991C126.497 77.3034 125.995 78.5327 125.493 79.7619H125.489ZM130.991 66.5702L130.85 66.5578C129.991 68.6987 129.127 70.8437 128.264 72.997C128.911 73.1166 133.143 73.0918 133.565 72.9681C132.706 70.8313 131.85 68.7028 130.995 66.5702H130.991Z"
    fill="none" />
  <path
    d="M75.1694 78.1082C75.6112 77.0975 76.0369 76.1323 76.4505 75.1959C77.1573 75.5548 77.7958 75.9302 78.4705 76.2024C80.0447 76.8418 81.6792 77.114 83.3618 76.8088C83.8116 76.7263 84.2775 76.5737 84.663 76.3344C85.6429 75.728 85.6549 74.4658 84.6831 73.8512C84.1891 73.5418 83.6148 73.3314 83.0526 73.1664C81.9362 72.8364 80.7957 72.593 79.6793 72.2713C79.1331 72.1145 78.599 71.8835 78.0769 71.6443C74.559 70.0273 74.9686 65.4939 77.2858 63.7078C78.1492 63.0437 79.109 62.6147 80.1572 62.4043C82.5667 61.9217 84.932 62.1032 87.2291 63.0189C87.6588 63.1881 88.0604 63.4232 88.5182 63.6501C88.1126 64.6896 87.7271 65.6672 87.3295 66.6819C87.1046 66.5706 86.9279 66.4922 86.7553 66.4056C85.3376 65.6754 83.8478 65.2753 82.2534 65.3372C81.6069 65.3619 80.9724 65.4609 80.382 65.7621C79.8921 66.0096 79.5387 66.3808 79.3941 66.9336C79.2335 67.5523 79.4022 68.1298 79.9403 68.4804C80.3419 68.7444 80.7917 68.963 81.2495 69.095C82.3659 69.4209 83.5104 69.6602 84.6268 69.986C85.3617 70.2047 86.0967 70.4604 86.7874 70.7945C90.0483 72.3827 89.6748 76.322 87.9319 78.0793C86.948 79.0693 85.7513 79.6055 84.4301 79.8737C81.8679 80.3893 79.3741 80.0758 76.9445 79.127C76.326 78.8837 75.7397 78.5743 75.1694 78.1123V78.1082Z"
    fill="none" />
</svg>
  