<svg width="36" height="21" viewBox="0 0 36 21" fill="none" xmlns="http://www.w3.org/2000/svg">
  <path
    d="M10.324 0.423752C4.87234 0.423752 0.452881 4.87373 0.452881 10.3625C0.452881 15.8514 4.87267 20.3013 10.324 20.3013C15.7753 20.3013 20.1951 15.8517 20.1951 10.3625C20.1951 4.8734 15.7758 0.423752 10.324 0.423752ZM26.0876 1.00595C23.3617 1.00595 21.1524 5.19606 21.1524 10.3627C21.1524 15.5294 23.3621 19.7197 26.088 19.7197C28.8139 19.7197 31.0236 15.5296 31.0236 10.3627H31.0232C31.0232 5.19458 28.8138 1.00595 26.0878 1.00595H26.0876ZM33.7169 1.98054C32.7584 1.98054 31.9814 5.73363 31.9814 10.3627C31.9814 14.9918 32.7579 18.7449 33.7169 18.7449C34.6758 18.7449 35.4529 14.9908 35.4529 10.3625C35.4529 5.73331 34.6755 1.98054 33.717 1.98054H33.7169Z"
    fill="none" />
</svg>
  