<svg width="33" height="33" viewBox="0 0 33 33" fill="none" xmlns="http://www.w3.org/2000/svg">
  <rect x="0.5" y="0.824097" width="32" height="32" rx="8" fill="white" />
  <path
    d="M16.5006 2.82294C8.77026 2.82294 2.49115 9.1007 2.50099 16.8239C2.50293 18.3691 2.74933 19.8554 3.21178 21.2457H7.40079V9.46743L16.5006 18.5671L25.6 9.46743V21.246H29.7899C30.2531 19.8557 30.4982 18.3694 30.501 16.8241C30.5142 9.09287 24.2318 2.8248 16.5006 2.8248V2.82294Z"
    fill="#F26822" />
  <path
    d="M14.4086 20.6589L10.4373 16.6875V24.0991H7.40115L4.53613 24.0996C6.99364 28.1314 11.4349 30.8284 16.5013 30.8284C21.5676 30.8284 26.0092 28.1308 28.4671 24.099H22.5644V16.6875L18.5929 20.6589L16.5008 22.7509L14.4087 20.6589H14.4086Z"
    fill="#4D4D4D" />
</svg>
  