<svg width="33" height="33" viewBox="0 0 33 33" fill="none" xmlns="http://www.w3.org/2000/svg">
  <rect x="0.5" y="0.824097" width="32" height="32" rx="8" fill="white" />
  <path
    d="M22.9742 10.5477C21.5807 10.5477 20.0548 11.3071 18.4452 12.8052C17.6857 13.5089 17.0169 14.2754 16.5291 14.8816C16.5291 14.8816 17.3095 15.7804 18.1665 16.7489C18.6334 16.1636 19.2953 15.3693 20.0687 14.6516C21.4971 13.3138 22.4307 13.0421 22.9672 13.0421C24.9739 13.0421 26.6044 14.7283 26.6044 16.8116C26.6044 18.874 24.9739 20.5602 22.9672 20.5811C22.8697 20.5811 22.7582 20.5672 22.6189 20.5393C23.2041 20.811 23.8382 21.0061 24.4305 21.0061C28.1094 21.0061 28.834 18.4629 28.8758 18.2818C28.9803 17.8149 29.0431 17.3272 29.0431 16.8255C29.0361 13.3626 26.3187 10.5477 22.9742 10.5477Z"
    fill="url(#paint0_linear_643_351)" />
  <path
    d="M10.1188 23.0756C11.5124 23.0756 13.0383 22.3161 14.6478 20.818C15.4073 20.1143 16.0762 19.3478 16.5639 18.7417C16.5639 18.7417 15.7835 17.8428 14.9265 16.8743C14.4597 17.4596 13.7978 18.2539 13.0243 18.9716C11.596 20.2955 10.6553 20.5811 10.1258 20.5811C8.11911 20.5811 6.48867 18.895 6.48867 16.8116C6.48867 14.7492 8.11911 13.063 10.1258 13.0421C10.2233 13.0421 10.3348 13.056 10.4742 13.0839C9.8889 12.8122 9.25484 12.6171 8.66259 12.6171C4.98366 12.6101 4.25902 15.1533 4.21721 15.3414C4.1127 15.8083 4.04999 16.296 4.04999 16.7977C4.04999 20.2606 6.76738 23.0756 10.1188 23.0756Z"
    fill="url(#paint1_linear_643_351)" />
  <path fill-rule="evenodd" clip-rule="evenodd"
    d="M12.9199 14.7074C12.5158 14.3172 10.5509 12.7216 8.6696 12.6658C5.31118 12.5822 4.32874 15.0209 4.23816 15.3345C4.88615 12.6031 7.28303 10.5616 10.1258 10.5477C12.4461 10.5477 14.7942 12.8261 16.5291 14.8816L16.5361 14.8746C16.5361 14.8746 17.3165 15.7734 18.1735 16.7419C18.1735 16.7419 19.149 17.8916 20.1802 18.9019C20.5843 19.2921 22.5422 20.8668 24.4235 20.9225C27.8725 21.0201 28.8271 18.442 28.8758 18.2469C28.2418 20.9992 25.8379 23.0477 22.9812 23.0616C20.661 23.0616 18.3129 20.7832 16.5709 18.7277C16.5709 18.7347 16.564 18.7347 16.564 18.7416C16.564 18.7416 15.7836 17.8428 14.9266 16.8743C14.9335 16.8743 13.9581 15.7177 12.9199 14.7074Z"
    fill="#29ABE2" />
  <defs>
    <linearGradient id="paint0_linear_643_351" x1="19.7123" y1="11.5403" x2="28.3021" y2="20.2008"
      gradientUnits="userSpaceOnUse">
      <stop offset="0.21" stop-color="#F15A24" />
      <stop offset="0.6841" stop-color="#FBB03B" />
    </linearGradient>
    <linearGradient id="paint1_linear_643_351" x1="13.3829" y1="22.0843" x2="4.79311" y2="13.4238"
      gradientUnits="userSpaceOnUse">
      <stop offset="0.21" stop-color="#ED1E79" />
      <stop offset="0.8929" stop-color="#522785" />
    </linearGradient>
  </defs>
</svg>
  