<svg width="100%" height="100%" viewBox="0 0 33 33" fill="none" xmlns="http://www.w3.org/2000/svg">
  <rect x="0.5" y="0.824097" width="97%" height="97%" rx="8" fill="#FF060A" />
  <path
    d="M27.5137 14.1022C26.459 13.1284 25 11.6413 23.8117 10.5866L23.7414 10.5374C23.6244 10.4434 23.4925 10.3698 23.3512 10.3194C20.4859 9.78503 7.15117 7.29245 6.89102 7.32409C6.81812 7.3343 6.74844 7.36073 6.68711 7.40143L6.62031 7.45417C6.53806 7.5377 6.47559 7.63861 6.4375 7.74948L6.41992 7.79518V8.04479V8.08347C7.92109 12.2635 13.8484 25.9569 15.0156 29.1702C15.0859 29.3882 15.2195 29.803 15.4691 29.8241H15.5254C15.659 29.8241 16.2285 29.0717 16.2285 29.0717C16.2285 29.0717 26.4098 16.7249 27.4398 15.41C27.5732 15.2481 27.6909 15.0739 27.7914 14.8897C27.8171 14.7456 27.805 14.5974 27.7563 14.4594C27.7076 14.3214 27.624 14.1983 27.5137 14.1022ZM18.8406 15.5401L23.1859 11.9366L25.7348 14.285L18.8406 15.5401ZM17.1531 15.3046L9.67188 9.17331L21.7762 11.4057L17.1531 15.3046ZM17.8281 16.9112L25.4852 15.6772L16.7312 26.2241L17.8281 16.9112ZM8.65586 9.78503L16.5273 16.4647L15.3883 26.2311L8.65586 9.78503Z"
    fill="white" />
</svg>
  