<svg width="100%" height="100%" viewBox="0 0 33 33" fill="none" xmlns="http://www.w3.org/2000/svg">
  <rect x="0.5" y="0.824097" width="97%" height="97%" rx="8" fill="#FF0420" />
  <path fill-rule="evenodd" clip-rule="evenodd"
    d="M9.1524 20.4235C9.7604 20.8715 10.5412 21.0955 11.4948 21.0955C12.6468 21.0955 13.5684 20.8331 14.2532 20.2955C14.9444 19.7515 15.4244 18.9259 15.706 17.8315C15.8788 17.1595 16.0196 16.4619 16.1412 15.7515C16.1796 15.4955 16.1988 15.2843 16.1988 15.1179C16.1988 14.5611 16.058 14.0811 15.7764 13.6779C15.4948 13.2683 15.1108 12.9611 14.6244 12.7627C14.138 12.5515 13.5812 12.4491 12.9668 12.4491C10.7012 12.4491 9.2932 13.5499 8.7492 15.7515C8.5572 16.5643 8.41 17.2555 8.3076 17.8315C8.2692 18.0875 8.25 18.2987 8.25 18.4779C8.25 19.3163 8.5508 19.9691 9.1524 20.4235ZM12.8068 18.9707C12.4932 19.2331 12.1156 19.3675 11.6676 19.3675C10.8996 19.3675 10.5092 19.0027 10.5156 18.2603C10.5156 18.0811 10.5348 17.9147 10.5668 17.7547C10.714 16.9739 10.8548 16.3211 11.002 15.7835C11.1364 15.2331 11.3604 14.8299 11.674 14.5675C11.994 14.3051 12.378 14.1707 12.826 14.1707C13.5876 14.1707 13.9652 14.5355 13.9652 15.2651C13.9652 15.4443 13.946 15.6171 13.914 15.7835C13.818 16.3467 13.6772 16.9995 13.4916 17.7547C13.3572 18.3051 13.1268 18.7083 12.8068 18.9707Z"
    fill="white" />
  <path fill-rule="evenodd" clip-rule="evenodd"
    d="M16.5508 20.8971C16.602 20.9547 16.666 20.9803 16.7556 20.9803H18.3876C18.4708 20.9803 18.5476 20.9547 18.618 20.8971C18.6948 20.8395 18.7332 20.7691 18.7524 20.6795L19.3028 18.0491H20.922C21.9716 18.0491 22.7972 17.8315 23.3988 17.3899C24.0132 16.9483 24.4164 16.2699 24.6148 15.3483C24.6596 15.1307 24.6852 14.9195 24.6852 14.7211C24.6852 14.0235 24.41 13.4923 23.866 13.1211C23.3284 12.7563 22.618 12.5707 21.7284 12.5707H18.5348C18.4516 12.5707 18.3748 12.5963 18.3044 12.6539C18.2276 12.7115 18.1828 12.7819 18.17 12.8715L16.5124 20.6795C16.4996 20.7627 16.5124 20.8331 16.5508 20.8971ZM21.882 16.1163C21.6324 16.3019 21.3444 16.3915 21.0052 16.3915H19.6292L20.0836 14.2411H21.5236C21.85 14.2411 22.0868 14.3051 22.2212 14.4331C22.3556 14.5547 22.426 14.7339 22.426 14.9643C22.426 15.0667 22.4132 15.1883 22.3876 15.3227C22.3044 15.6683 22.138 15.9307 21.882 16.1163Z"
    fill="white" />
</svg>
  