<svg width="33" height="33" viewBox="0 0 33 33" fill="none" xmlns="http://www.w3.org/2000/svg">
  <rect x="0.5" y="0.824097" width="32" height="32" rx="8" fill="#F7931A" />
  <path
    d="M23.5105 14.5273C23.8289 12.3978 22.2077 11.2532 19.9908 10.4895L20.71 7.60496L18.954 7.16743L18.2539 9.97606C17.7923 9.86093 17.3182 9.75244 16.8471 9.6449L17.5522 6.81772L15.7974 6.38019L15.0778 9.26383C14.6958 9.17686 14.3206 9.0909 13.9566 9.00032L13.9586 8.99125L11.5372 8.38657L11.0701 10.262C11.0701 10.262 12.3728 10.5606 12.3454 10.579C13.0564 10.7565 13.185 11.2272 13.1637 11.6003L12.3444 14.8865C12.3934 14.8989 12.4569 14.9169 12.527 14.9451C12.4684 14.9305 12.4061 14.9147 12.3414 14.8992L11.1931 19.5027C11.1062 19.7187 10.8856 20.0429 10.3885 19.9198C10.4061 19.9453 9.11227 19.6013 9.11227 19.6013L8.24048 21.6113L10.5255 22.1809C10.9506 22.2875 11.3672 22.3991 11.7775 22.504L11.0508 25.4216L12.8047 25.8592L13.5243 22.9725C14.0035 23.1025 14.4685 23.2225 14.9237 23.3356L14.2065 26.2087L15.9625 26.6462L16.6891 23.7341C19.6833 24.3007 21.9347 24.0723 22.8824 21.364C23.646 19.1835 22.8444 17.9258 21.2691 17.1056C22.4165 16.841 23.2807 16.0864 23.5111 14.5276L23.5105 14.5272L23.5105 14.5273ZM19.4986 20.153C18.9559 22.3335 15.2846 21.1548 14.0943 20.8593L15.0586 16.9939C16.2488 17.291 20.0657 17.879 19.4986 20.153H19.4986ZM20.0416 14.4957C19.5466 16.4791 16.4909 15.4715 15.4997 15.2244L16.3739 11.7187C17.3652 11.9658 20.5573 12.4269 20.0418 14.4957H20.0416Z"
    fill="white" />
</svg>
  