<svg width="100%" height="100%" viewBox="0 0 33 33" fill="none" xmlns="http://www.w3.org/2000/svg">
  <rect x="0.5" y="0.824097" width="97%" height="97%" rx="8" fill="#0382D1" />
  <path
    d="M11.892 7.8385H19.9304C26.996 7.8385 28.2504 11.7041 27.252 17.1441C26.5736 20.7921 24.9096 23.5825 22.068 24.8881C20.788 25.4897 19.5976 25.8097 16.756 25.8097H8.73044L9.39604 22.0721H16.4616C20.6984 22.0721 21.8376 20.2161 22.388 18.6161C22.6056 18.0017 23.0664 16.1457 23.092 15.0321C23.1176 12.8817 22.068 11.5761 18.484 11.5761H11.2264L11.892 7.8385Z"
    fill="white" />
  <path
    d="M5.81782 17.119C6.01009 16.2849 6.31953 14.9425 8.41043 14.9425H16.6408C16.6408 14.9425 16.5512 15.3905 16.2952 16.4785C16.2933 16.4868 16.2914 16.4952 16.2894 16.5036C16.0972 17.3377 15.7877 18.6801 13.6968 18.6801H5.46643C5.46643 18.6801 5.55603 18.2321 5.81203 17.1441C5.81395 17.1358 5.81588 17.1274 5.81782 17.119Z"
    fill="white" />
</svg>
  