<svg width="33" height="33" viewBox="0 0 33 33" fill="none" xmlns="http://www.w3.org/2000/svg">
  <rect x="0.5" y="0.824097" width="32" height="32" rx="8" fill="#F0B90B" />
  <path
    d="M9.34359 16.8863L9.35513 21.1171L12.95 23.2324V25.7094L7.25128 22.3671V15.6491L9.34359 16.8863ZM9.34359 12.6555V15.1209L7.25 13.8824V11.4171L9.34359 10.1786L11.4474 11.4171L9.34359 12.6555ZM14.4513 11.4171L16.5449 10.1786L18.6487 11.4171L16.5449 12.6555L14.4513 11.4171Z"
    fill="white" />
  <path
    d="M10.8564 20.2401V17.7632L12.95 19.0017V21.4671L10.8564 20.2401ZM14.4513 24.1196L16.5449 25.3581L18.6487 24.1196V26.585L16.5449 27.8235L14.4513 26.585V24.1196ZM21.6513 11.4171L23.7449 10.1786L25.8487 11.4171V13.8824L23.7449 15.1209V12.6555L21.6513 11.4171ZM23.7449 21.1171L23.7564 16.8863L25.85 15.6478V22.3658L20.1513 25.7081V23.2312L23.7449 21.1171Z"
    fill="white" />
  <path d="M22.2436 20.2401L20.15 21.467V19.0017L22.2436 17.7632V20.2401Z" fill="white" />
  <path
    d="M22.2436 13.5324L22.2551 16.0094L18.65 18.1247V22.3658L16.5564 23.5927L14.4628 22.3658V18.1247L10.8577 16.0094V13.5324L12.9603 12.294L16.5436 14.4196L20.1487 12.294L22.2526 13.5324H22.2436ZM10.8564 9.30294L16.5449 5.9491L22.2436 9.30294L20.15 10.5414L16.5449 8.41576L12.95 10.5414L10.8564 9.30294Z"
    fill="white" />
</svg>
  