<svg width="100%" height="100%" viewBox="0 0 33 33" fill="none" xmlns="http://www.w3.org/2000/svg">
  <rect x="0.5" y="0.824097" width="97%" height="97%" rx="8" fill="#1969FF" />
  <path
    d="M15.5298 5.91223C16.0688 5.62805 16.889 5.62805 17.4281 5.91223L22.9286 8.81208C23.2533 8.98322 23.4316 9.23826 23.4635 9.50154H23.4688V24.0775C23.4616 24.3647 23.2816 24.65 22.9286 24.8361L17.4281 27.736C16.889 28.0201 16.0688 28.0201 15.5298 27.736L10.0293 24.8361C9.67773 24.6508 9.50903 24.3635 9.50068 24.0775C9.49982 24.0482 9.49974 24.024 9.50065 24.0041L9.50068 9.59968C9.49986 9.57942 9.49985 9.55924 9.50066 9.53915L9.50068 9.50154H9.50313C9.52756 9.23535 9.69777 8.98682 10.0293 8.81208L15.5298 5.91223ZM22.5938 17.6053L17.4264 20.3385C16.8881 20.6232 16.0691 20.6232 15.5308 20.3385L10.375 17.6114V24.0325L15.5308 26.7451C15.8355 26.9081 16.1523 27.0669 16.4608 27.0739L16.4786 27.0741C16.7865 27.0751 17.0854 26.9185 17.3885 26.7703L22.5938 24.0091V17.6053ZM8.63824 23.7616C8.63824 24.3204 8.70261 24.6876 8.83041 24.9464C8.93634 25.1608 9.09527 25.3247 9.38548 25.5241L9.40204 25.5354C9.46573 25.5788 9.53589 25.6242 9.62129 25.6775L9.722 25.7397L10.0312 25.928L9.5877 26.6678L9.24156 26.4569L9.18338 26.4209C9.0833 26.3585 9.00035 26.305 8.92298 26.2524C8.09589 25.6898 7.78743 25.0764 7.78134 23.8005L7.78125 23.7616H8.63824ZM16.0625 13.7303C16.0225 13.7441 15.985 13.7601 15.9508 13.7782L10.4586 16.6873C10.4529 16.6904 10.4474 16.6934 10.4422 16.6964L10.4375 16.6991L10.4461 16.7041L10.4586 16.7108L15.9508 19.62C15.985 19.6381 16.0225 19.6541 16.0625 19.6678V13.7303ZM16.9375 13.7303V19.6678C16.9776 19.6541 17.0151 19.6381 17.0493 19.62L22.5413 16.7108C22.5471 16.7078 22.5526 16.7048 22.5578 16.7018L22.5625 16.6991L22.5539 16.6941L22.5413 16.6873L17.0493 13.7782C17.0151 13.7601 16.9776 13.7441 16.9375 13.7303ZM22.5938 10.5428L17.6562 13.1366L22.5938 15.7303V10.5428ZM10.375 10.5428V15.7303L15.3125 13.1366L10.375 10.5428ZM17.0445 6.68744C16.7586 6.53631 16.2414 6.53631 15.9556 6.68744L10.4587 9.59359C10.4529 9.59665 10.4474 9.59965 10.4422 9.60266L10.4375 9.60534L10.4461 9.61028L10.4587 9.6171L15.9556 12.5232C16.2414 12.6744 16.7586 12.6744 17.0445 12.5232L22.5413 9.6171C22.5471 9.61404 22.5526 9.61103 22.5578 9.60806L22.5625 9.60534L22.5539 9.6004L22.5413 9.59359L17.0445 6.68744ZM23.4123 6.98035L23.7584 7.19126L23.8166 7.2273C23.9167 7.28963 23.9996 7.34318 24.077 7.39581C24.9041 7.95839 25.2126 8.57176 25.2187 9.84772L25.2188 9.8866H24.3618C24.3618 9.3278 24.2974 8.96056 24.1696 8.70181C24.0637 8.48737 23.9047 8.32349 23.6145 8.12407L23.598 8.11275C23.5343 8.06943 23.4641 8.02404 23.3787 7.97071L23.278 7.90847L22.9688 7.72018L23.4123 6.98035Z"
    fill="white" />
</svg>
  