<svg width="33" height="33" viewBox="0 0 33 33" fill="none" xmlns="http://www.w3.org/2000/svg">
  <rect x="0.5" y="0.824097" width="32" height="32" rx="8" fill="white" />
  <path
    d="M16.4873 30.8118C24.2193 30.8118 30.4873 24.5437 30.4873 16.8116C30.4873 9.07951 24.2193 2.8114 16.4873 2.8114C8.75532 2.8114 2.4873 9.07951 2.4873 16.8116C2.4873 24.5437 8.75532 30.8118 16.4873 30.8118Z"
    fill="#7A6A2A" />
  <path
    d="M16.4875 30.5168C24.0566 30.5168 30.1925 24.3808 30.1925 16.8116C30.1925 9.24237 24.0566 3.10632 16.4875 3.10632C8.91842 3.10632 2.78247 9.24237 2.78247 16.8116C2.78247 24.3808 8.91842 30.5168 16.4875 30.5168Z"
    fill="#BA9F33" />
  <path fill-rule="evenodd" clip-rule="evenodd"
    d="M8.34816 15.2669C8.26624 15.1921 8.17969 15.1171 8.10009 15.0423C8.02048 14.9675 7.93871 14.8925 7.85679 14.8177L7.61335 14.5862C7.57354 14.5464 7.53143 14.5114 7.49162 14.4715C7.45182 14.4364 7.40508 14.3966 7.36527 14.3615C7.04222 14.0549 6.71732 13.7484 6.39874 13.4417C6.72873 13.7436 7.05179 14.0433 7.38178 14.3497L7.49641 14.4645C7.53621 14.5042 7.57833 14.5393 7.61813 14.5791L7.86142 14.8038C7.94334 14.8786 8.02295 14.9536 8.10487 15.0352C8.18679 15.1168 8.26639 15.1919 8.34831 15.2666L8.34816 15.2669ZM4.0607 15.2206C4.0607 15.2206 5.23551 15.3422 5.80895 15.4241C6.34012 15.4991 8.00181 15.7541 8.00181 15.7541L4.0607 15.2206ZM4.0607 15.2206C4.3907 15.2487 4.72069 15.2837 5.05068 15.3189C5.21915 15.3353 5.38068 15.3539 5.5422 15.3703L5.79012 15.3985C5.87204 15.4101 5.95165 15.4218 6.03357 15.4335L7.01661 15.5903L7.50798 15.6722C7.6695 15.7003 7.83103 15.7308 7.9995 15.7589C7.83797 15.7425 7.6695 15.7191 7.50798 15.6956L7.01661 15.6254L6.03357 15.4804C5.95165 15.4687 5.87204 15.4522 5.79012 15.4406L5.54205 15.4121C5.38052 15.3957 5.21206 15.3723 5.05053 15.3535C4.72054 15.3138 4.39054 15.2715 4.06055 15.2202L4.0607 15.2206ZM7.88487 16.0602C7.88487 16.0602 6.63046 16.3786 6.20682 16.5004C5.79028 16.615 4.52877 16.9988 4.52877 16.9988L7.88472 16.0604L7.88487 16.0602Z"
    fill="#CFB66C" />
  <path fill-rule="evenodd" clip-rule="evenodd"
    d="M7.88462 16.0602C7.60615 16.1421 7.32923 16.2217 7.04675 16.2967L6.20889 16.5213C5.93042 16.6032 5.65349 16.6828 5.3758 16.7648L4.95926 16.8794C4.82118 16.9192 4.68079 16.9542 4.53809 16.9942C4.67601 16.9479 4.81655 16.9005 4.95463 16.8607L5.37117 16.7274C5.64964 16.6407 5.92656 16.5588 6.20426 16.4723C6.48735 16.4021 6.76597 16.3271 7.04907 16.2592C7.31812 16.1913 7.60137 16.1236 7.88462 16.0603V16.0602ZM4.70424 17.7711C4.84216 17.7196 6.43366 16.9778 6.80346 16.8046C6.98859 16.7179 7.5267 16.5269 7.5267 16.5269L4.70424 17.7711Z"
    fill="#CFB66C" />
  <path fill-rule="evenodd" clip-rule="evenodd"
    d="M4.70426 17.7711C4.82582 17.7249 4.94061 17.6682 5.05755 17.6144L5.40389 17.4529L6.09906 17.1182C6.33047 17.0082 6.5554 16.8868 6.79407 16.7835C6.91579 16.7321 7.03751 16.69 7.15908 16.6502L7.34421 16.5917C7.40731 16.5753 7.46593 16.5565 7.52934 16.5402C7.29793 16.6502 7.05433 16.7438 6.82261 16.8513C6.59119 16.9661 6.35454 17.0598 6.11572 17.1627L5.40898 17.4738C5.17171 17.57 4.9403 17.6729 4.7041 17.7711H4.70426ZM4.85853 18.4191C4.85853 18.4191 6.30008 17.5743 6.79623 17.3028C7.05602 17.1577 7.89621 16.741 7.89621 16.741L4.85853 18.4191Z"
    fill="#CFB66C" />
  <path fill-rule="evenodd" clip-rule="evenodd"
    d="M4.85864 18.4195C5.10193 18.2697 5.35001 18.1176 5.59808 17.9632L5.96834 17.7384C6.09469 17.6636 6.21642 17.5934 6.34524 17.5185C6.47159 17.4436 6.59331 17.3687 6.72198 17.2985C6.78323 17.2607 6.84741 17.2279 6.9139 17.2003L7.11044 17.102C7.37024 16.9756 7.63004 16.8468 7.90388 16.7368C7.6558 16.8937 7.40063 17.0272 7.14562 17.1651C7.01927 17.2353 6.89045 17.2985 6.76409 17.3687C6.63774 17.4389 6.51602 17.5139 6.3872 17.5818C6.26085 17.6566 6.13913 17.7268 6.01046 17.7947L5.62894 18.003L4.85895 18.4195H4.85864ZM7.88459 16.9263C7.88459 16.9263 6.98826 17.6143 6.69806 17.8343C6.40787 18.0543 5.55365 18.6722 5.55365 18.6722L7.88459 16.9263Z"
    fill="#CFB66C" />
  <path fill-rule="evenodd" clip-rule="evenodd"
    d="M13.0282 22.4753L12.5696 21.607L12.8363 20.521L14.739 19.7862L13.9292 18.1246L14.3294 16.4466L15.0807 14.9439L17.4024 14.5789L19.1084 12.9523L22.7922 13.2308L23.5152 17.1697L22.1228 22.1289L21.3295 24.6964L18.1138 24.8181L16.6207 23.7837L14.8724 23.0533L13.0282 22.4753Z"
    fill="#E2CC85" />
  <path fill-rule="evenodd" clip-rule="evenodd"
    d="M18.6688 22.4472C18.6688 22.4472 18.224 22.6508 17.4655 22.6039C17.2459 22.3091 15.7084 22.171 15.7084 22.171C15.7084 22.171 15.5165 22.1126 15.1771 22.253C14.8355 22.3918 14.5125 22.3747 14.2106 22.4495C13.9087 22.5243 13.6089 22.1312 13.3775 22.0493C13.1461 21.9628 12.8392 21.7545 12.8392 21.7545L12.1913 21.6912L10.8901 21.1412L8.82298 19.0818L8.26126 19.9612L8.08801 21.0494L8.71298 22.339L10.3957 23.8719L13.6768 24.705L15.6216 24.1321L18.0579 23.1023L18.6688 22.447V22.4472Z"
    fill="#F1D789" />
  <path fill-rule="evenodd" clip-rule="evenodd"
    d="M7.01137 15.1687L7.42791 13.9073L7.92422 13.0927L9.52251 12.9593L9.04271 14.3589L7.70654 16.7368L8.26115 18.8595L7.27827 19.3509L6.9762 18.8876L6.73291 17.825L6.71655 16.6314L7.01137 15.1687Z"
    fill="#F4ECB4" />
  <path fill-rule="evenodd" clip-rule="evenodd"
    d="M8.80409 22.3606L8.49755 21.9324C8.49755 21.9324 8.41563 21.7287 8.46253 21.5508C8.50881 21.3706 8.50218 21.3589 8.47888 21.291C8.45558 21.2231 8.25888 20.9891 8.27061 20.7878C8.28218 20.5841 8.25426 20.5162 8.4039 20.3549C8.56065 20.1981 8.5139 19.9266 8.5139 19.9266L8.71754 20.053L8.76383 19.9828C8.76383 19.9828 8.83865 20.0412 8.83865 20.1326C8.855 20.0062 8.78712 19.421 8.94155 19.2877C9.09598 19.1544 9.36982 19.9126 9.36982 19.9126L9.20135 18.8126L8.7683 17.6846L7.99831 16.6548L7.95203 15.5197V15.4214C7.95203 15.4214 7.59859 15.9644 7.50031 16.3933C7.43012 16.6882 7.59859 17.0462 7.56357 17.4699C7.53533 17.8912 7.50031 17.8584 7.60321 18.0253C7.70612 18.1922 7.95666 18.5355 7.85839 18.7836C7.77184 18.9966 7.47686 18.8468 7.47686 18.8468C7.47686 18.8468 7.41839 19.0199 7.33879 19.0832C7.31071 18.9803 7.28032 18.9147 7.22416 18.8517C7.21938 18.8916 7.20781 18.9454 7.20781 18.9454C7.20781 18.9454 7.15628 18.7839 7.10475 18.5802C7.03471 18.3088 6.95973 17.9508 6.89185 17.7588C6.86377 17.8688 6.79358 18.2035 6.79358 18.2035L6.83338 18.7185L7.0253 19.4252L7.21043 19.888L7.39062 20.4544L7.54721 20.8348L7.67356 21.125L7.78356 21.7781L8.31473 22.3397L8.59798 22.4662L8.80378 22.3608L8.80409 22.3606Z"
    fill="#F3E19D" />
  <path fill-rule="evenodd" clip-rule="evenodd"
    d="M7.28986 14.1389C7.28986 14.1389 6.90834 14.7869 6.79849 15.4401C6.68865 16.0933 6.59022 16.7835 6.65964 17.6728C6.72984 18.5693 6.86329 19.1191 6.97097 19.5124C7.1561 20.1655 7.63559 21.0735 7.63559 21.0735L7.65194 21.0384C7.57135 20.8856 7.50702 20.7248 7.46002 20.5586C7.39677 20.3105 7.37332 20.0157 7.31485 19.8822C7.26332 19.7489 7.17677 19.6341 7.13466 19.4703C7.09485 19.3135 7.08837 19.0655 6.96619 18.8806C6.91466 18.8057 6.85141 18.6091 6.83274 18.4126C6.80929 18.1176 6.84447 17.7876 6.81639 17.5162C6.76486 17.0645 6.72984 16.7579 6.77658 16.5214C6.82333 16.2849 7.06693 15.6135 7.21673 15.0799C7.315 14.7381 7.25638 14.4502 7.43657 14.153C7.61677 13.8581 7.72692 13.5983 7.76657 13.4181C7.81285 13.2543 7.28924 14.1389 7.28924 14.1389H7.28986Z"
    fill="#F2E8B0" />
  <path fill-rule="evenodd" clip-rule="evenodd"
    d="M9.09861 13.879C9.09861 13.879 8.90206 13.9377 8.80842 14.0406C8.71477 14.1388 8.67497 14.2208 8.54862 14.3869C8.42227 14.5531 8.41517 14.6888 8.31211 14.8971C8.20921 15.1008 7.98212 15.4073 7.95404 15.5173C7.92596 15.6273 7.87922 16.1421 7.82075 16.3856C7.76922 16.629 7.87922 16.9286 7.87922 16.9286L8.01251 16.9004C8.01251 16.9004 8.01251 17.0737 8.14596 17.1907C8.27925 17.3054 8.3027 16.8021 8.3027 16.8021L8.80116 15.1194L9.55233 14.6092L9.63425 14.1973L9.0983 13.879H9.09861Z"
    fill="#F5EEC0" />
  <path fill-rule="evenodd" clip-rule="evenodd"
    d="M9.46429 14.6421C9.46429 14.6421 9.11084 14.6654 8.93775 14.7919C8.86755 14.8433 8.83947 14.8854 8.76465 14.9487C8.62657 15.0633 8.48603 15.1687 8.4183 15.3189C8.34332 15.4686 8.2614 15.6957 8.20525 16.124C8.1818 16.3042 8.1818 16.4703 8.16544 16.6155C8.14199 16.812 8.10697 16.9688 8.12564 17.0783C8.14909 17.303 8.38081 17.4201 8.40334 17.6751L8.88313 17.4318L9.33485 15.6506L10.2944 15.049L9.75139 14.4405L9.46367 14.6411L9.46429 14.6421Z"
    fill="#E6DB9D" />
  <path fill-rule="evenodd" clip-rule="evenodd"
    d="M6.93326 26.6359C6.93526 26.6183 6.93727 26.6007 6.93928 26.5827C7.00932 25.981 7.0212 25.525 7.07257 25.2394C7.14739 24.8346 7.19892 24.684 7.1872 24.5325C7.17084 24.2892 7.15218 24.1113 7.17563 23.924C7.21065 23.6759 7.45409 23.3811 7.44715 23.1775C7.44237 23.0159 7.36045 22.9107 7.29025 22.8124C7.22006 22.7142 7.1639 22.6322 7.1639 22.6322C7.1639 22.6322 7.6437 22.3022 7.63907 20.9728C7.64887 20.9756 7.65829 20.9795 7.66715 20.9846L7.9035 21.6561L8.06502 21.8527L8.68521 23.0088L9.48327 23.7836L10.6627 24.5769L11.4023 25.3818L11.4771 27.5279L10.5106 28.7824L10.3523 29.069C9.09476 28.4377 7.9416 27.617 6.93311 26.6358L6.93326 26.6359Z"
    fill="#E5CB7A" />
  <path fill-rule="evenodd" clip-rule="evenodd"
    d="M9.88513 28.6889C9.88513 28.6889 9.90149 28.4221 10.1215 28.2489C10.1567 28.3073 10.18 28.3636 10.173 28.4056C10.2128 28.3356 10.4913 27.8862 11.1209 27.7691C11.7505 27.6544 11.9026 27.1958 11.9026 27.1958L13.2388 25.9811L14.767 24.5746L16.6253 23.9215L17.4937 23.7085C17.4937 23.7085 17.51 23.7717 17.4773 23.9121C17.6387 23.9006 17.9968 23.8186 18.3689 23.6875C18.5187 23.629 18.6592 23.6056 18.734 23.6829C18.844 23.7858 18.8604 24.0292 18.8673 24.1742C19.0475 24.1344 19.2558 23.9613 19.4227 23.9777C19.6896 24.0058 19.926 24.3194 20.1975 24.3194C20.5556 24.3194 20.7169 24.0994 20.9675 23.9262C21.1173 23.8233 21.3325 23.6947 21.4542 23.6079C21.7444 23.3948 24.8149 22.4564 24.8149 22.4564L25.8915 22.5266L26.0647 23.6827L25.9722 26.705C25.9607 26.716 25.9493 26.7274 25.9378 26.7383L21.0429 29.2949L14.2579 30.335C12.738 30.0867 11.2713 29.5822 9.92031 28.843L9.88559 28.6887L9.88513 28.6889Z"
    fill="#D8C173" />
  <path fill-rule="evenodd" clip-rule="evenodd"
    d="M7.34436 27.0203C7.44078 26.8187 7.52748 26.65 7.54276 26.5897C7.55479 26.7113 7.57685 26.978 7.62128 27.2616C7.528 27.1823 7.43569 27.1018 7.34436 27.0202V27.0203Z"
    fill="#F1D789" />
  <path fill-rule="evenodd" clip-rule="evenodd"
    d="M12.3005 29.8645L13.178 29.6205L13.2529 29.6439C13.2529 29.6439 13.2927 29.6674 13.2927 29.7468C13.4027 29.6837 13.4963 29.6953 13.5642 29.6533C13.5992 29.7281 13.6342 29.9762 13.7888 30.0066C13.9502 30.0418 14.1234 29.9364 14.299 29.8031C14.4721 29.665 14.6693 29.4918 14.8184 29.4216C14.8732 29.5222 14.9217 29.6262 14.9636 29.7328C15.1602 29.576 15.5019 28.9395 15.9886 28.951C16.1293 28.6186 16.3643 28.3346 16.6647 28.1343C17.1164 27.8277 17.3995 27.8043 17.7529 27.8324C17.8933 27.65 18.0663 27.4953 18.2631 27.376C18.3216 27.3995 18.4831 27.4977 18.6844 27.4041C18.8881 27.3106 19.1173 26.9477 19.4192 26.901C19.5819 26.8786 19.7474 26.9133 19.8873 26.9993C19.8873 26.9993 20.7667 26.1262 21.3734 25.836C21.35 25.7658 21.3032 25.5014 22.0146 24.9162C22.0544 24.9514 22.0263 25.0497 22.0544 25.0551C22.066 25.0551 22.2395 24.9802 22.4592 24.8116C22.7307 24.6081 23.056 24.3951 23.2525 24.3366C23.6228 24.2266 24.0156 24.4512 24.0156 24.4512C24.049 24.4278 24.0862 24.4104 24.1255 24.3997C24.219 24.3833 24.2869 24.3716 24.3384 24.3534C24.3338 24.4751 24.4017 24.6834 24.3384 24.8636C24.4117 24.9048 24.4893 24.9378 24.5699 24.9619C24.5302 25.0484 24.4435 25.2684 24.2985 25.3738C24.4201 25.4323 24.4364 25.5002 24.6097 25.5589C24.5395 25.6572 24.4245 25.8258 24.3733 25.9292C24.3218 26.0392 24.1368 26.4956 24.0549 26.6687C23.9683 26.8419 23.8514 27.1602 23.7951 27.2241C23.7388 27.2879 23.5353 27.5587 23.3785 27.692C23.5174 27.6405 24.0854 27.4674 24.3264 27.4018C24.2547 27.507 23.8911 28.0465 23.5415 28.5653C21.8677 29.5686 19.9992 30.2036 18.0608 30.428C16.1223 30.6524 14.1582 30.4611 12.2994 29.8668L12.3005 29.8645Z"
    fill="#E0CD81" />
  <path fill-rule="evenodd" clip-rule="evenodd"
    d="M9.52195 14.5789C9.52195 14.5789 9.31846 14.5789 9.27866 14.607C9.23886 14.635 9.4823 14.6937 9.55712 14.7218C9.63195 14.7498 9.79347 14.8785 9.83559 14.9816C9.87539 15.0798 11.2983 15.6531 11.2983 15.6531L12.3046 15.6016L12.6516 15.1223L11.9916 14.5442L12.4544 13.1797L11.8413 13.278L10.3669 14.1574L9.62732 14.4407L9.52195 14.5789Z"
    fill="#DFC57C" />
  <path fill-rule="evenodd" clip-rule="evenodd"
    d="M11.7322 15.0305C11.7468 15.0541 11.7672 15.0734 11.7916 15.0865C11.816 15.0997 11.8434 15.1062 11.8711 15.1054C12.0793 15.1054 12.2711 15.1569 12.3507 15.2621C12.4841 15.4307 12.8539 15.969 12.8539 15.969L13.7386 16.2873L13.7956 15.2456L12.8291 14.574L11.7291 14.9789V15.0304H11.7316L11.7322 15.0305Z"
    fill="#E5CC7C" />
  <path fill-rule="evenodd" clip-rule="evenodd"
    d="M11.5584 15.4168C11.5584 15.4168 11.7198 15.4285 11.9235 15.3535C12.1271 15.2785 12.4617 15.1171 12.6069 15.1804C12.8104 15.267 12.7683 15.5385 12.9884 15.7821C13.1217 15.9319 13.3652 15.9273 13.5032 16.0888C13.6413 16.2503 14.1163 16.1753 14.1163 16.1753L14.2965 17.1473L13.5734 18.0742L13.3369 19.2256H12.3591L11.4659 18.8712L11.0259 17.8067L11.2459 16.7301L11.5584 15.4168Z"
    fill="#D2C281" />
  <path fill-rule="evenodd" clip-rule="evenodd"
    d="M13.4498 15.4635C13.4741 15.471 13.4993 15.4749 13.5246 15.4752C13.4965 15.4987 13.4379 15.5501 13.4614 15.6835C13.4848 15.817 13.5596 15.9854 13.4965 16.0883C13.5469 16.1434 13.5845 16.209 13.6065 16.2803C13.6464 16.395 13.6581 16.5003 13.9177 16.5168C13.8802 16.5398 13.8457 16.5673 13.8148 16.5987C13.8148 16.5987 13.995 16.7554 14.0863 16.9005C14.1798 16.8964 14.4279 16.8193 14.4279 16.8193L14.4794 16.8545L14.5894 16.8082C14.5894 16.8082 14.4865 16.7684 14.5614 16.518C14.6316 16.298 14.6948 16.3097 14.7002 16.2934C14.7056 16.277 14.7517 16.0453 14.7517 15.9517C14.7868 15.8301 14.8148 15.4603 14.8148 15.4603L14.74 14.6435L14.3188 14.3884L13.9763 14.0577L13.6533 14.6662L13.4405 14.8783L13.4242 15.4049L13.4498 15.4635Z"
    fill="#E2C270" />
  <path fill-rule="evenodd" clip-rule="evenodd"
    d="M14.4631 14.7802C14.4631 14.7802 14.538 14.9931 14.5662 15.157C14.5761 15.1251 14.5816 15.092 14.5825 15.0587C14.5825 15.0587 14.641 15.3817 14.6526 15.5152C14.676 15.5104 14.6989 15.5035 14.7041 15.5268C14.7094 15.5501 14.7627 15.81 14.7504 15.955C14.8479 15.7943 14.9827 15.6594 15.1435 15.5619C15.2371 15.5033 15.3471 15.4402 15.4619 15.4354C15.6421 15.4308 15.7731 15.5502 15.9885 15.5502C16.5079 15.5502 16.9784 15.1687 17.3248 15.0517C17.5798 14.965 17.7998 14.9019 17.9542 14.7614C18.0292 14.6983 18.1626 14.5579 18.2842 14.3495C18.4457 14.0718 18.6142 13.83 18.7828 13.7996C18.7065 13.8137 18.6289 13.8191 18.5514 13.816C18.5514 13.816 18.603 13.7645 18.6903 13.6943C18.7776 13.6241 18.8822 13.5375 19.0318 13.5375C19.2987 13.5375 19.432 13.5772 19.5818 13.5772C19.7316 13.5725 19.8182 13.5375 19.8182 13.5375C19.8182 13.5375 19.9751 13.6475 20.3284 13.6475C20.6818 13.6521 20.9182 13.6825 21.1031 13.699C21.2881 13.7156 21.9081 13.6475 22.086 13.6528C22.202 13.6572 22.3159 13.6851 22.4208 13.7347L21.8474 12.0685L19.7875 10.2681L18.5611 11.1363L16.6747 13.0227L14.8493 13.699L14.4678 14.1273V14.7802H14.4631Z"
    fill="#CCB360" />
  <path fill-rule="evenodd" clip-rule="evenodd"
    d="M18.5588 13.8253C18.5588 13.8253 18.6103 13.7739 18.6967 13.7037C18.7831 13.6335 18.8888 13.5468 19.0384 13.5468C19.3052 13.5468 19.4386 13.5866 19.5884 13.5866C19.7382 13.582 19.8248 13.5468 19.8248 13.5468C19.8248 13.5468 19.9818 13.6566 20.335 13.6566C20.6884 13.6613 20.9248 13.6917 21.1097 13.708C21.2947 13.7244 21.9147 13.6566 22.0926 13.6617C22.2086 13.6661 22.3224 13.694 22.4273 13.7437L22.1675 12.9923L21.8657 12.419L21.0044 11.4758C21.0044 11.4758 19.9707 10.8673 19.9629 10.8627C19.9582 10.8581 19.6048 10.7644 19.6048 10.7644L18.6686 11.3308L17.8192 13.5284L17.8029 13.9913L18.3527 14.2511C18.4908 14.0197 18.643 13.8345 18.7857 13.8111C18.6569 13.8251 18.5586 13.8251 18.5586 13.8251L18.5588 13.8253Z"
    fill="#D5B457" />
  <path fill-rule="evenodd" clip-rule="evenodd"
    d="M18.5471 13.9822C18.4652 13.9868 18.3975 13.9704 18.3786 13.912C18.3084 13.7154 18.2523 13.6873 18.1935 13.6873C18.1347 13.6873 18.0554 13.8137 18.0084 13.8253C17.9613 13.8368 17.9055 13.6802 17.9055 13.6802L17.8539 13.6568C17.8539 13.6568 17.552 13.8533 17.3391 14.0851C17.1262 14.3168 16.7774 14.7101 16.6207 14.7801C16.4639 14.8501 15.9255 14.8737 15.7413 14.9135C15.5571 14.9533 15.3528 15.0868 15.3248 15.1172C15.2967 15.1476 15.4068 15.1803 15.4232 15.2107C15.4395 15.2388 15.2428 15.227 15.2265 15.257C15.2149 15.2804 15.2728 15.4137 15.3015 15.4816C15.3517 15.4566 15.4068 15.443 15.4628 15.4418C15.643 15.4372 15.7742 15.5566 15.9894 15.5566C16.509 15.5566 16.9794 15.175 17.3257 15.0579C17.5809 14.9714 17.8009 14.9081 17.9553 14.7678C18.0301 14.7047 18.1636 14.5641 18.2853 14.3558C18.3742 14.2131 18.4609 14.0797 18.5476 13.9814L18.5471 13.9822Z"
    fill="#D2B257" />
  <path fill-rule="evenodd" clip-rule="evenodd"
    d="M11.0959 25.5647C11.0959 25.5647 11.0496 25.3915 10.6207 24.9445C10.499 24.8182 10.4242 24.7131 10.3422 24.638C10.1386 24.4459 10.0192 24.3945 9.87416 24.2845C9.55589 24.0482 9.20954 24.0482 8.9428 23.758C8.67606 23.4678 8.36519 22.9133 8.14921 22.3467C7.93631 21.7803 7.87769 21.6001 7.87769 21.5838C7.87769 21.5674 7.93631 21.4574 8.01113 21.4738C8.08596 21.4901 8.08596 21.6351 8.10478 21.6703C8.14206 21.7277 8.18434 21.7817 8.23113 21.8317C8.34113 21.9582 8.49787 22.1094 8.57748 22.3349C8.56112 22.143 8.49556 21.9301 8.49556 21.9301C8.49556 21.9301 8.90747 22.1899 9.25845 22.4613C9.61189 22.7328 9.75691 22.8265 9.86012 22.9996C9.96333 23.1727 10.2065 23.6292 10.3229 23.7626C10.4394 23.8961 12.0354 24.3992 12.0354 24.3992L12.7946 24.9652L13.1715 25.7914L12.8765 26.2542L12.3102 26.3759L11.3904 25.964L11.0959 25.5646V25.5647Z"
    fill="#D2B159" />
  <path fill-rule="evenodd" clip-rule="evenodd"
    d="M9.05176 22.7188C9.05176 22.7188 9.24368 23.0254 9.71175 23.3156C10.1331 23.5707 10.8 23.8025 11.3946 23.9405C11.7361 24.0225 12.0779 24.0856 12.3844 24.0903C13.2106 24.1019 13.7792 23.8657 14.4838 23.7884C14.8653 23.7486 15.3334 23.7182 15.8201 23.6033C16.4449 23.4535 16.8147 23.2849 17.318 23.0479C17.683 22.8794 18.0178 22.7531 18.2891 22.5915C18.6707 22.3669 18.9491 22.1165 19.2722 22.0417C19.2324 22.1517 19.1903 22.3482 18.872 22.5519C19.0405 22.5471 19.2722 22.5355 19.2722 22.5355C19.2722 22.5355 19.0475 22.6688 18.652 22.9684C18.4085 23.1536 18.0856 23.4669 17.7556 23.6752C17.5426 23.8086 17.3109 23.9066 17.1588 23.9865C16.7885 24.1902 16.6392 24.2931 16.3959 24.5419C16.4824 24.5373 16.4895 24.5419 16.4895 24.5419C16.4895 24.5419 16.1828 24.5817 15.963 24.6987C15.9167 24.6987 15.8365 24.6823 15.6961 24.7221C15.5861 24.7571 15.4409 24.8369 15.2913 24.8789C15.0782 24.9421 15.0082 24.914 15.0082 24.914L15.0432 24.9842C15.0432 24.9842 14.7655 24.9794 14.6729 24.9889C14.6893 24.9935 14.6846 25.0006 14.6846 25.0006C14.6684 25.0033 14.6527 25.0088 14.6384 25.0169C14.5938 25.0458 14.5448 25.0671 14.4933 25.08C14.4653 25.0847 14.4418 25.0847 14.4066 25.0918C14.4184 25.1198 14.5097 25.2769 14.5518 25.3695C14.5168 25.3929 13.9901 25.7908 13.9901 25.7908C14.0064 25.8165 14.0198 25.844 14.0299 25.8727C14.0463 25.9241 14.0534 25.9991 14.0697 26.0341C14.1094 26.1043 14.1328 26.116 14.1328 26.116C14.1328 26.116 14.0697 26.1277 13.9596 26.1558C13.8661 26.1793 13.7513 26.2189 13.5893 26.2424C13.5396 26.2488 13.4896 26.2527 13.4395 26.2541C13.4629 26.3056 13.5658 26.5022 13.3762 26.7291C13.1866 26.956 13.1282 26.9891 13.0697 27.1341C13.0403 27.1118 13.0089 27.0922 12.9761 27.0755C12.913 27.0474 12.8263 27.0054 12.7959 26.9491C12.7781 27.0241 12.7547 27.0977 12.7257 27.1691C12.6672 27.3258 12.5806 27.4804 12.5643 27.5974C12.501 27.5272 12.3841 27.3891 12.2226 27.4172C12.061 27.4453 11.9324 27.6653 11.9043 27.7285C11.9043 27.6887 11.8762 27.6583 11.8693 27.7051C11.8645 27.7566 11.7756 28.2947 11.2795 28.7301C11.2749 28.6201 11.2749 28.3766 11.2631 28.2972C11.2169 28.3435 11.1602 28.4118 10.8231 28.557C10.4931 28.702 10.5454 28.8472 10.5454 28.8472C10.5454 28.8472 10.5174 28.6158 10.6953 28.372C10.8754 28.1287 10.9854 28.0139 10.9854 27.9953C10.9825 27.9762 10.9744 27.9584 10.962 27.9437C10.9385 27.9203 10.8918 27.8922 10.8918 27.8735C10.9199 27.862 11.1983 27.7285 11.182 27.4522C11.1656 27.2043 11.0604 27.0755 10.9854 26.9843C10.9739 26.9726 11.0956 26.886 11.0791 26.8579C11.0674 26.8416 10.9177 26.7314 10.8989 26.6728C10.9033 26.6378 10.9112 26.6033 10.9223 26.5699C10.9387 26.5184 10.9504 26.4832 10.9458 26.4482C10.9341 26.3897 10.8708 26.2282 10.8521 26.2118C10.8685 26.2164 10.9854 26.2118 10.9854 26.2118C10.9854 26.2118 10.892 26.062 10.8754 25.9918C10.8589 25.9216 10.8239 25.7366 10.8052 25.7016C10.8451 25.7062 10.9433 25.7132 10.9433 25.7016C10.9481 25.6664 10.8568 25.608 10.897 25.5628C10.9251 25.5674 10.979 25.5908 11.0303 25.6564C11.0023 25.5814 10.9555 25.4364 10.8571 25.3779C10.9034 25.3616 11.0607 25.3193 11.1988 25.4012C11.3369 25.4832 11.3839 25.5978 11.3839 25.5978C11.3839 25.5978 11.4659 25.661 11.5924 25.7547C11.7374 25.8693 11.9222 26.0324 12.2172 26.1478C12.2804 26.183 12.4418 26.183 12.5589 26.1595C12.6099 26.1474 12.6588 26.1277 12.7039 26.101C12.7202 26.0914 12.7375 26.0836 12.7554 26.0776C12.7303 26.0271 12.7014 25.9786 12.6689 25.9324C12.7087 25.9324 12.7554 25.9372 12.7554 25.9372C12.7554 25.9372 12.7835 25.8739 12.6572 25.7521C12.6852 25.724 12.7204 25.7058 12.7204 25.6584C12.6806 25.6538 12.6104 25.5953 12.5941 25.5719C12.6174 25.5555 12.6525 25.5017 12.6923 25.4853C12.6572 25.4572 12.5706 25.3401 12.5308 25.3286C12.5688 25.3145 12.6056 25.2972 12.6408 25.277C12.6408 25.277 12.4443 25.2255 12.381 25.1834C12.3178 25.1371 12.2243 25.057 12.1681 25.0336C12.1095 25.0101 12.0066 24.9986 11.9645 24.9517C12.0041 24.9634 12.0674 24.9517 12.1143 24.9517C12.1493 24.9517 12.1658 24.9563 12.1774 24.9563C12.1727 24.9399 12.1727 24.9048 12.2641 24.8932C12.308 24.8866 12.3506 24.8731 12.3904 24.8534C12.3904 24.8534 12.3037 24.8488 12.2053 24.7551C12.1069 24.6615 12.0251 24.5866 11.9689 24.5749C11.9105 24.5632 11.8005 24.6147 11.7326 24.6099C11.639 24.5984 11.5991 24.5515 11.5991 24.5515C11.5991 24.5515 11.288 24.5796 10.5976 24.1584C10.0007 23.7932 9.7409 23.4703 9.7409 23.4703C9.68504 23.45 9.63105 23.4249 9.57953 23.3953C9.35491 23.2784 9.04358 23.0349 9.05299 22.7165L9.05176 22.7188Z"
    fill="#C2A44D" />
  <path fill-rule="evenodd" clip-rule="evenodd"
    d="M17.6622 8.67177C17.7164 8.68935 17.7645 8.7218 17.8011 8.76541C17.9111 8.89176 17.9813 9.13043 17.7309 9.38561C17.8292 9.42063 17.8697 9.43189 17.9555 9.42063C17.869 9.52369 17.6724 9.74369 17.6607 9.93561C17.649 10.0924 17.7473 10.1393 17.7473 10.1393C17.7473 10.1393 17.5975 10.3124 17.5905 10.6021C17.6613 10.5223 17.7387 10.4487 17.8219 10.3821C17.9952 10.244 18.2338 10.0873 18.3954 9.98899C18.3932 10.0302 18.3987 10.0714 18.4117 10.1106C18.4117 10.1106 18.7135 9.86248 18.9671 9.97263C19.0817 10.0242 19.0302 10.1855 19.0302 10.1855C19.0302 10.1855 19.1871 10.1271 19.2971 10.2371C19.4071 10.3471 19.5626 10.6308 19.6424 10.7408C19.6774 10.7923 19.7687 10.8906 19.8622 11.0427C19.9899 11.2557 20.0966 11.4806 20.1806 11.7143C20.1853 11.5925 20.2157 11.4031 20.5622 11.5224C20.9085 11.6441 21.3016 11.8993 21.6316 12.4017C21.9616 12.9042 22.0434 13.4715 22.2095 13.6875C22.378 13.8958 22.5512 14.2421 22.563 14.3873C22.5747 14.5325 22.5114 15.0004 22.8578 16.2665C22.956 15.8734 23.1058 15.0004 23.1058 15.0004L23.1878 14.2304L23.2814 11.8479L20.7936 9.78102L18.8488 8.36969L17.5826 8.49142L17.6621 8.67161L17.6622 8.67177Z"
    fill="#CAA13E" />
  <path fill-rule="evenodd" clip-rule="evenodd"
    d="M22.2842 12.2174C22.2842 12.2174 22.249 11.9859 21.664 11.5925C21.0788 11.2041 20.6225 11.2041 20.2013 10.8741C19.8782 10.6143 19.5413 10.0174 19.3219 9.82081C19.1089 9.62658 19.0739 9.06485 19.0739 9.06485L19.7923 8.46317L20.8608 6.9187L21.7641 5.92407L22.197 6.52575L22.7987 7.2325L23.1333 8.65077L23.255 10.7267L22.2831 12.2175L22.2842 12.2174Z"
    fill="#B59544" />
  <path fill-rule="evenodd" clip-rule="evenodd"
    d="M23.0082 14.7057C23.0259 14.3909 22.987 14.0754 22.8934 13.7743C22.7391 13.2945 22.402 12.4426 22.2454 12.1236C22.1822 11.7701 22.2291 11.742 22.2969 11.7022C22.3648 11.6624 22.62 11.5171 22.7598 11.0072C22.8995 10.4973 23.3332 10.4807 23.3332 10.4807L23.6 10.2841L24.0049 11.2974L24.3582 12.2126L24.4682 12.9124L24.5501 13.5091L24.3582 14.7707L23.4105 15.6272L23.008 14.7057H23.0082Z"
    fill="#C89D3A" />
  <path fill-rule="evenodd" clip-rule="evenodd"
    d="M9.78247 28.7664V28.7405C9.80216 28.7282 9.81955 28.7125 9.83384 28.6942C9.8502 28.6708 9.86208 28.6427 9.87365 28.6358C9.8971 28.624 10.0071 28.5895 10.0656 28.6006C10.124 28.6117 10.2786 28.6754 10.3605 28.6708C10.529 28.6661 10.7256 28.5373 11.0369 28.596C11.505 28.6825 11.615 29.0008 11.8865 29.181C12.0716 29.3075 12.2632 29.2512 12.2913 29.2512H12.3544C12.3661 29.2512 12.4527 29.1529 12.4996 29.1577C12.5932 29.1623 12.6025 29.2396 12.6609 29.2442C12.799 29.2606 13.0659 29.174 13.1994 29.2092C13.2389 29.2216 13.2749 29.2434 13.3042 29.2727C13.3336 29.302 13.3554 29.338 13.3678 29.3775C13.3959 29.4641 13.3725 29.5741 13.3046 29.6373C13.1596 29.7706 13.0215 29.8971 12.9934 30.0076C13.0291 30.0348 13.0634 30.0639 13.0961 30.0946C11.9382 29.7996 10.8241 29.3535 9.78247 28.7678V28.7664Z"
    fill="#CEB052" />
  <path fill-rule="evenodd" clip-rule="evenodd"
    d="M22.2448 24.0903C22.2448 24.0903 22.6098 23.6035 22.7363 23.3624C22.8626 23.1139 22.3361 19.9666 22.3361 19.9666L23.3939 16.5006L23.3657 15.3725C23.3657 15.3725 23.4172 14.331 23.539 13.8793C23.6841 14.1391 24.1359 14.4527 24.2341 14.6189C24.2804 14.3004 24.4376 13.6289 24.4143 12.9127C24.5009 13.046 24.7091 14.3871 24.7091 14.3871L24.9174 15.2904L25.1889 16.25L25.4909 17.2635L25.671 17.9633L25.7739 18.1318L25.8607 18.4266L25.9426 18.745L26.1789 19.4916L26.3178 20.1047L26.4278 21.2164C26.4517 21.3015 26.4689 21.3884 26.4793 21.4762C26.4839 21.5979 26.4629 21.6681 26.4629 21.6893C26.4629 21.7104 26.5027 21.956 26.4864 22.141C26.4629 22.3261 26.4629 22.471 26.3178 22.6038C26.1726 22.7366 26.0814 23.5306 26.0814 23.5306L25.8216 23.3575C25.8216 23.3575 25.8731 23.121 25.7514 22.9057C25.6297 22.6905 25.3934 22.6459 25.2599 22.6811C25.1266 22.7092 24.8599 22.7512 24.7732 22.8261C24.6912 22.901 24.4901 23.1327 24.3051 23.2381C24.0737 23.3769 23.6966 23.3879 23.4955 23.4346C23.2918 23.4809 23.0672 23.6197 22.8307 23.781C22.6453 23.901 22.4495 24.0043 22.2457 24.0895L22.2448 24.0903Z"
    fill="#CCA847" />
  <path fill-rule="evenodd" clip-rule="evenodd"
    d="M22.2448 29.2039C22.2448 29.2039 22.2602 29.214 22.29 29.2303C23.9527 28.4513 25.4424 27.3471 26.6714 25.9828C26.6579 25.5091 26.6405 25.0236 26.6214 24.8437C26.5817 24.4622 26.6098 24.0737 26.5981 23.8491C26.5864 23.6245 26.46 22.7093 26.4015 22.473C26.3383 22.2366 26.2164 22.1195 26.1979 22.1195C26.1815 22.1243 26.0831 22.5643 26.0831 22.6749C26.0831 22.7855 26.0597 23.0518 26.0597 23.1197C26.0433 23.1149 26.0364 23.0734 26.0364 23.0564C26.0129 23.1149 25.9848 23.218 25.9731 23.2297C25.9614 23.2414 25.9895 23.1314 25.9731 23.108C25.9568 23.0845 25.9268 23.0962 25.9333 23.0378C25.9361 23.0031 25.9416 22.9687 25.9497 22.9349C25.9497 22.9349 25.8795 23.0378 25.8281 23.2999C25.7766 23.5597 25.7766 23.5668 25.7579 23.5901C25.7415 23.6183 25.6479 23.7118 25.6431 23.747C25.6385 23.8101 25.7298 23.8733 25.7368 23.9084C25.7414 23.967 25.6548 24.2384 25.6268 24.3712C25.5987 24.504 25.6104 24.7643 25.5805 24.8977C25.557 25.0195 25.5342 25.0897 25.4541 25.141C25.5126 25.1528 25.5688 25.1691 25.5688 25.1691C25.5688 25.1691 25.6507 25.5155 25.4424 25.8104C25.3676 25.9133 25.3489 25.9602 25.2693 26.0539C25.1124 26.227 24.9907 26.4242 24.979 26.5524C24.9709 26.5145 24.9654 26.4762 24.9626 26.4376C24.9626 26.4376 24.7193 26.7208 24.6163 26.8824C24.483 27.0906 24.298 27.0789 24.246 27.1304C24.194 27.182 24.1828 27.2755 24.1997 27.3504C24.1534 27.362 24.0664 27.3785 24.0078 27.5587C23.9797 27.6522 23.9095 27.7438 23.7995 27.8068C23.6895 27.8697 23.5561 27.8887 23.4882 27.9051C23.5467 27.9214 23.5701 27.9214 23.5982 27.9401C23.5632 27.9986 23.4017 28.0899 23.2215 28.207C23.0413 28.317 22.9546 28.4784 22.9101 28.5837C22.8639 28.682 22.7955 28.7453 22.6855 28.757C22.7318 28.7851 22.8003 28.8505 22.8353 28.8716C22.7838 28.8833 22.6965 28.8833 22.5405 29.0168C22.3767 29.1526 22.3205 29.1924 22.2455 29.2041L22.2448 29.2039Z"
    fill="#C39D3C" />
  <path fill-rule="evenodd" clip-rule="evenodd"
    d="M18.9883 30.2885C19.0779 30.2257 19.175 30.1742 19.2773 30.1353C19.6423 29.9903 20.0284 29.9622 20.1806 29.9154C20.3257 29.8692 20.4404 29.8053 20.6206 29.7703C20.6158 29.8113 20.6118 29.8499 20.6074 29.8863C20.0762 30.0533 19.5352 30.1876 18.9875 30.2885H18.9883Z"
    fill="#D2BA6B" />
  <path fill-rule="evenodd" clip-rule="evenodd"
    d="M25.7208 20.6874C25.7208 20.6874 25.646 21.0922 25.5126 21.3474C25.3791 21.6025 25.2349 21.9558 25.2349 21.9558C25.2357 21.8762 25.2452 21.7969 25.2629 21.7193C25.0945 21.8176 24.6849 22.0541 24.5687 22.1593C24.4587 22.2576 24.2737 22.4309 24.227 22.5128C24.337 22.1899 24.4516 21.8997 24.4704 21.7662C24.302 21.888 23.5155 22.5362 23.106 22.9645L21.8305 23.9966C21.6833 24.076 21.5317 24.147 21.3764 24.2092C21.1566 24.3027 20.8968 24.3823 20.7049 24.4573C20.7564 24.3192 20.8382 24.1973 20.953 24.0804C21.0747 23.9658 21.4397 23.5702 21.4959 23.3861C21.5474 23.1942 21.5591 23.0796 21.4912 22.9181C21.428 22.9344 21.283 22.9415 21.1847 22.9696C21.0864 22.9977 20.981 23.1029 20.981 23.1029C20.981 23.1029 21.0559 22.6746 21.2174 22.2698C21.0957 22.2744 20.8874 22.3094 20.8874 22.3094C20.8874 22.3094 21.1776 21.8227 21.6742 21.4834C21.5221 21.5158 21.3733 21.562 21.2296 21.6214C20.9394 21.7431 20.6211 21.9233 20.3848 22.0216C20.5181 21.8364 21.4542 20.5004 22.0113 19.2552C22.5667 18.0125 22.7742 17.6942 22.8959 17.0273C22.959 16.6973 22.9422 16.2096 22.959 15.7729C22.9754 15.3398 23.0292 14.9513 22.9942 14.6915C23.1392 14.8717 23.6822 15.3796 23.7009 16.5148C23.7173 17.6498 23.1815 19.1829 22.6127 20.0089C22.7515 20.0487 23.1113 20.0956 23.4809 19.4535C23.8506 18.8114 23.8461 18.6321 23.9795 18.3652C23.9959 18.4986 23.9911 18.5454 23.9911 18.5454C23.9911 18.5454 24.5295 17.8925 24.7845 17.071C24.8361 17.4244 24.9882 17.7357 24.7494 18.384C24.5365 18.969 24.258 19.1119 24.258 19.1119C24.258 19.1119 24.3961 19.0884 24.5996 18.9667C24.6347 19.0533 24.6278 19.1518 24.6863 19.1867C24.7447 19.2216 24.8243 19.2804 24.8361 19.3365C24.8992 19.2429 24.9974 19.1235 25.028 19.0346C25.0045 19.2197 24.9882 20.0292 25.0743 20.4411C25.2546 20.4248 25.4394 20.4131 25.5658 20.0877C25.4792 20.4061 25.4792 20.5979 25.5377 20.8694C25.6337 20.804 25.7202 20.6869 25.7202 20.6869L25.7208 20.6874Z"
    fill="#C0993A" />
  <path fill-rule="evenodd" clip-rule="evenodd"
    d="M19.6402 7.78723C19.6402 7.78723 19.46 7.86206 19.1535 7.86206C18.8867 7.86206 18.9615 7.75916 18.545 7.75916C17.9038 7.75916 15.6641 8.12942 15.2708 8.12418C15.0157 8.11955 16.132 8.23418 16.132 8.23418L18.985 8.27398L19.5583 8.2277L19.7713 7.79418L19.6402 7.78723Z"
    fill="#A88F33" />
  <path fill-rule="evenodd" clip-rule="evenodd"
    d="M12.2422 13.3643C12.2422 13.3643 11.877 13.6428 11.7226 13.8558C11.5682 14.0689 11.4862 14.2091 11.3107 14.3824C11.3519 14.3839 11.3931 14.3784 11.4324 14.366C11.4324 14.366 11.4324 14.4123 11.4043 14.4245C11.4286 14.4218 11.4531 14.4245 11.4762 14.4325C11.4993 14.4405 11.5202 14.4536 11.5376 14.4708C11.4861 14.4988 11.3457 14.6394 11.4557 14.8055C11.5376 14.9319 11.7109 14.9435 11.7109 14.9435C11.7109 14.9435 11.6711 15.0583 11.8372 15.0465C12.1953 15.0302 12.5955 14.8733 12.7803 14.9131C12.9654 14.9594 13.0706 14.9763 13.2016 15.2034C13.3405 15.4281 13.4614 15.4632 13.4614 15.4632C13.4614 15.4632 13.5433 15.2548 13.5247 14.9436C13.5918 14.7759 13.6291 14.5977 13.6347 14.4171L13.5129 13.5207L12.9818 12.849L12.2937 13.2305L12.2422 13.3638V13.3643Z"
    fill="#E3C571" />
  <path fill-rule="evenodd" clip-rule="evenodd"
    d="M12.8953 13.2308C12.8953 13.2308 12.9468 13.3526 13.1622 13.3641C13.1387 13.4157 13.1387 13.4228 13.1458 13.4624C13.1504 13.5022 13.1574 13.5607 13.1574 13.5607C13.1811 13.5492 13.2025 13.5335 13.2206 13.5144C13.2324 13.5659 13.2089 13.6477 13.2206 13.7063C13.2279 13.742 13.2396 13.7766 13.2557 13.8092C13.2591 13.8012 13.263 13.7934 13.2674 13.7859C13.272 13.7742 13.3137 13.9123 13.4289 14.0173C13.4288 14.0012 13.4328 13.9853 13.4405 13.9711C13.4422 14.0004 13.4519 14.0287 13.4685 14.053C13.4599 14.0489 13.4521 14.0433 13.4453 14.0366C13.4453 14.0366 13.4568 14.4069 13.5201 14.5984C13.5306 14.586 13.54 14.5727 13.5482 14.5586C13.5482 14.547 13.5435 14.6616 13.5318 14.7437C13.5154 14.8256 13.5272 14.9402 13.5272 14.9402C13.5694 14.907 13.6157 14.8795 13.6651 14.8583C13.7353 14.8301 13.8502 14.7435 13.9203 14.5516C13.9609 14.4429 13.9922 14.331 14.0139 14.217C14.0365 14.2605 14.0522 14.3074 14.0602 14.3558C14.065 14.4143 14.175 14.3839 14.175 14.3839L14.1984 14.1287L14.3373 13.5507L14.4636 13.1926L15.0721 12.2449L16.1714 11.3982L17.131 11.6182L17.9407 10.5182L16.5459 9.6803L15.2259 9.81838L14.028 11.4776L13.0685 12.9826L12.8953 13.2307V13.2308Z"
    fill="#D8B65B" />
  <path fill-rule="evenodd" clip-rule="evenodd"
    d="M19.8088 10.8297C19.8088 10.8297 19.7269 10.8461 19.4906 10.9686C19.2542 11.0911 19.0904 11.1299 18.999 11.3101C18.9077 11.4903 18.9008 11.6332 18.9008 11.6332C18.9008 11.6332 19.0623 11.563 19.1559 11.5395C19.2542 11.5163 19.3642 11.5232 19.3525 11.563C19.3412 11.5903 19.3256 11.6156 19.3062 11.6378C19.3062 11.6378 19.4913 11.6332 19.4864 11.7245C19.4815 11.8159 19.4514 11.9164 19.4163 11.9609C19.3812 12.0072 19.2362 12.0757 19.2198 12.1295C19.18 12.2395 19.2362 12.2441 19.215 12.333C19.1987 12.4197 19.1215 12.5882 18.8687 12.883C18.6089 13.178 18.4984 13.3862 18.4984 13.3862C18.4984 13.3862 18.3721 13.1499 18.3065 12.9462C18.2602 12.9695 18.0117 13.1076 18.0117 13.1076L17.4359 11.102L17.4475 10.9686C17.4475 10.9686 17.499 10.9055 17.5107 10.7884C17.4242 10.7603 17.4125 10.7368 17.2977 10.627C17.1829 10.5172 17.0894 10.3835 16.8977 10.2922C16.8696 10.2407 16.8344 10.1706 16.694 10.1424C16.5536 10.1142 16.4694 10.091 16.4694 10.091C16.4694 10.091 16.5442 10.0628 16.5794 10.0043C16.4927 10.0161 16.4226 10.0441 16.233 10.0395C16.0411 10.0347 16.02 10.0278 15.9148 10.0441C15.8096 10.0605 15.6834 10.1074 15.6363 9.94586C15.5848 9.90606 15.4748 9.94123 15.3811 10.0792C15.2875 10.2171 15.2548 10.3272 15.0746 10.3811C15.0619 10.4605 15.0341 10.5368 14.9927 10.6057C14.9411 10.6924 14.8592 10.779 14.7492 10.9076C14.576 11.1113 14.604 11.4459 14.3279 11.7011C14.0494 11.9561 14.3742 10.9942 14.3742 10.9942L14.8188 9.92966L16.0849 8.69158L18.0509 8.55829L18.2428 9.57652L19.2024 9.90652L19.8085 10.831L19.8088 10.8297Z"
    fill="#D3AE4D" />
  <path fill-rule="evenodd" clip-rule="evenodd"
    d="M20.1197 11.0542L19.2936 9.86307L18.7155 9.41828C18.7155 9.41828 18.3036 8.66016 18.2755 8.63671C18.2521 8.62036 17.8636 8.57824 17.6155 8.56189L17.6618 8.67652C17.716 8.69411 17.7641 8.72655 17.8007 8.77016C17.9107 8.89652 17.9809 9.13519 17.7305 9.39036C17.8288 9.42538 17.8693 9.43664 17.9551 9.42538C17.8686 9.52844 17.672 9.74844 17.6603 9.94036C17.6486 10.0971 17.7468 10.1439 17.7468 10.1439C17.7468 10.1439 17.597 10.3171 17.5901 10.6067C17.6608 10.5269 17.7382 10.4533 17.8215 10.3867C17.9948 10.2478 18.2334 10.0917 18.3949 9.99343C18.3927 10.0347 18.3983 10.076 18.4113 10.1152C18.4113 10.1152 18.7131 9.86708 18.9667 9.97708C19.0813 10.0286 19.0298 10.1901 19.0298 10.1901C19.0298 10.1901 19.1867 10.1317 19.2967 10.2417C19.4067 10.3517 19.5634 10.6348 19.643 10.7449C19.678 10.7964 19.7694 10.8947 19.8629 11.0467C19.9906 11.2597 20.0973 11.4847 20.1813 11.7184C20.1859 11.6248 20.2047 11.4938 20.3664 11.4938L20.1207 11.0538L20.1197 11.0542Z"
    fill="#CAA13E" />
  <path fill-rule="evenodd" clip-rule="evenodd"
    d="M7.73509 14.4385C7.73509 14.4385 7.67662 14.2933 7.73509 14.0102C7.79356 13.7271 7.88489 13.5937 7.91529 13.1771C7.94568 12.7606 8.2172 12.241 8.2172 12.241L8.96837 11.8994L9.49969 12.0444L9.65644 12.756L8.98472 13.1262C8.98472 13.1262 8.9497 13.283 8.7601 13.4093C8.57049 13.5357 8.30838 13.634 8.24528 13.7628C8.20756 13.8417 8.18003 13.925 8.16336 14.0109C8.16336 14.0109 7.97144 13.9711 7.85682 14.0974C7.73509 14.2262 7.73972 14.3409 7.73509 14.4391V14.4385Z"
    fill="#F4EFC8" />
  <path fill-rule="evenodd" clip-rule="evenodd"
    d="M9.25123 14.2489C9.25123 14.2489 9.18798 14.2887 9.14123 14.3877C9.09495 14.3129 8.98434 13.8681 8.97971 13.4679C8.97508 13.0677 8.95117 12.9685 9.04373 12.8306C9.1363 12.6927 9.49931 12.5473 9.44778 12.2989C9.39625 12.0626 9.18088 11.9643 8.91645 12.0322C8.73132 12.0785 8.59356 12.4722 8.40164 12.6688C8.25647 12.8186 8.08337 12.7951 8.03662 12.877C7.97337 12.987 8.03184 13.097 8.01317 13.1672C8.00839 13.1907 7.94992 13.317 7.84455 13.4691C7.63165 13.7757 7.27126 14.2087 7.22437 14.5972C7.24072 14.3772 7.22915 14.3726 7.28762 14.1291L7.25244 14.0707L7.48386 13.3124L7.63366 12.6876L7.96843 11.6413L8.55807 10.5718L9.13151 9.93048L9.72825 9.97028L9.79844 10.8666L10.1402 12.5495L10.8586 13.4341L9.70711 14.2091L9.25077 14.2489H9.25123Z"
    fill="#EBCC73" />
  <path fill-rule="evenodd" clip-rule="evenodd"
    d="M9.60894 14.5669C9.60894 14.5669 9.51067 14.5903 9.47549 14.5717C9.44032 14.553 9.40545 14.5319 9.41702 14.5084C9.42859 14.485 9.49184 14.4453 9.49184 14.4265C9.49314 14.4095 9.48776 14.3926 9.47685 14.3795C9.46593 14.3664 9.45034 14.3581 9.43337 14.3563C9.37953 14.3493 9.36318 14.3844 9.36318 14.3844C9.36318 14.3844 9.31165 14.3447 9.26969 14.3381C9.29452 14.335 9.3195 14.3334 9.34451 14.3333C9.27984 14.304 9.21123 14.2843 9.14087 14.2748C9.19934 14.2398 9.31412 14.1368 9.38894 14.1368C9.46377 14.1368 9.51067 14.1252 9.49894 14.0854C9.48722 14.0456 9.42875 13.9871 9.36565 13.9637C9.38894 13.9356 9.40545 13.8935 9.34929 13.7785C9.29067 13.6639 9.31412 13.5866 9.33294 13.5587C9.34929 13.5235 9.40776 13.4604 9.43584 13.4206C9.46392 13.3808 9.48737 13.3269 9.53412 13.2989C9.55757 13.2825 9.63239 13.2526 9.70737 13.224C9.78929 13.196 9.85717 13.1608 9.90391 13.196C9.95544 13.231 9.93199 13.2779 9.93199 13.2779C9.93199 13.2779 10.0935 13.2193 10.2385 13.2942C10.3837 13.3643 10.7372 13.4089 10.7372 13.4089L10.8638 13.664L10.0259 14.3825L9.6796 14.5558L9.6094 14.5673L9.60894 14.5669Z"
    fill="#E5C66B" />
  <path fill-rule="evenodd" clip-rule="evenodd"
    d="M10.772 13.3924C10.772 13.3924 10.5122 13.5656 10.4537 13.6287C10.4887 13.6335 10.5472 13.657 10.5238 13.692C10.4957 13.727 10.3272 13.8487 10.2336 13.9635C10.1353 14.0781 10.0416 14.2233 10.0089 14.2935C9.97392 14.3566 9.70702 14.5416 9.61584 14.5649C9.80776 14.5649 10.1939 14.3285 10.3389 14.3285C10.3343 14.3987 10.3787 14.4783 10.4607 14.4853C10.5426 14.4922 10.7789 14.5368 11.0972 14.3403C11.4155 14.1483 11.3102 14.0055 11.4435 13.912C11.6987 13.7434 11.8016 13.5936 11.942 13.5001C12.0824 13.4066 12.1551 13.3853 12.1551 13.3853C12.1551 13.3853 12.1597 13.3151 12.2013 13.3222C12.2127 13.3235 12.2236 13.3279 12.2327 13.3349C12.2417 13.3419 12.2487 13.3513 12.2529 13.362C12.2529 13.362 12.4963 13.1887 12.8083 13.142C12.801 13.1387 12.7952 13.1329 12.7919 13.1256C12.7919 13.1256 12.8152 13.1139 12.82 13.1022C12.82 13.1022 12.8363 13.0787 12.8481 13.0905C12.8598 13.1022 12.8761 13.1887 12.8996 13.2239C12.9511 13.2005 13.0494 12.9805 13.0494 12.9805L13.2859 12.3041V11.6862L13.1008 11.7214L11.7123 12.311L10.8696 13.1841L10.7714 13.3924H10.772Z"
    fill="#E6BD62" />
  <path fill-rule="evenodd" clip-rule="evenodd"
    d="M14.7696 10.3616C14.8447 10.3433 14.9167 10.3141 14.9833 10.2749C14.9552 10.3498 14.9552 10.4318 14.8335 10.6096C14.7118 10.7875 14.7071 10.8133 14.6089 10.9981C14.5106 11.19 14.4989 11.4662 14.4052 11.5878C14.4472 11.5674 14.4922 11.554 14.5385 11.5481C14.5385 11.5481 14.445 11.63 14.4052 11.7166C14.3654 11.8031 14.2952 11.9833 14.1221 12.0935C13.949 12.2036 13.7289 12.2737 13.4925 12.5335C13.256 12.7885 13.0127 13.1116 12.8909 13.2277C12.9541 13.1177 13.0407 12.8977 13.0641 12.7527C13.0876 12.6077 13.0593 12.4343 13.0991 12.2425C13.1389 12.0507 13.1389 11.9125 13.3306 11.5777C13.5222 11.243 13.8502 10.0799 13.8502 10.0799L14.5569 9.85522L14.7699 10.3608L14.7696 10.3616Z"
    fill="#B6933F" />
  <path fill-rule="evenodd" clip-rule="evenodd"
    d="M14.2594 9.93328C14.2594 9.93328 14.0465 10.2398 13.988 10.5114C13.9295 10.7829 13.9832 10.7594 13.9482 10.8929C13.9273 10.9743 13.9273 11.0596 13.9482 11.141C14.0219 11.0222 14.1229 10.9226 14.2427 10.8506C14.444 10.729 14.6079 10.6423 14.7055 10.5394C14.8038 10.4294 14.8857 10.2492 15.0986 10.1112C15.0121 10.0994 14.8904 10.0596 14.8672 10.0649C14.9539 9.9666 15.2136 9.8168 15.4757 9.6366C15.7355 9.45147 15.7191 9.3768 16.1405 9.19197C16.0024 9.21542 15.9368 9.18025 15.822 9.19197C15.8683 9.0937 16.0303 9.0468 16.1923 8.88543C16.3543 8.72405 16.0894 8.48523 16.0894 8.48523L14.8552 9.23178L14.2585 9.9339L14.2594 9.93328Z"
    fill="#C49937" />
  <path fill-rule="evenodd" clip-rule="evenodd"
    d="M10.9109 9.3762L10.939 9.15157L11.2924 8.58522L11.6622 7.59059V6.23079L11.6341 5.44444L11.6926 4.92946L11.737 4.76577L11.7839 4.70251L12.0857 4.85926L12.5024 5.42561L12.5422 6.51867L12.1372 8.24349L10.9811 9.50502L10.9109 9.3762Z"
    fill="#DFC068" />
  <path fill-rule="evenodd" clip-rule="evenodd"
    d="M11.8302 4.63922C11.8302 4.63922 11.6451 4.64401 11.6056 5.41401C11.5661 6.184 11.547 6.58883 11.5189 6.97036C11.4908 7.35188 11.4254 7.58346 11.3926 7.80824C11.3597 8.03302 11.341 8.33942 11.2358 8.52671C11.1895 8.61326 11.0906 8.88479 10.8589 9.08843C10.5991 9.31306 10.211 9.46996 10.1522 9.48169C10.0491 9.50498 9.52721 9.55651 9.31432 9.67361C9.23949 9.71341 9.11067 9.76016 8.96797 9.89361C8.68472 10.1486 8.30798 10.605 8.03645 11.155C7.61991 11.9765 7.20337 14.2958 7.20337 14.2958L7.29701 14.139C7.29701 14.139 7.30874 13.9307 7.51701 13.5656C7.72065 13.2005 7.66218 12.7909 7.94528 12.0911C8.05528 11.8244 8.19335 11.478 8.36182 11.1831C8.62872 10.7033 8.95161 10.2913 9.27698 10.0667C9.80815 9.70169 10.3933 9.62208 10.3933 9.62208L11.0229 9.20553C11.0229 9.20553 11.1329 8.99263 11.2781 8.74918C11.4816 8.40761 11.7409 8.02608 11.7975 7.47145C11.8842 6.64992 11.6758 6.11165 11.6875 5.6249C11.6993 5.13816 11.7039 4.78008 11.8023 4.69337C11.9007 4.60667 11.8304 4.63953 11.8304 4.63953L11.8302 4.63922Z"
    fill="#A88F33" />
  <path fill-rule="evenodd" clip-rule="evenodd"
    d="M11.8302 8.31366C11.8302 8.31366 12.1079 7.63021 12.235 7.02405C12.2585 6.90233 12.3052 6.78076 12.317 6.68248C12.3754 6.10903 12.3918 5.87268 12.317 5.55904C12.2585 5.32762 12.0339 5.11904 11.9168 4.95735C11.8021 4.78873 11.7483 4.72594 11.7718 4.69045C11.7952 4.65497 11.8864 4.59696 11.9752 4.6039C12.0697 4.60665 12.1626 4.62859 12.2483 4.66837C12.334 4.70815 12.4108 4.76495 12.4739 4.83532C12.6541 5.04359 12.7968 5.75049 12.7968 5.75049L12.9469 6.68326L13.3284 7.85808L11.8305 8.31459L11.8302 8.31366Z"
    fill="#C99E3D" />
  <path fill-rule="evenodd" clip-rule="evenodd"
    d="M14.4396 7.60233C14.4396 7.60233 14.3881 7.62563 14.2946 7.60233C14.2986 7.64054 14.2919 7.6791 14.2754 7.71378C14.2589 7.74846 14.2331 7.77791 14.2009 7.79888C14.1027 7.75908 13.1827 7.83868 13.1827 7.83868C13.1827 7.83868 12.7545 7.7637 12.621 7.19735C12.5275 6.82045 12.6912 6.301 12.6374 5.95927C12.5554 5.45602 12.4408 5.35759 12.4291 5.201C12.4174 5.04441 12.4056 5.00445 12.4056 4.90618C12.3541 4.89445 12.3237 4.8781 12.2723 4.8781C12.2606 4.83181 12.2839 4.79139 12.2325 4.70947C12.2606 4.7212 12.4525 4.74465 12.6772 4.95755C12.8623 5.1308 12.8623 5.1939 12.8902 5.22908C12.9252 5.2641 13.2085 5.50678 13.3302 5.74869C13.4519 5.99059 13.6883 6.76198 13.7421 6.88833C13.7585 6.93986 13.7937 6.99139 13.881 7.10833C14.0167 7.27696 14.2156 7.55574 14.4402 7.60202L14.4396 7.60233Z"
    fill="#B58634" />
  <path fill-rule="evenodd" clip-rule="evenodd"
    d="M12.9236 5.24078C13.0654 5.46981 13.1927 5.70745 13.305 5.95231C13.443 6.26349 13.5249 6.51866 13.6982 6.72694C13.6046 6.45556 13.4384 5.92192 13.3401 5.73231C13.2301 5.53175 13.0055 5.31576 12.9236 5.24094V5.24078Z"
    fill="#A88F33" />
  <path fill-rule="evenodd" clip-rule="evenodd"
    d="M11.3317 9.08847C11.3317 9.08847 11.0954 9.14694 10.6554 9.37867C10.5102 9.45349 10.3723 9.51659 10.2389 9.57522C9.8922 9.73196 9.5204 9.87683 9.22542 9.95675C9.24887 9.98482 9.26044 9.9964 9.26044 9.9964C9.26044 9.9964 9.26044 10.1112 9.32369 10.1766C9.28867 10.2118 8.82045 10.53 8.95868 11.5949C9.05217 11.5598 9.16217 11.5129 9.17852 11.5129C9.20675 11.5177 9.2137 11.5949 9.24872 11.5949C9.28374 11.5949 9.39852 11.5486 9.52024 11.3912C9.51561 11.4545 9.44542 12.091 9.82216 12.5193C9.89235 12.4374 10.0702 12.1658 10.0702 12.1658L10.0749 12.0793C10.0749 12.0793 10.0912 11.7774 10.1896 11.5012C10.2881 11.2251 10.4798 11.0214 10.4798 11.0214L11.4812 9.59142L11.3314 9.08832L11.3317 9.08847Z"
    fill="#E6C367" />
  <path fill-rule="evenodd" clip-rule="evenodd"
    d="M10.3953 11.1883C10.3494 11.2207 10.2989 11.2459 10.2455 11.2631C10.2291 11.2046 10.2057 11.0033 10.3437 10.8068C10.5053 10.5703 10.8586 10.2637 10.9568 10.0199C11.0201 9.86304 10.992 9.46994 11.5537 8.96669C12.1154 8.46344 12.3353 8.29034 12.3353 8.29034L13.2433 7.83398L14.3597 8.27398L13.8051 10.4478L13.3745 11.466L11.662 11.1431L10.3951 11.1883H10.3953Z"
    fill="#DCBA5A" />
  <path fill-rule="evenodd" clip-rule="evenodd"
    d="M11.0493 10.5979L11.2624 10.3312V10.1416C11.2624 10.1416 11.4987 10.0783 11.7537 9.8185C12.0088 9.5587 12.3622 9.06023 12.6735 9.09062C12.9849 9.1258 13.0152 9.76698 13.027 9.94733C13.0387 10.1277 13.0785 10.537 13.1416 10.7571C13.2118 10.9771 12.3833 11.8102 12.3833 11.8102L11.8207 12.2385L11.0493 10.5979Z"
    fill="#E9CE77" />
  <path fill-rule="evenodd" clip-rule="evenodd"
    d="M11.7089 12.8188C11.7089 12.8188 11.8821 12.5472 11.7551 12.4888C11.83 12.3203 11.968 12.1424 11.968 12.1424C11.968 12.1424 12.0663 11.8991 12.3846 11.5995C12.7029 11.2999 12.8996 11.1009 12.9511 10.8997C12.9829 10.7686 13.0001 10.6344 13.0026 10.4995C13.037 10.5276 13.0738 10.5527 13.1126 10.5743C13.1641 10.5978 13.4074 10.799 13.3724 11.2039C13.3374 11.6089 13.1873 11.7774 13.1873 11.7774C13.1873 11.7774 13.0423 11.9224 12.9394 11.9974C12.8292 12.0722 12.7896 12.1588 12.6046 12.1659C12.6236 12.1507 12.645 12.1389 12.6678 12.1307C12.6678 12.1307 12.4759 12.1074 12.3729 12.2009C12.2698 12.2944 12.0507 12.5824 11.9407 12.6691C11.8307 12.7393 11.7093 12.8189 11.7093 12.8189L11.7089 12.8188Z"
    fill="#CDAE50" />
  <path fill-rule="evenodd" clip-rule="evenodd"
    d="M19.4904 8.26665C19.2139 8.16587 18.9233 8.10903 18.6292 8.09817C18.1377 8.08182 17.4192 8.1099 16.7148 8.11453C15.9566 8.11916 15.2685 7.85472 14.3137 7.80798C14.1569 7.71433 13.7583 7.30473 12.5139 8.173C12.5887 8.16837 13.4174 7.98108 13.7051 8.34162C13.9953 8.6997 13.9133 9.30817 13.8737 9.45319C13.7987 9.77625 13.5553 10.2466 13.4572 10.5766C13.359 10.9066 13.3822 11.0801 13.312 11.3115C13.2418 11.5429 13.0874 11.6578 13.1785 11.9246C13.3003 11.8497 13.3637 11.8497 13.567 11.3934C13.7703 10.937 13.7285 10.6117 14.0656 10.2255C14.3956 9.83704 14.945 9.3057 15.1539 9.17225C15.3628 9.0388 17.0214 8.17763 18.758 8.99916C19.1769 8.95472 19.4905 8.26649 19.4905 8.26649L19.4904 8.26665Z"
    fill="#D2A83E" />
  <path fill-rule="evenodd" clip-rule="evenodd"
    d="M13.2133 7.94833C13.2116 7.93074 13.2077 7.91344 13.2017 7.8968C13.1855 7.86258 13.1642 7.831 13.1385 7.80316C13.1385 7.80316 12.7266 7.72833 12.5183 7.75163C12.1531 7.79143 11.8231 8.24316 11.6687 8.47488C11.5143 8.7066 11.3224 9.06453 11.1141 9.24951C11.1164 9.23149 11.1122 9.21324 11.1024 9.19798C11.1024 9.19798 11.1141 9.21433 11.0908 9.23778C11.0675 9.26123 11.0673 9.2728 11.0791 9.28407L11.1142 9.31909C11.1258 9.31909 11.4489 9.17391 11.8889 8.76369C12.3569 8.33541 12.715 8.11572 12.9023 8.04043C13.0022 7.99799 13.1066 7.96709 13.2135 7.94833H13.2133Z"
    fill="#C29637" />
  <path fill-rule="evenodd" clip-rule="evenodd"
    d="M21.2031 6.18866C21.2031 6.18866 21.1281 6.28215 21.0344 6.38521C20.8262 6.60521 20.5546 6.85313 20.3229 7.10831C20.1031 7.35176 19.855 7.54136 19.5764 7.85964C19.2978 8.17791 18.9747 8.53121 18.8929 8.63427C18.8181 8.73732 18.7596 8.9058 18.7596 8.99234C18.7198 8.96427 18.6731 8.93387 18.6731 8.93387C18.6928 8.97062 18.7163 9.00516 18.7433 9.03693C18.8018 9.11885 18.8929 9.22206 18.9398 9.28501C18.9974 9.36514 19.0387 9.45576 19.0614 9.55175C19.0895 9.55638 19.2697 9.59156 19.4945 9.22176C19.7192 8.85195 20.0139 8.44713 20.0139 8.44713L20.482 7.75195L20.7769 7.1623L21.1472 6.50231L21.2035 6.18866H21.2031Z"
    fill="#AC8132" />
  <path fill-rule="evenodd" clip-rule="evenodd"
    d="M21.6832 5.71594C21.6832 5.71594 21.3999 5.94736 21.2899 6.08621C21.1799 6.22506 20.9197 6.58946 20.9197 6.58946L21.0133 6.57774L21.4885 6.15656L21.6736 5.82656L21.683 5.71656L21.6832 5.71594Z"
    fill="#A88F33" />
  <path fill-rule="evenodd" clip-rule="evenodd"
    d="M21.5965 24.3149C21.5965 24.3149 21.5918 24.1229 21.6995 24.0083C21.8095 23.8935 22.088 23.7251 22.3595 23.0931C22.631 22.4612 22.6613 22.3185 22.6613 22.3185C22.6613 22.3185 22.1745 22.7351 21.8745 22.8333C21.9446 22.6882 21.9845 22.5853 22.0196 22.5103C21.9798 22.4753 21.8114 22.4355 21.795 22.4168C21.8885 22.3231 21.94 22.0937 22.1296 21.9416C22.3731 21.7565 22.8177 21.4384 23.1633 21.1548C23.5088 20.8712 24.1883 20.2117 24.275 20.0198C24.3265 20.0946 24.3381 20.1413 24.3381 20.1413C24.3381 20.1413 23.9965 20.5861 23.8186 20.8692C23.6617 21.1127 23.6735 21.2508 23.6735 21.2508L23.9965 21.1119C23.9965 21.1119 24.09 21.4583 23.6665 21.985C23.8516 21.9148 23.9263 21.9569 24.0315 21.8983C23.8583 22.0084 23.6196 22.1582 23.395 22.57C23.175 22.9819 22.8754 23.4617 22.37 23.7612C21.8785 24.0771 21.5952 24.3135 21.5952 24.3135L21.5965 24.3149Z"
    fill="#A67A2E" />
  <path fill-rule="evenodd" clip-rule="evenodd"
    d="M20.328 8.51038C20.328 8.51038 20.136 8.91042 20.108 9.22176C20.1033 9.29673 20.0845 9.3552 20.0845 9.44175C20.0799 9.72023 20.1009 10.0316 20.0382 10.1766C20.0148 10.1181 20.003 10.0783 19.9796 10.055C19.9446 10.1533 19.8813 10.4598 19.8298 10.5745C19.8065 10.4996 19.755 10.2398 19.7598 9.93328C19.7645 9.62673 19.7713 9.56811 19.7713 9.50501C19.7598 9.5985 19.6965 9.72501 19.6731 9.79983C19.638 9.73673 19.5982 9.65481 19.5513 9.58693C19.5233 9.63321 19.4882 9.70156 19.4578 9.73673C19.4531 9.70866 19.4415 9.63368 19.4344 9.52846C19.4298 9.40673 19.4227 9.24999 19.4298 9.21713C19.4413 9.15403 19.5398 8.90595 19.748 8.67885C19.9961 8.40732 20.2513 7.88556 20.3261 7.72403C20.4009 7.5625 20.7192 6.89093 20.7192 6.89093H20.9626L20.6092 7.69595C20.6092 7.69595 20.3963 8.13595 20.2863 8.29763C20.1763 8.45932 19.9446 8.92261 19.8415 9.10281C19.9163 9.00453 19.9796 8.953 20.0546 8.85936C20.1271 8.79379 20.3283 8.51069 20.3283 8.51069L20.328 8.51038Z"
    fill="#8C6228" />
  <path fill-rule="evenodd" clip-rule="evenodd"
    d="M21.6878 5.68542C21.648 5.80782 21.5852 5.92146 21.5026 6.02021C21.3575 6.19346 21.0461 6.42503 20.8942 6.60986C20.7553 6.79005 20.4776 7.28158 20.6038 7.86429C20.6501 7.73793 20.7373 7.48754 20.969 7.20429C21.2007 6.92103 21.4488 6.59582 21.5707 6.34311C21.6922 6.08793 21.7086 5.88676 21.7086 5.88676L21.7549 5.82829L21.7268 5.69484L21.687 5.68542H21.6878Z"
    fill="#CBA94C" />
  <path fill-rule="evenodd" clip-rule="evenodd"
    d="M26.4272 21.2091C26.4272 21.2091 26.3335 20.9541 26.3055 20.7224C26.2774 20.4906 26.3518 20.4447 26.2657 20.1795C26.2141 20.0179 26.1206 20.0406 26.0972 20.0179C26.0737 19.9952 26.0574 19.7512 26.062 19.6177C26.0666 19.4843 26.0574 19.3112 26.0339 19.2362C25.9989 19.2081 25.9755 19.1847 25.9239 19.0116C25.8655 18.8383 25.8374 18.7518 25.8093 18.7004C25.7812 18.649 25.6992 18.6021 25.6992 18.5506C25.6992 18.4475 25.7928 18.3938 25.7928 18.3655C25.7882 18.307 25.718 18.3539 25.6992 18.3374C25.6759 18.3093 25.7578 18.1408 25.7274 18.1174C25.7157 18.1058 25.6338 18.2041 25.6126 18.176C25.5892 18.1478 25.5611 17.8693 25.519 17.6845C25.4793 17.5043 25.4371 17.3733 25.4324 17.3195C25.4278 17.2679 25.1094 16.3599 25.0322 16.1399C24.9701 15.954 24.9178 15.7649 24.8755 15.5735C24.852 15.4635 24.8357 15.2387 24.824 15.2622C24.8122 15.2856 24.8193 15.4002 24.8005 15.3956C24.7842 15.3908 24.7257 14.9908 24.707 14.9275C24.6907 14.8643 24.5922 14.6498 24.5682 14.4946C24.5447 14.3377 24.4934 13.9281 24.4582 13.6497C24.423 13.3712 24.4067 13.2566 24.4067 13.1868C24.4124 13.0163 24.403 12.8455 24.3786 12.6766C24.3323 12.3817 24.2397 12.0236 24.1586 11.8155C24.0018 11.4222 23.5851 10.4158 23.5106 10.1655C23.5106 10.1022 23.5925 10.1374 23.5925 10.1374C23.5925 10.1374 23.796 10.6476 23.9458 11.0407C24.091 11.4339 24.2291 11.7803 24.2643 11.8155C24.2923 11.8505 24.5123 12.2366 24.6106 12.8686C24.7089 13.5005 24.7439 14.0832 24.8025 14.4716C24.8306 14.6568 24.854 14.8532 24.9125 15.0497C24.9756 15.2628 25.0739 15.4828 25.2027 15.8197C25.3127 16.103 25.3946 16.3393 25.4391 16.543C25.4906 16.8028 25.4906 16.9993 25.521 17.1282C25.5492 17.2382 25.5912 17.458 25.6896 17.7761C25.788 18.0942 25.9329 18.504 26.0312 18.759C26.2232 19.2692 26.3089 19.6952 26.3379 19.9223C26.3635 20.1563 26.4502 20.9661 26.4267 21.2094L26.4272 21.2091Z"
    fill="#A88F33" />
  <path fill-rule="evenodd" clip-rule="evenodd"
    d="M21.6995 5.6573L21.6878 5.68538C21.6878 5.68538 21.7228 5.6971 21.7159 5.744C21.7164 5.80817 21.7125 5.87229 21.7042 5.93592C21.6926 6.01784 21.6691 6.08094 21.6645 6.13247C21.6645 6.24247 21.6809 6.36882 21.5257 6.68247C21.4794 6.76902 21.4508 6.84385 21.4274 6.89537C21.3689 7.02173 21.3572 7.04055 21.3057 7.09902C21.3876 7.05274 21.6826 6.8676 21.8322 6.89537C21.7293 6.95385 21.5724 7.06863 21.4741 7.21843C21.4976 7.22306 21.5959 7.24188 21.7518 7.21843C22.0116 7.17863 22.3018 7.08498 22.5568 7.10365C22.8355 7.12 22.7255 6.76902 22.7255 6.76902L22.4039 6.06228L21.7955 5.63416L21.6995 5.65745V5.6573Z"
    fill="#BE9C44" />
  <path fill-rule="evenodd" clip-rule="evenodd"
    d="M23.2862 10.9514C23.2862 10.9514 23.0147 10.6798 22.9047 9.74799C22.7947 8.81184 22.8181 7.43383 22.8181 7.43383L22.5981 6.89556C22.5981 6.89556 22.5518 6.53748 22.4366 6.40418C22.3214 6.27089 22.095 6.0461 21.992 5.9361C21.8889 5.8261 21.772 5.6763 21.7018 5.65285C21.7368 5.59438 21.8937 5.26438 22.4951 5.25975C23.0964 5.25512 23.2819 5.58975 23.3447 5.71148C23.4074 5.8332 23.691 6.35944 23.7962 7.36225C23.8945 8.36382 23.8993 8.43879 23.8829 8.78515C23.8712 8.97707 23.8079 9.4217 23.6978 9.89672C23.5972 10.2994 23.4872 10.7488 23.2859 10.9523L23.2862 10.9514Z"
    fill="#A17C34" />
  <path fill-rule="evenodd" clip-rule="evenodd"
    d="M22.4348 11.7494C22.5253 11.756 22.6157 11.7356 22.6946 11.6908C22.7812 11.6862 23.0948 11.726 23.3358 11.4194C23.3521 11.4895 23.3944 11.6792 23.2843 11.8477C23.3429 11.7891 23.4294 11.7658 23.4412 11.7494C23.4458 11.836 23.5277 12.1027 23.1814 12.751C23.2749 12.6481 23.3849 12.6527 23.4831 12.641C23.4879 12.7627 23.5533 13.1722 23.3802 13.3923C23.2656 13.5421 23.0783 13.4952 23.0783 13.4952C23.081 13.4625 23.081 13.4297 23.0783 13.397C23.0737 13.3337 23.0502 13.2706 23.0667 13.2285C22.9762 13.1872 22.8938 13.1301 22.8233 13.0599C22.6196 12.8679 22.3552 12.5404 22.3366 12.297C22.3131 12.0254 22.5565 11.967 22.5565 11.967C22.5362 11.9487 22.5188 11.9274 22.505 11.9037C22.4933 11.8641 22.4816 11.8008 22.4348 11.7494Z"
    fill="#8C6228" />
  <path fill-rule="evenodd" clip-rule="evenodd"
    d="M20.6298 8.80522C20.6298 8.80522 20.618 8.78886 20.5549 8.86369C20.5667 8.78886 20.5784 8.71851 20.583 8.65063C20.6129 8.58778 20.6515 8.5295 20.6978 8.47753C20.6626 8.54757 20.6392 8.61083 20.6392 8.61083C20.6392 8.61083 20.7259 8.4493 20.8522 8.35102C20.9388 8.28083 21.0488 8.24812 21.0955 8.18255C21.147 8.11236 21.1353 8.10063 21.147 8.08891C21.147 8.08891 21.2618 8.01408 21.4374 7.79393C21.4607 7.76585 21.4959 7.73546 21.5193 7.70738C21.559 7.69103 21.6526 7.64891 21.7626 7.5926C21.8774 7.5295 22.006 7.44295 22.0856 7.40746C22.2424 7.33727 22.4087 7.34436 22.4858 7.23421C22.5443 7.21786 22.6074 7.04229 22.5958 6.89264C22.6824 6.92766 23.127 7.20382 23.2793 7.80766C23.3893 8.23593 23.1926 8.89593 23.1107 9.21436C23.0287 9.53279 23.0172 9.76899 22.9024 9.91401C22.7572 10.1061 22.2893 10.3768 22.1745 10.5109C22.0762 10.6209 21.7814 10.8994 21.793 11.1006C21.8047 11.2504 21.9895 11.332 22.0295 11.3604C22.0694 11.3887 22.0691 11.4236 22.1441 11.4066C22.2191 11.3897 22.247 11.3551 22.2776 11.3551C22.3126 11.3597 22.3126 11.3668 22.3289 11.3668C22.3408 11.3665 22.3526 11.3649 22.3641 11.3621C22.3641 11.3621 22.3524 11.5751 21.8539 11.6398C21.8188 11.6445 21.7837 11.6561 21.7391 11.6632C21.7978 11.6351 21.8328 11.6351 21.896 11.5486C21.8258 11.5369 21.6245 11.5251 21.573 11.5088C21.5893 11.4807 21.6432 11.4057 21.6876 11.3707C21.7274 11.3357 21.683 11.3244 21.648 11.3426C21.5877 11.3836 21.5298 11.4282 21.4747 11.4759C21.4162 11.5274 21.3647 11.5976 21.2711 11.661C21.243 11.5674 21.2476 11.3895 21.3578 11.2609C21.3295 11.2655 21.2757 11.3474 21.2243 11.331C21.215 11.2457 21.2206 11.1594 21.2407 11.0759C21.2688 10.9705 21.4209 10.7857 21.4209 10.7857L22.1557 9.47262L22.3124 8.47799L20.6298 8.80491V8.80522Z"
    fill="#92723A" />
  <path fill-rule="evenodd" clip-rule="evenodd"
    d="M20.5904 8.86132C20.5904 8.86132 20.5506 8.8894 20.6302 8.94325C20.6185 8.9596 20.5904 9.01807 20.5552 9.05787C20.5156 9.10416 20.4733 9.13285 20.457 9.17266C20.4219 9.25458 20.3939 9.31073 20.3939 9.34591C20.3939 9.38109 20.3821 9.60571 20.2839 9.75073C20.2487 9.80226 20.2089 9.88881 20.1808 9.94728C20.1223 10.0502 20.0708 10.1324 20.0591 10.1787C20.0358 10.2606 20.0194 10.4852 20.0194 10.4852C20.0194 10.4852 20.071 10.422 20.0896 10.3987C20.0614 10.4572 20.031 10.5203 19.9866 10.5672C20.0147 10.5437 20.0966 10.4852 20.2346 10.3635C20.4266 10.2021 20.7262 9.93062 21.0913 9.71556C20.9812 9.75536 20.8877 9.75536 20.8129 9.76709C20.8713 9.70862 21.3979 9.09074 21.674 9.03226C21.6908 9.011 21.6991 8.98431 21.6975 8.95728L21.461 8.93399L20.9812 9.03689L20.9111 8.66663L20.5904 8.86086V8.86132Z"
    fill="#B18E3E" />
  <path fill-rule="evenodd" clip-rule="evenodd"
    d="M21.3531 10.9677C21.3531 10.9677 21.2899 11.0308 21.2314 11.1877C21.1864 11.1407 21.1478 11.0879 21.1166 11.0308C21.0301 10.8858 20.8968 10.7008 20.5854 10.8062C20.5808 10.7079 20.5737 10.6564 20.5854 10.5862C20.637 10.5746 20.7937 10.4483 20.9504 10.2633C21.0606 10.1369 21.1635 9.99175 21.2337 9.80693C21.28 9.77175 21.36 9.71328 21.4651 9.6454C21.6149 9.54249 21.7951 9.40195 21.8232 9.2452C21.753 9.27328 21.6032 9.34348 21.3784 9.33191C21.4651 9.2921 21.5984 9.24998 21.5821 9.07673C21.6172 9.05328 21.6453 9.03693 21.6453 9.03693C21.6189 9.02813 21.5912 9.02416 21.5634 9.0252C21.5586 9.00885 21.5517 8.98555 21.5119 8.99712C21.4721 9.00869 21.4656 9.00885 21.4603 9.0252C21.444 9.02998 21.3901 9.0252 21.3503 9.05343C21.3105 9.08167 21.2005 9.17501 21.1584 9.19136C21.1748 9.16328 21.1981 9.12132 21.1981 9.12132C21.1981 9.12132 21.0834 9.13289 21.0015 9.1676C20.8517 9.21913 20.6786 9.31277 20.5031 9.40395C20.5194 9.37587 20.5265 9.35767 20.5381 9.35242C20.5496 9.34718 20.5779 9.34085 20.5779 9.33607C20.5779 9.33129 20.5663 9.28979 20.5732 9.27297C20.6257 9.16177 20.6877 9.05529 20.7584 8.9547C20.8403 8.84454 20.8566 8.6878 20.8566 8.6878L21.2147 8.5076L22.2211 8.27618L22.8741 8.31599L22.7922 8.76771L22.4065 9.55638L22.0765 10.2748L21.6996 10.715L21.3533 10.9677H21.3531Z"
    fill="#543E26" />
  <path fill-rule="evenodd" clip-rule="evenodd"
    d="M22.9843 9.01286C22.9843 9.01286 22.591 9.4996 22.481 9.57458C22.5512 9.42478 22.9843 8.53305 23.141 8.28498C23.106 8.2569 23.0591 8.2569 23.1691 7.82214C23.0756 8.04199 23.0428 8.15677 22.9656 8.21524C22.8885 8.27371 22.8789 8.25505 22.8268 8.25505C22.8366 8.23723 22.8407 8.21679 22.8383 8.19657C22.8383 8.19657 22.5083 8.15677 22.283 8.15677C22.0576 8.15677 21.6114 8.2785 21.3632 8.37677C21.1666 8.45869 21.0566 8.45869 20.9864 8.51007C20.9162 8.56854 20.8764 8.63179 20.8412 8.64814C20.8132 8.6645 20.6799 8.70662 20.6493 8.75105C20.6213 8.79733 20.5745 8.84932 20.5745 8.86105C20.5745 8.87277 20.5628 8.88928 20.598 8.8774C20.6095 8.87277 20.6962 8.82587 20.7945 8.7674C20.9278 8.69258 21.0893 8.60603 21.2064 8.5545C21.541 8.42105 21.6464 8.4445 21.7961 8.41642C21.9528 8.38834 22.1776 8.32277 22.3272 8.32277C22.477 8.31815 22.7603 8.32277 22.8258 8.3345C22.7978 8.35795 22.7743 8.38603 22.786 8.4843C22.786 8.51238 22.7626 8.54277 22.7398 8.61066C22.6697 8.80258 22.5363 9.12085 22.4621 9.28238C22.3592 9.50223 22.2422 9.6872 22.1844 9.80183C22.1265 9.91646 21.9992 10.2184 21.8732 10.3799C21.7472 10.5414 21.6813 10.6397 21.6418 10.6749C21.6023 10.7101 21.3187 10.9182 21.3399 10.9932C21.3914 10.9768 21.7168 10.8543 21.953 10.5883C22.1892 10.3224 22.2362 10.1601 22.421 10.0149C22.6058 9.86971 22.751 9.62642 22.8376 9.42524C22.9101 9.23795 22.8937 9.17948 22.9849 9.01332L22.9843 9.01286Z"
    fill="#806031" />
  <path fill-rule="evenodd" clip-rule="evenodd"
    d="M14.5096 12.6457C14.5096 12.6457 14.4581 12.8586 14.341 12.9639C14.2264 13.067 14.0227 13.1559 13.9994 13.3291C13.9714 13.5022 14.2031 13.5889 14.2031 13.5889C14.2031 13.5889 14.0766 13.7972 14.0766 13.9539C14.0766 14.1155 14.0719 14.1459 14.0883 14.3003C14.0697 14.3122 14.054 14.328 14.042 14.3466C14.042 14.3466 14.0536 14.4964 14.1684 14.5899C14.2831 14.6834 14.3813 14.7397 14.4397 14.7162C14.4487 14.7353 14.4565 14.7549 14.4632 14.7748C14.4632 14.7748 14.5499 14.5548 14.6084 14.3629C14.6668 14.1664 14.7184 14.1943 14.7416 13.9299C14.7649 13.6654 15.0193 13.2114 15.0193 13.2114L15.1929 12.8234L14.9098 12.6034L14.5096 12.6455V12.6457Z"
    fill="#B6903C" />
  <path fill-rule="evenodd" clip-rule="evenodd"
    d="M15.037 13.0272C14.9786 13.0871 14.9247 13.1512 14.8758 13.2191C14.8009 13.3221 14.7425 13.4156 14.6325 13.4556C14.5225 13.4955 14.4523 13.4952 14.4592 13.6054C14.4662 13.7155 14.5692 13.7621 14.6277 13.8183C14.6909 13.8768 14.7425 13.975 14.7144 14.0852C14.7494 14.0688 14.8127 14.05 14.8711 13.9237C14.9296 13.7973 15.3386 13.0273 15.3386 13.0273H15.037V13.0272Z"
    fill="#685026" />
  <path fill-rule="evenodd" clip-rule="evenodd"
    d="M16.6497 11.2509C16.6497 11.2509 16.6848 11.1574 16.6497 11.0895C16.6146 11.0193 16.4017 10.9959 16.2963 10.9162C16.1863 10.8343 16.0528 10.7774 15.9429 10.8133C15.9592 10.7735 16.0248 10.6868 15.9709 10.6682C15.9194 10.6518 15.7276 10.7384 15.6761 10.7782C15.6246 10.818 15.5075 10.8647 15.4842 10.893C15.4609 10.9212 15.4209 10.9749 15.3975 10.9514C15.374 10.9351 15.3625 10.893 15.3227 10.9162C15.2829 10.9395 15.0913 11.0964 15.0559 11.1878C15.0206 11.2791 14.9411 11.4828 14.7025 11.7143C14.4638 11.9459 14.3608 12.0959 14.431 12.1824C14.5012 12.269 14.534 12.2059 14.5457 12.2807C14.5548 12.3541 14.5508 12.4286 14.534 12.5007C14.5059 12.6224 14.4592 12.737 14.5223 12.7605C14.6838 12.812 14.8407 12.7142 14.8757 12.7441C14.9459 12.8072 14.8359 13.0343 15.0021 13.0788C15.1707 13.125 15.3369 13.039 15.3369 13.039L15.9499 12.709L16.5397 12.3978L16.8415 11.8009L16.6797 11.3024L16.6488 11.2509H16.6497Z"
    fill="#D4B968" />
  <path fill-rule="evenodd" clip-rule="evenodd"
    d="M16.0705 12.6763C16.0705 12.6763 15.9674 12.5195 16.0939 12.3813C16.2204 12.243 16.4004 12.1847 16.4706 12.0982C16.4573 12.0817 16.4394 12.0695 16.4191 12.0632C16.4657 11.9798 16.5368 11.9127 16.6228 11.8711C16.5877 11.8361 16.5408 11.808 16.4895 11.808C16.3747 11.808 16.3043 11.8782 16.1991 11.8782C16.0962 11.8782 16.0845 11.8267 16.0845 11.8267C16.0845 11.8267 16.2577 11.8103 16.2412 11.733C16.2249 11.6511 16.195 11.6511 16.195 11.6511C16.195 11.6511 16.5296 11.5122 16.588 11.4382C16.6465 11.3641 16.6396 11.2767 16.6513 11.2416C16.691 11.2416 16.9227 11.1199 17.0163 11.1714C17.11 11.223 17.0444 11.3634 17.0444 11.3634C17.0444 11.3634 17.3278 11.1503 17.4722 10.9414C17.5985 10.9531 17.6573 10.8549 17.7499 10.8549C17.8647 10.8549 18.0449 11.0116 18.0799 11.3462C18.1033 11.5382 18.1384 11.6482 18.1033 11.9876C18.087 12.1795 18.0916 12.5892 18.1496 12.7926C18.1893 12.9541 18.2829 12.9378 18.2829 12.9378C18.2685 12.987 18.2401 13.0309 18.201 13.0641C18.1377 13.1226 18.1308 13.2772 18.1377 13.3356C18.1471 13.3784 18.1588 13.4206 18.1729 13.462C18.1729 13.462 18.0981 13.5485 18.0793 13.6072C18.0629 13.6656 17.9858 13.7054 17.9295 13.7054C17.8732 13.7054 17.9014 13.7007 17.8266 13.7054C17.7517 13.7102 17.7283 13.7218 17.6814 13.7054C17.6345 13.6891 17.5995 13.6703 17.6183 13.5203C17.6347 13.3705 17.0402 13.0218 17.0402 13.0218L16.0683 12.6755L16.0705 12.6763Z"
    fill="#CCA849" />
  <path fill-rule="evenodd" clip-rule="evenodd"
    d="M14.9546 14.1552C14.9546 14.1552 15.1675 14.4385 16.0429 14.4385C16.4594 14.4385 16.6046 14.3987 16.6908 14.3752C16.7845 14.3518 17.1355 14.2139 17.4889 13.7972C17.8072 13.4204 17.737 13.266 17.737 13.266L17.5518 13.2379L16.9502 13.3198L15.1698 14.0781L14.9539 14.1552H14.9546Z"
    fill="#585136" />
  <path fill-rule="evenodd" clip-rule="evenodd"
    d="M15.6071 14.2253C15.6071 14.2253 14.8489 14.394 14.8489 13.9142C14.8489 13.4461 15.3169 12.9545 15.434 12.868C15.5558 12.7813 15.846 12.6829 15.846 12.6829H16.5457L16.679 13.0363L16.6206 13.7992L15.6071 14.2252V14.2253Z"
    fill="#252211" />
  <path fill-rule="evenodd" clip-rule="evenodd"
    d="M16.3069 12.8261C16.3069 12.8261 16.1619 12.6926 15.8319 12.8724C15.5019 13.0521 15.235 13.4278 15.2186 13.7689C15.2023 14.0707 15.4667 14.2954 15.8786 14.3072C16.1851 14.3187 16.3701 14.2837 16.4638 14.2609C16.4403 14.2328 16.3186 14.0807 16.3186 14.0807L16.307 12.8263L16.3069 12.8261Z"
    fill="#C3B378" />
  <path fill-rule="evenodd" clip-rule="evenodd"
    d="M16.1642 12.9006C16.1642 12.9006 16.1292 12.8726 16.0254 12.9287C15.9388 12.975 15.8125 13.0973 15.7142 13.1839C15.6509 13.2354 15.6111 13.2587 15.5753 13.2985C15.4302 13.4718 15.3084 13.755 15.3788 13.8954C15.4491 14.0358 15.6807 14.1973 16.2705 14.0873L16.1625 12.9008L16.1642 12.9006Z"
    fill="#E6D89C" />
  <path fill-rule="evenodd" clip-rule="evenodd"
    d="M15.9725 13.1909C15.9725 13.1909 15.8788 13.3361 15.8788 13.5678C15.8788 13.8042 16.0123 14.1809 16.5038 14.209C16.8805 14.2325 17.1333 13.6661 17.4071 13.4461C17.6154 13.2776 17.7417 13.2729 17.7417 13.2729C17.7417 13.2729 17.5288 13.0414 16.9602 12.7417C16.3984 12.4398 15.7688 12.4 15.4271 12.8634C15.5887 12.8517 16.1106 12.7182 16.1106 12.7182L16.3657 12.8002L15.9725 13.1911V13.1909Z"
    fill="#252211" />
  <path fill-rule="evenodd" clip-rule="evenodd"
    d="M16.7075 13.4975C16.6912 13.4625 16.6794 13.4156 16.7473 13.4041C16.8152 13.3925 16.8456 13.3993 16.8691 13.4503C16.8925 13.5014 16.9153 13.544 16.8806 13.5651C16.8456 13.5838 16.7543 13.5651 16.7074 13.4972L16.7075 13.4975ZM16.5975 13.1675C16.5975 13.1675 16.5741 13.1839 16.5858 13.1512C16.5904 13.1115 16.621 13.0412 16.6958 13.0577C16.7706 13.0742 16.7544 13.156 16.7421 13.1794C16.7297 13.2029 16.6673 13.2425 16.6204 13.2257C16.6144 13.2242 16.6089 13.2213 16.6043 13.2172C16.5997 13.2132 16.5961 13.2081 16.5938 13.2024C16.5915 13.1967 16.5906 13.1906 16.5911 13.1845C16.5917 13.1783 16.5937 13.1724 16.5969 13.1672L16.5975 13.1675Z"
    fill="#6F674D" />
  <path fill-rule="evenodd" clip-rule="evenodd"
    d="M10.2629 13.3172C10.2629 13.3172 10.4481 13.4561 10.6631 13.4507C10.876 13.4459 11.1499 13.2261 11.2762 13.0855C11.351 13.0036 11.4151 12.917 11.4845 12.8492C11.5431 12.7907 11.5828 12.7626 11.6108 12.7228C11.6506 12.6765 11.6928 12.5895 11.7139 12.5613C11.6624 12.6011 11.5875 12.6714 11.5103 12.7182C11.4354 12.7645 11.2739 12.8515 11.2083 12.8749C11.1452 12.8984 10.4899 13.2452 10.4899 13.2452L10.2629 13.3172Z"
    fill="#AC924C" />
  <path fill-rule="evenodd" clip-rule="evenodd"
    d="M10.5454 11.5879C10.5454 11.5879 10.6483 11.5177 10.8473 11.4731C11.0392 11.4268 11.4254 11.3912 11.4254 11.3912L11.7437 11.53L11.87 12.0098L11.6386 12.5085L11.3438 12.6936L11.009 12.1553L10.5462 11.5888L10.5454 11.5879Z"
    fill="#9F8E57" />
  <path fill-rule="evenodd" clip-rule="evenodd"
    d="M10.1286 12.0161L10.0184 12.0983C10.0184 12.0983 10.0467 12.0468 10.07 11.8901C10.0933 11.7333 10.2151 11.3518 10.393 11.1318C10.5709 10.9118 10.5663 10.9235 10.5663 10.9235C10.5499 10.9205 10.5331 10.9211 10.5169 10.9251C10.5008 10.9291 10.4857 10.9365 10.4726 10.9468C10.4961 10.895 10.6459 10.7098 10.7957 10.6173C10.9455 10.5247 11.0039 10.4956 11.1607 10.571C11.3174 10.6464 11.3572 10.6856 11.472 10.681C11.5868 10.6764 11.6849 10.5546 11.6849 10.5546C11.6849 10.5546 11.7084 10.6295 11.6218 10.8027C11.5353 10.976 11.1935 11.3293 11.1935 11.3293L10.482 11.816L10.1286 12.0166V12.0161Z"
    fill="#EAC970" />
  <path fill-rule="evenodd" clip-rule="evenodd"
    d="M10.6553 11.5294C10.6553 11.5294 11.1703 11.5996 11.327 11.4546C11.3316 11.471 11.3504 11.471 11.3504 11.4827C11.3492 11.4915 11.3451 11.4997 11.3387 11.506C11.3558 11.5033 11.373 11.5017 11.3902 11.5014C11.4109 11.5075 11.4321 11.5114 11.4535 11.5131C11.4708 11.5127 11.488 11.5111 11.505 11.5083C11.5034 11.5199 11.4994 11.5311 11.4934 11.5412C11.4874 11.5513 11.4794 11.56 11.4699 11.5669C11.4933 11.5669 11.5161 11.5716 11.5161 11.5902C11.5161 11.6089 11.5208 11.6652 11.4927 11.6769C11.4694 11.6834 11.4447 11.6817 11.4225 11.6721C11.4243 11.7165 11.4364 11.7597 11.4577 11.7986C11.5039 11.8852 11.6027 11.9838 11.7354 11.9554C11.7354 11.9554 11.8054 12.1239 11.5106 12.4983C11.4709 12.5498 11.4287 12.62 11.3773 12.6785C11.357 12.7227 11.3415 12.769 11.331 12.8166C11.331 12.8166 11.8296 12.6246 11.9723 12.187C12.1175 11.747 12.1456 11.3141 12.1175 10.9092C12.1127 10.7945 12.0941 10.7127 12.066 10.6541C11.9958 10.5089 11.7991 10.5323 11.7196 10.6143C11.6048 10.729 11.4129 11.0145 11.1462 11.211C10.8747 11.4076 10.8631 11.4424 10.6547 11.5294H10.6553Z"
    fill="#D7BC6B" />
  <path fill-rule="evenodd" clip-rule="evenodd"
    d="M10.038 12.1615C10.038 12.1615 9.93971 12.2199 9.88818 12.4392C9.83665 12.6638 9.93446 12.9376 9.99108 13.0242C10.0477 13.1107 10.1762 13.3472 10.4428 13.359C10.5088 13.3586 10.574 13.3451 10.6347 13.3192C10.7278 13.2765 10.8151 13.2222 10.8945 13.1576C11.0093 13.0711 11.1028 12.9963 11.0911 12.9892C11.063 12.9774 10.3843 12.4157 10.3843 12.4157L10.1292 12.1309L10.0378 12.1618L10.038 12.1615Z"
    fill="#585136" />
  <path fill-rule="evenodd" clip-rule="evenodd"
    d="M10.679 13.0927C10.679 13.0927 10.8171 13.0811 10.899 13.0296C10.9809 12.9781 10.4192 12.4211 10.4192 12.4211L10.459 13.0228L10.679 13.0927Z"
    fill="#453A25" />
  <path fill-rule="evenodd" clip-rule="evenodd"
    d="M10.082 12.1191C10.082 12.1191 10.0118 12.2525 10.0118 12.2877C10.0001 12.4024 10.0353 12.7627 10.0634 12.8774C10.0914 12.9991 10.2436 13.1839 10.4403 13.1839C10.5618 13.1839 10.7305 13.1091 10.7305 13.0904C10.7305 13.067 10.5572 13.0441 10.5105 12.957C10.4824 12.9107 10.4707 12.7956 10.4642 12.6793C10.4595 12.6045 10.4595 12.5225 10.4876 12.4941C10.5509 12.424 10.5624 12.2226 10.5624 12.2226L10.7871 11.8053H10.4916L10.1382 12.0253L10.082 12.1191Z"
    fill="#84754B" />
  <path fill-rule="evenodd" clip-rule="evenodd"
    d="M9.99536 12.2479C9.99536 12.2479 10.2268 11.9414 10.4354 11.871C10.6439 11.8007 10.7373 11.8429 10.7373 11.8429L10.6155 12.1543L10.4423 12.3462L10.454 12.4445C10.454 12.4445 10.4258 12.7043 10.599 12.8845C10.7723 13.0647 10.901 13.0577 10.9759 13.0577C11.0509 13.0577 11.2661 12.9945 11.3761 12.7347C11.4744 12.4914 11.5563 12.1793 11.3598 11.8664C11.1677 11.5551 10.8284 11.543 10.7629 11.543C10.6973 11.543 10.1825 11.5688 9.99536 12.2475V12.2479Z"
    fill="#252211" />
  <path fill-rule="evenodd" clip-rule="evenodd"
    d="M15.9371 13.2894C15.8506 13.2496 15.9325 13.0063 16.019 12.9313C16.1056 12.8563 16.2156 12.7699 16.4076 12.758C16.4777 12.7534 16.5456 12.7978 16.534 12.8447C16.5176 12.9313 16.3959 13.053 16.2859 13.1396C16.1338 13.259 16.0354 13.3338 15.9371 13.2894Z"
    fill="#F7F7E7" />
  <path fill-rule="evenodd" clip-rule="evenodd"
    d="M11.2567 11.9623C11.32 11.9577 11.4019 12.0086 11.4183 12.0771C11.4346 12.1519 11.3785 12.3017 11.2567 12.3017C11.1585 12.3017 11.1069 12.18 11.1069 12.145C11.108 12.1162 11.1161 12.0881 11.1304 12.0631C11.135 12.056 11.1467 11.9741 11.2567 11.9623Z"
    fill="#F8F6DE" />
  <path fill-rule="evenodd" clip-rule="evenodd"
    d="M10.3441 12.0162C10.3441 12.0162 10.1825 12.091 10.1077 12.2476C10.0543 12.3632 10.0381 12.4926 10.0614 12.6179C10.0732 12.6763 10.1316 12.8213 10.1714 12.8729C10.2112 12.9244 10.2651 12.9596 10.3049 12.9548C10.3447 12.95 10.4264 12.8448 10.4264 12.7817C10.4264 12.7186 10.4312 12.4517 10.5084 12.3065C10.5762 12.1615 10.3445 12.0163 10.3445 12.0163L10.3441 12.0162Z"
    fill="#D4C38B" />
  <path fill-rule="evenodd" clip-rule="evenodd"
    d="M10.3675 12.0045C10.3395 12.0208 10.2927 12.0443 10.3043 12.0747C10.316 12.1028 10.4143 12.121 10.4495 12.1895C10.4893 12.2597 10.4893 12.3345 10.4775 12.3697C10.5081 12.3551 10.5359 12.3353 10.5595 12.311C10.611 12.2526 10.6741 12.1731 10.7279 12.1731C10.7631 12.1731 10.7981 12.1895 10.831 12.1895C10.8825 12.1895 10.9339 12.1731 10.941 12.1193C10.9526 12.0491 10.8427 11.9858 10.7795 11.9975C10.7912 11.9513 10.8075 11.8829 10.756 11.836C10.7045 11.7891 10.5431 11.8712 10.5079 11.8946C10.4728 11.9181 10.3675 12.0046 10.3675 12.0046V12.0045Z"
    fill="#E2D59D" />
  <path fill-rule="evenodd" clip-rule="evenodd"
    d="M14.086 16.9217L14.4323 16.8194L14.5306 16.8896C14.5306 16.8896 14.6006 17.0394 14.7108 17.0581C14.6756 17.1329 14.5843 17.1969 14.5891 17.25C14.5939 17.3031 14.6406 17.3436 14.6406 17.3436C14.6406 17.3436 14.3293 17.8585 14.9425 18.3773C14.7973 18.4358 14.6125 18.5161 14.5143 18.5624C14.5843 18.5788 14.7341 18.6087 14.7973 18.6655C14.8606 18.7223 14.8606 18.7403 14.9191 18.7755C14.9775 18.8107 15.0126 18.8574 15.001 18.8784C14.9612 18.8549 14.8277 18.7849 14.8044 18.8503C14.7811 18.9157 14.2264 18.8901 14.2264 18.8901L13.2902 19.0703C13.2902 19.0703 13.3253 18.9767 13.227 18.8901C13.1124 18.7872 12.972 18.8947 12.8222 18.7801C12.6256 18.6303 12.6185 18.4571 12.5554 18.3916C12.6185 18.3518 12.7473 18.2934 13.0539 18.2528C13.0422 18.2293 13.0024 18.1591 13.0258 18.096C13.0539 18.0141 13.1708 17.9626 13.1358 17.8646C13.1873 17.8529 13.2106 17.8529 13.3394 17.6914C13.4612 17.5298 13.536 17.4948 13.6296 17.4831C13.7233 17.4714 13.7794 17.4831 13.9527 17.3216C14.0743 17.2069 14.0346 17.1087 14.0346 17.1087C14.0346 17.1087 14.1141 17.0829 14.0861 16.9214L14.086 16.9217Z"
    fill="#CBAC5A" />
  <path fill-rule="evenodd" clip-rule="evenodd"
    d="M13.0636 16.9736C13.0683 16.9501 13.0871 16.9384 13.2134 16.9501C13.3398 16.9619 14.1402 16.8753 14.3578 16.8636C14.5778 16.8472 15.3525 16.8588 15.7294 16.9384C16.1062 17.018 16.4876 17.1117 16.6724 17.1584C16.8576 17.2099 16.9159 17.2284 16.9088 17.2519C16.9042 17.2753 16.8625 17.2982 16.8386 17.2917C16.8153 17.2871 16.2021 17.0998 16.0126 17.0603C15.8232 17.0208 15.1676 16.9151 14.8093 16.9214C14.4746 16.9262 14.3412 16.9168 14.0581 16.9495C13.7748 16.9847 13.3068 17.0314 13.1664 17.0128C13.0275 16.9964 13.0562 16.9964 13.0633 16.973L13.0636 16.9736Z"
    fill="#D6BC6F" />
  <path fill-rule="evenodd" clip-rule="evenodd"
    d="M14.9475 18.808C14.9475 18.808 15.4273 19.0678 15.6006 19.386C15.7269 19.6224 15.5258 19.7395 15.5258 19.7395C15.5258 19.7395 15.7973 19.7395 15.7621 19.8893C15.7457 19.9828 15.294 20.2355 14.9921 20.3689C14.6856 20.5024 14.6973 20.4954 14.5475 20.5187C14.4023 20.5422 14.0044 20.4725 13.9225 20.5889C13.8406 20.7054 13.8762 20.8254 13.8991 20.8441C13.9225 20.8605 14.1121 20.8839 14.1121 20.8839C14.1121 20.8839 14.0723 20.9939 13.6792 21.0056C13.2861 21.0174 13.1877 21.0453 13.1643 21.0876C13.1408 21.1272 13.2391 21.1039 13.4194 21.1338C13.5996 21.1619 13.8523 21.1801 13.8523 21.1801C13.8523 21.1801 13.7704 21.2503 13.5575 21.3065C13.3141 21.3696 12.9325 21.4282 12.8179 21.4984C12.8764 21.5382 12.9631 21.5967 13.003 21.6013C12.9048 21.6248 12.7665 21.6763 12.7432 21.695C12.7783 21.7184 12.8252 21.7465 12.8252 21.7465C12.8252 21.7465 12.6285 21.9828 12.5138 22.0415C12.3992 22.1001 11.7392 22.4065 11.5121 22.348C10.9458 22.1982 10.8756 21.578 10.7375 21.5313C10.5292 21.4611 10.431 21.6013 10.246 21.503C10.3279 21.4446 10.3725 21.4095 10.4591 21.3697C10.3654 21.3235 9.88098 21.0163 9.88098 21.0163C9.83032 20.9059 9.7741 20.7981 9.71251 20.6934C9.61887 20.5319 9.4811 20.3165 9.37774 20.1269C9.15311 19.7103 9.14139 19.5184 8.93774 19.2821C8.97292 19.2358 9.09449 19.2423 9.09449 19.2423L10.8008 19.804L13.8263 19.8916L14.6131 18.7683L14.9477 18.8081L14.9475 18.808Z"
    fill="#DFC677" />
  <path fill-rule="evenodd" clip-rule="evenodd"
    d="M10.4658 20.521C10.4841 20.5413 10.5054 20.5587 10.5289 20.5726C10.5875 20.6124 10.6741 20.6593 10.7326 20.7293C10.756 20.6943 10.8145 20.631 10.9177 20.7293C11.0209 20.8276 11.1491 20.7575 11.2289 20.7808C11.3108 20.8091 11.3154 20.8206 11.3154 20.8206C11.3154 20.8206 11.3617 20.7808 11.4652 20.7387C11.5285 20.7153 11.6033 20.6989 11.6852 20.6756C11.76 20.6593 11.842 20.6358 11.8983 20.6358C11.9498 20.6708 12.1346 20.8672 12.8765 20.5773C13.5763 20.3058 13.7377 20.2754 13.8548 20.3174C13.8665 20.2893 13.8782 20.2355 14.0584 20.2426C14.0584 20.1677 13.9086 19.9126 13.9086 19.9126L13.0825 19.6295H12.6306L11.2756 19.8775L10.5248 20.306L10.4663 20.522L10.4658 20.521Z"
    fill="#C4A859" />
  <path fill-rule="evenodd" clip-rule="evenodd"
    d="M10.014 20.046C10.014 20.046 10.0304 20.1723 10.2177 20.3058C10.4028 20.4391 10.461 20.5187 10.461 20.5187C10.461 20.5187 10.4961 20.4724 10.5242 20.4252C10.5523 20.3737 10.5758 20.3152 10.6225 20.2989C10.7161 20.259 10.929 20.3339 10.9759 20.3221C11.0157 20.3106 11.004 20.2287 11.0461 20.2287C11.1444 20.2239 11.2075 20.2918 11.2427 20.2918C11.2779 20.2918 11.3643 20.2871 11.376 20.2685C11.3877 20.2498 11.3923 20.0554 11.5258 19.9618C11.671 19.8588 11.8488 19.9033 11.896 19.9267C11.896 19.9618 11.9007 20.0485 11.9943 20.0531C12.088 20.0577 12.0972 20.0414 12.1794 20.0694C12.2617 20.0975 12.3596 20.0648 12.4041 20.2027C12.4439 20.1912 12.5375 20.1794 12.5141 20.046C12.5603 20.011 12.6008 19.9875 12.6992 19.8494C12.7226 19.8144 12.7623 19.7746 12.7928 19.7231C12.8748 19.7231 12.973 19.7067 13.104 19.8214C13.0642 19.8494 13.0408 19.8676 13.0292 19.8962C13.0634 19.9301 13.0947 19.9669 13.1227 20.0062C13.1579 20.0525 13.1813 20.1092 13.2257 20.121C13.324 20.149 13.4855 20.1092 13.6657 20.121C13.839 20.1327 13.984 20.1958 14.0473 20.2356C14.0707 20.224 14.0707 20.2192 14.1292 20.231C14.1876 20.2427 14.2321 20.2473 14.169 20.1725C14.204 20.1888 14.2438 20.224 14.279 20.1889C14.3141 20.1537 14.3421 20.1023 14.4403 20.0906C14.5386 20.0789 14.5738 20.0952 14.6136 19.9923C14.6651 19.8659 14.4872 19.8659 14.4872 19.8659C14.4872 19.8659 14.5692 19.791 14.6605 19.6927C14.7705 19.5898 14.8968 19.4563 14.9272 19.2925C14.9788 18.9906 14.6839 18.9509 14.6839 18.9509L13.254 19.3909L11.5057 19.3042L10.015 20.0461L10.014 20.046Z"
    fill="#927D49" />
  <path fill-rule="evenodd" clip-rule="evenodd"
    d="M8.72934 15.9153C8.72934 15.9153 8.68305 15.9737 8.65451 16.1118C8.62597 16.2499 8.63816 16.2335 8.61471 16.3318C8.59126 16.4301 8.30323 17.4084 8.41122 17.7384C8.51921 18.0684 8.7062 18.1901 8.82314 18.4568C8.84659 18.5153 8.86942 18.5505 8.88161 18.602C8.92141 18.7751 8.88639 18.9085 8.93313 19.0818C8.94949 19.1403 8.99176 19.2082 9.05486 19.2784C9.1937 19.4234 9.42003 19.5615 9.51768 19.6597C9.6556 19.8049 9.8523 20.0999 10.1027 20.1278C10.2361 20.1442 10.4257 20.088 10.5825 19.9945C10.7213 19.9078 10.8071 19.7862 10.9527 19.7168C11.0556 19.6653 11.1656 19.6466 11.2639 19.6232C11.4676 19.5834 11.6525 19.5769 11.7625 19.5997C11.931 19.6349 12.3289 19.7566 12.5493 19.7566C12.7216 19.7538 12.8929 19.7303 13.0595 19.6864C13.3942 19.5881 13.799 19.4195 14.0659 19.3447C14.2226 19.2984 14.349 19.2862 14.4778 19.2581C14.6978 19.2066 14.8826 19.1364 14.988 19.003C14.9178 18.921 14.8312 18.7947 14.363 18.7993C13.8318 18.811 13.2186 19.1059 12.9167 19.1528C12.6148 19.1997 12.4838 19.2393 12.1467 19.1176C11.8162 18.9946 11.8053 18.9133 11.8053 18.9133C11.8053 18.9133 11.4583 18.6707 11.3131 18.052C11.168 17.4333 11.3131 16.9825 11.69 16.5541C11.7883 16.4441 11.7649 16.3458 11.7649 16.3458C11.7649 16.3458 12.0129 16.0112 11.945 15.6979C11.8702 15.3865 11.3904 15.4498 11.3904 15.4498L8.72949 15.9153H8.72934Z"
    fill="#6E6342" />
  <path fill-rule="evenodd" clip-rule="evenodd"
    d="M9.12947 16.9568C9.10884 16.9956 9.09914 17.0393 9.1014 17.0831C9.10602 17.1462 9.12485 17.2282 9.3143 17.4131C9.47582 17.5745 9.44065 17.7547 9.44065 17.7547C9.44065 17.7547 9.52195 17.7711 9.74256 17.6679C9.91581 17.5859 9.97398 17.7311 9.97398 17.7311C10.0244 17.7047 10.0791 17.6872 10.1355 17.6796C10.1866 17.6749 10.2361 17.6591 10.2805 17.6333C10.2805 17.6333 10.4842 17.8416 10.662 17.9398C10.8236 18.0265 10.9172 18.085 10.9968 18.0265C11.0716 17.975 11.0716 17.8696 11.0669 17.8229C11.0483 17.7798 11.0248 17.7389 10.9968 17.7012C10.9453 17.6264 10.8634 17.5396 10.858 17.4698C10.8462 17.3084 10.9797 17.1163 10.9515 17.0696C10.9232 17.0228 10.8182 17.0111 10.5584 17.1047C10.2893 17.1936 9.12839 16.9573 9.12839 16.9573L9.12947 16.9568Z"
    fill="#39331F" />
  <path fill-rule="evenodd" clip-rule="evenodd"
    d="M9.74236 18.0029C9.74236 18.0029 9.60907 17.8765 9.65581 17.2633C9.7124 17.2624 9.76891 17.2679 9.82428 17.2796C9.82428 17.2796 9.89695 17.7548 9.74236 18.0029Z"
    fill="#292311" />
  <path fill-rule="evenodd" clip-rule="evenodd"
    d="M8.79254 15.4472C8.81114 15.4334 8.8284 15.4179 8.84407 15.4009C8.79779 15.4874 8.58412 15.8338 8.75737 16.3792C8.93062 16.9221 9.36583 17.3269 9.90178 17.3457C10.4377 17.3645 10.7194 17.1023 11.0416 16.7092C11.1679 16.5524 11.3131 16.3557 11.4418 16.2224C11.6337 16.014 11.7835 15.9555 11.7835 15.7543C11.7835 15.3424 11.3621 15.1574 10.742 14.9726C10.1218 14.7878 9.56238 14.8106 9.27218 14.9371C8.98909 15.0751 8.86737 15.2202 8.79239 15.4473L8.79254 15.4472Z"
    fill="#252211" />
  <path fill-rule="evenodd" clip-rule="evenodd"
    d="M10.784 18.1878L10.8303 18.1643C10.8303 18.1643 10.8419 17.9792 10.9169 17.9841C10.9917 17.9958 11.0269 18.0943 11.0198 18.1293C11.0151 18.1643 10.9965 18.2229 10.9215 18.2158C10.8232 18.2181 10.7836 18.1878 10.7836 18.1878H10.784Z"
    fill="#3F3824" />
  <path fill-rule="evenodd" clip-rule="evenodd"
    d="M10.5754 17.4013C10.5754 17.4013 10.6217 17.385 10.6783 17.4411C10.7246 17.4411 10.9264 17.4177 10.9897 17.4575C11.0529 17.4973 11.0716 17.5323 11.0716 17.5323C11.0716 17.5323 10.8352 17.5838 10.7064 17.5323C10.5754 17.4879 10.5754 17.4013 10.5754 17.4013Z"
    fill="#2D2815" />
  <path fill-rule="evenodd" clip-rule="evenodd"
    d="M11.6174 17.4364C11.6174 17.4247 11.491 17.3381 11.3576 17.3099C11.3341 17.3052 11.3293 17.3216 11.3113 17.3216C11.2995 17.317 11.2949 17.2818 11.2949 17.2818L11.219 17.3218C11.219 17.3218 11.2073 17.3381 11.2471 17.368C11.2821 17.3961 11.3407 17.4196 11.3571 17.4663C11.3734 17.5131 11.3734 17.5294 11.3805 17.5365C11.3852 17.5411 11.4671 17.5365 11.5069 17.5131C11.5467 17.4896 11.6217 17.4514 11.6169 17.4359L11.6174 17.4364Z"
    fill="#82764F" />
  <path fill-rule="evenodd" clip-rule="evenodd"
    d="M10.4351 17.9117C10.4351 17.9117 10.4584 17.7503 10.6153 17.7432C10.7766 17.7315 10.8072 17.8882 10.8072 17.8882L10.7135 17.9818C10.7135 17.9795 10.6433 17.8813 10.4358 17.9117H10.4351Z"
    fill="#2D2816" />
  <path fill-rule="evenodd" clip-rule="evenodd"
    d="M11.4538 17.2165C11.4538 17.2165 11.3671 17.3101 11.1753 17.3382C11.1589 17.3147 11.1238 17.268 11.1753 17.1932C11.2268 17.1183 11.2853 17.0949 11.3438 17.1182C11.3696 17.1224 11.3936 17.1339 11.4131 17.1513C11.4326 17.1687 11.4467 17.1913 11.4538 17.2165Z"
    fill="#574F35" />
  <path fill-rule="evenodd" clip-rule="evenodd"
    d="M11.8067 17.3312C11.8115 17.3078 11.7952 17.3031 11.8067 17.2914C11.8183 17.2797 11.8817 17.2564 11.8934 17.268C11.8981 17.2727 11.8934 17.2914 11.8934 17.3142C11.8934 17.3371 11.8934 17.3605 11.8817 17.3773C11.8654 17.4008 11.8186 17.4125 11.7952 17.4056C11.7717 17.3986 11.7671 17.3658 11.7671 17.3593C11.7787 17.3547 11.8067 17.3429 11.8067 17.3312ZM12.2063 17.0785C12.2063 17.0668 12.2461 17.0433 12.2696 17.0433C12.3046 17.0433 12.3046 17.0714 12.3094 17.0785C12.3209 17.0831 12.3209 17.0737 12.3327 17.0949C12.3444 17.116 12.3609 17.1533 12.349 17.1768C12.3371 17.2002 12.2905 17.2164 12.279 17.2118C12.2626 17.2001 12.2111 17.0949 12.2063 17.0785Z"
    fill="#82764F" />
  <path fill-rule="evenodd" clip-rule="evenodd"
    d="M11.4016 17.3849C11.4016 17.3849 11.4531 17.3965 11.5233 17.4551C11.4999 17.4715 11.4647 17.4901 11.4647 17.4901C11.4647 17.4901 11.4601 17.4363 11.4016 17.3848V17.3849Z"
    fill="#6E6342" />
  <path fill-rule="evenodd" clip-rule="evenodd"
    d="M11.287 16.8701C11.2753 16.8585 11.322 16.8305 11.3501 16.8351C11.3782 16.8397 11.3899 16.8585 11.4203 16.8632C11.4507 16.8678 11.4555 16.8514 11.4666 16.8397C11.4777 16.828 11.5181 16.8351 11.5251 16.8397C11.5294 16.8449 11.5333 16.8503 11.5368 16.8561C11.5373 16.8472 11.5396 16.8385 11.5436 16.8305C11.5476 16.8225 11.5532 16.8155 11.5601 16.8098C11.5691 16.8032 11.5794 16.7987 11.5904 16.7967C11.6013 16.7946 11.6126 16.7951 11.6233 16.7981C11.628 16.8144 11.6514 16.8729 11.6468 16.8846C11.6421 16.8963 11.572 16.9128 11.5601 16.901C11.5718 16.9292 11.6233 16.9877 11.6303 16.9992C11.6372 17.0108 11.5787 17.039 11.5554 17.0344C11.5227 17.0321 11.3214 16.915 11.2864 16.8706L11.287 16.8701ZM11.5936 16.4816C11.5892 16.4698 11.5809 16.4599 11.5701 16.4536C11.5537 16.4489 11.4999 16.4536 11.4999 16.4816C11.4999 16.5097 11.5462 16.6668 11.5982 16.7485C11.6568 16.8305 11.6965 16.8982 11.7363 16.917C11.7488 16.9227 11.7629 16.9234 11.776 16.9191C11.789 16.9147 11.7999 16.9056 11.8065 16.8936C11.8111 16.8818 11.8228 16.7953 11.8182 16.5916C11.8135 16.388 11.8065 16.1914 11.7947 16.1797C11.783 16.168 11.7363 16.1681 11.7199 16.1914C11.7035 16.2147 11.5982 16.4466 11.5934 16.4816H11.5936Z"
    fill="#585136" />
  <path fill-rule="evenodd" clip-rule="evenodd"
    d="M11.3856 17.6799C11.3856 17.6799 11.3037 17.6284 11.2241 17.6635C11.1492 17.6987 11.1539 17.8368 11.1539 17.8368C11.1707 17.8434 11.1889 17.8458 11.2068 17.8437C11.2248 17.8417 11.242 17.8353 11.2569 17.8251C11.3084 17.79 11.3739 17.7316 11.3856 17.68V17.6799Z"
    fill="#574F35" />
  <path fill-rule="evenodd" clip-rule="evenodd"
    d="M11.5398 17.8649C11.5352 17.8186 11.4935 17.8186 11.4935 17.7947C11.4964 17.7832 11.503 17.7731 11.5123 17.7659C11.5217 17.7587 11.5331 17.7548 11.5449 17.7549C11.5684 17.7549 11.5912 17.7829 11.6199 17.8011C11.648 17.8175 11.6901 17.8474 11.6947 17.8831C11.6993 17.9187 11.6484 18.0164 11.5918 18.0164C11.5352 18.0164 11.552 17.911 11.5403 17.8642L11.5398 17.8649ZM11.9915 17.8016C11.9915 17.8016 11.8979 17.8297 11.9048 17.8016C11.9118 17.7735 11.9331 17.7666 11.9635 17.7666C11.9789 17.7504 11.9997 17.7404 12.0219 17.7383C12.0347 17.7377 12.0472 17.7419 12.0569 17.7501C12.0569 17.7501 12.1202 17.722 12.1389 17.7383C12.1575 17.7547 12.1436 17.7547 12.1552 17.7735C12.1699 17.7944 12.1796 17.8184 12.1834 17.8437C12.1834 17.8624 12.1133 17.9022 12.0569 17.8952C11.9915 17.8812 12.0031 17.8133 11.9915 17.8016ZM12.5367 17.6962C12.5367 17.6962 12.5648 17.7126 12.5415 17.7314C12.5252 17.7478 12.4432 17.7777 12.3729 17.7829C12.3027 17.7829 12.2396 17.7945 12.2396 17.7712C12.2396 17.7479 12.2981 17.701 12.3331 17.6893C12.3401 17.6805 12.349 17.6734 12.3592 17.6685C12.3693 17.6637 12.3805 17.6612 12.3917 17.6612C12.4198 17.6612 12.5296 17.6495 12.5602 17.6449C12.5883 17.6401 12.6117 17.6564 12.5952 17.6799C12.5883 17.6962 12.5367 17.6962 12.5367 17.6962ZM12.6983 16.9736C12.6983 16.9736 12.6631 17.0484 12.6234 17.0484C12.5836 17.0438 12.5836 17.0321 12.5836 17.0203C12.5836 17.004 12.6234 16.9619 12.6187 16.9501C12.6071 16.9501 12.5789 16.9501 12.5836 16.9221C12.5836 16.8986 12.6234 16.8705 12.6585 16.8758C12.6849 16.854 12.7179 16.8417 12.7521 16.8408C12.7919 16.8408 12.8269 16.8523 12.8269 16.8758C12.8269 16.8992 12.7806 16.9506 12.7637 16.9625C12.745 16.9812 12.7216 16.9933 12.6983 16.9741V16.9736ZM12.1646 18.3567C12.1646 18.3567 12.1183 18.3615 12.1183 18.3848C12.1183 18.3965 12.1299 18.3965 12.1464 18.3896C12.1559 18.389 12.1654 18.3874 12.1745 18.3848C12.1791 18.3896 12.1791 18.4128 12.2143 18.4128C12.2432 18.4089 12.271 18.3994 12.2962 18.3848C12.3243 18.3732 12.3478 18.3613 12.3478 18.3385C12.336 18.2987 12.3126 18.2799 12.2776 18.2799C12.2596 18.2787 12.2417 18.2828 12.226 18.2916C12.226 18.2916 12.2143 18.2681 12.1745 18.2916C12.1347 18.315 12.1393 18.315 12.1511 18.3268C12.172 18.3454 12.1651 18.3576 12.1651 18.3576L12.1646 18.3567ZM11.9002 18.6001C11.9002 18.5884 11.9587 18.565 11.975 18.5721C11.9914 18.5767 12.0381 18.6656 12.0381 18.675C12.0381 18.6867 11.9797 18.7148 11.9562 18.7148C11.9328 18.7148 11.8931 18.675 11.8931 18.6685C11.8931 18.6639 11.9212 18.6569 11.9212 18.6521C11.9281 18.6406 11.9002 18.6123 11.9002 18.6006V18.6001ZM11.7151 18.2584C11.7268 18.2538 11.7268 18.2421 11.7431 18.2303C11.7483 18.2269 11.7541 18.2247 11.7602 18.2239C11.7663 18.2231 11.7725 18.2237 11.7783 18.2257C11.7824 18.2183 11.7882 18.212 11.795 18.2071C11.8019 18.2022 11.8098 18.1989 11.8181 18.1975C11.8462 18.1928 11.8697 18.1975 11.8644 18.2092C11.8644 18.2444 11.8879 18.2677 11.8879 18.2957C11.8879 18.3238 11.8715 18.359 11.813 18.3825C11.7546 18.3988 11.675 18.3988 11.6632 18.3942C11.6515 18.3896 11.6398 18.3427 11.6515 18.3192C11.6632 18.2957 11.6959 18.2701 11.7148 18.2584H11.7151Z"
    fill="#82764F" />
  <path fill-rule="evenodd" clip-rule="evenodd"
    d="M11.7896 18.2742C11.7896 18.2742 11.7498 18.2976 11.7498 18.3093C11.7463 18.3207 11.7447 18.3325 11.7452 18.3444C11.7452 18.3513 11.7967 18.3397 11.8037 18.3326C11.806 18.328 11.7896 18.2864 11.7896 18.2742Z"
    fill="#6E6342" />
  <path fill-rule="evenodd" clip-rule="evenodd"
    d="M11.4414 18.1644C11.4647 18.1692 11.5045 18.1644 11.5349 18.1761C11.5584 18.1878 11.5747 18.2113 11.5513 18.2394C11.5278 18.2675 11.505 18.3096 11.453 18.3025C11.3945 18.2978 11.3384 18.2675 11.3384 18.244C11.3374 18.2292 11.3394 18.2143 11.3442 18.2002C11.349 18.1862 11.3566 18.1732 11.3665 18.1621C11.3899 18.1434 11.4015 18.1551 11.4413 18.1644H11.4414Z"
    fill="#585136" />
  <path fill-rule="evenodd" clip-rule="evenodd"
    d="M11.4137 18.1877C11.4137 18.1877 11.3389 18.2462 11.32 18.2744C11.2966 18.3025 11.182 18.4475 11.1469 18.4779C11.1586 18.4574 11.1718 18.4379 11.1866 18.4195C11.1403 18.4491 11.1056 18.4937 11.0883 18.5458C11.0602 18.6325 11.2452 18.6793 11.3668 18.7144C11.4883 18.7496 11.5354 18.7607 11.5354 18.7607C11.4906 18.6935 11.4522 18.6222 11.4206 18.5478C11.3743 18.4378 11.3504 18.4261 11.3808 18.3746C11.4043 18.323 11.4394 18.288 11.4394 18.2482C11.4254 18.2112 11.4137 18.1877 11.4137 18.1877Z"
    fill="#574F35" />
  <path fill-rule="evenodd" clip-rule="evenodd"
    d="M8.74567 18.3727C8.7627 18.3759 8.78016 18.3759 8.7972 18.3727C8.83222 18.368 9.19739 18.2339 9.57891 18.258C9.86452 18.2752 10.1476 18.3217 10.4237 18.3968C10.9035 18.5232 11.5003 18.7736 11.8864 18.9164C11.9893 18.9561 12.09 19.0264 12.1641 19.0543C12.4591 19.1691 12.4706 19.1691 12.6439 19.1995C12.8475 19.2276 13.0558 19.1597 13.2735 19.113C13.5402 19.0543 13.9966 19.0263 14.3968 18.9678C14.5262 18.9499 14.6538 18.9209 14.7783 18.8812C14.7783 18.8812 14.46 19.1995 13.697 19.3141C13.3885 19.361 13.0751 19.3649 12.7656 19.3259C12.5222 19.3024 12.3608 19.2672 12.2391 19.2322C12.101 19.1924 11.8177 19.087 11.4691 19.0008C11.2256 18.9375 10.9541 18.8908 10.6429 18.8323C9.87527 18.6918 9.04219 18.5304 8.74536 18.3737L8.74567 18.3727Z"
    fill="#252211" />
  <path fill-rule="evenodd" clip-rule="evenodd"
    d="M7.88434 16.9264C7.69921 17.0831 7.50281 17.2329 7.31105 17.378L6.73298 17.8221C6.53643 17.9671 6.34452 18.117 6.14782 18.2621C5.95111 18.4073 5.75472 18.5452 5.54614 18.6787C5.73127 18.5219 5.92767 18.3768 6.12421 18.234C6.32076 18.0913 6.52456 17.9514 6.71416 17.8067L7.29223 17.3619C7.49109 17.2169 7.68301 17.0671 7.88434 16.9267V16.9264ZM6.86165 18.5647C6.86165 18.5647 7.06992 18.3914 7.32972 18.1481C7.65261 17.8463 8.04818 17.46 8.17453 17.39L6.86149 18.5648L6.86165 18.5647Z"
    fill="#CFB66C" />
  <path fill-rule="evenodd" clip-rule="evenodd"
    d="M6.86157 18.5645C6.96463 18.4616 7.07463 18.361 7.18462 18.2626L7.35309 18.1176C7.40462 18.0713 7.46325 18.0193 7.51462 17.9677C7.61752 17.8648 7.71826 17.7547 7.82116 17.6495C7.87217 17.5966 7.92609 17.5465 7.98269 17.4997C8.01098 17.4746 8.04241 17.4534 8.07618 17.4364C8.10441 17.4201 8.1348 17.3901 8.17445 17.3849C8.15116 17.4201 8.12308 17.4364 8.09963 17.4668C8.07155 17.4903 8.0481 17.5183 8.02481 17.5416C7.97328 17.5932 7.91481 17.6399 7.86328 17.6868C7.75328 17.7805 7.63866 17.8719 7.52866 17.9699C7.41866 18.0679 7.31576 18.1736 7.20561 18.2718C7.08635 18.3726 6.97635 18.4708 6.86157 18.565V18.5645ZM8.26116 17.6283C8.26116 17.6283 7.49827 18.375 7.34137 18.4966L8.26116 17.6283Z"
    fill="#CFB66C" />
  <path fill-rule="evenodd" clip-rule="evenodd"
    d="M8.26158 17.6284C8.19296 17.7079 8.11937 17.7829 8.04128 17.853L7.80987 18.073C7.73504 18.1479 7.66469 18.2228 7.58524 18.2977C7.50332 18.3679 7.4285 18.4365 7.3418 18.5013L7.56642 18.2813C7.6414 18.2065 7.72332 18.1434 7.80292 18.0684L8.02755 17.8484C8.10469 17.7713 8.17966 17.6963 8.26158 17.6284ZM8.29661 18.0332C8.22628 18.2295 8.14342 18.4211 8.04853 18.6067C7.85198 18.9999 7.55716 19.4913 7.42834 19.7419L8.29661 18.0332Z"
    fill="#CFB66C" />
  <path fill-rule="evenodd" clip-rule="evenodd"
    d="M8.29624 18.0333C8.29624 18.1199 8.27279 18.1949 8.24472 18.2697C8.21735 18.3446 8.18614 18.418 8.15122 18.4897C8.11605 18.5599 8.07625 18.6349 8.03644 18.7027C7.99664 18.7706 7.9499 18.8407 7.91472 18.911L7.67837 19.3276C7.59645 19.4664 7.51685 19.606 7.4303 19.7395C7.48877 19.5897 7.56837 19.4493 7.64335 19.3112C7.72527 19.1724 7.8001 19.0335 7.87476 18.8899C7.91122 18.8183 7.94402 18.7449 7.97304 18.67C8.00806 18.595 8.04308 18.5249 8.07131 18.457C8.10633 18.3821 8.13441 18.3118 8.16958 18.2441C8.20923 18.1714 8.24209 18.1012 8.29594 18.0333H8.29624Z"
    fill="#CFB66C" />
  <path fill-rule="evenodd" clip-rule="evenodd"
    d="M9.12921 19.9524C9.12921 19.9524 8.8978 20.2589 8.92094 20.6474C8.98404 20.4439 9.06364 20.1326 9.12921 19.9524ZM9.34921 20.2597C9.34921 20.2597 9.26729 21.0928 9.1994 21.5024C9.29536 21.0289 9.31403 21.0687 9.34921 20.2597ZM10.8821 21.5516C10.8821 21.5516 10.5357 22.5699 10.5286 22.8528C10.6036 22.5618 10.7486 21.9674 10.8821 21.5509V21.5516Z"
    fill="#DEC270" />
  <path fill-rule="evenodd" clip-rule="evenodd"
    d="M11.6921 19.8894C11.6921 19.8894 12.2539 20.8161 12.6752 21.6071C12.5612 21.2091 12.2989 20.4791 11.6921 19.8894Z"
    fill="#CBAF59" />
  <path fill-rule="evenodd" clip-rule="evenodd"
    d="M13.2017 21.2537C13.5101 21.7989 13.7882 22.3606 14.0347 22.9364C13.988 22.5385 13.8615 21.8576 13.2017 21.2537Z"
    fill="#E3C677" />
  <path fill-rule="evenodd" clip-rule="evenodd"
    d="M17.6386 22.6202C17.7321 22.5617 17.9171 22.2433 18.0786 22.1639C18.24 22.0819 18.3617 22.0656 18.5068 21.904C18.6519 21.7354 18.692 21.6325 19.0099 21.4992C19.4547 21.3071 19.1488 21.0591 19.1488 21.0591C19.1978 21.0109 19.2502 20.9664 19.3055 20.9258C19.4203 20.8392 19.5536 20.7339 19.542 20.5489C19.5257 20.2377 19.4672 19.786 19.212 19.5239C19.4601 19.4723 19.9351 19.4373 20.2303 19.3625C20.5718 19.2758 20.7287 19.1541 20.7287 19.1541C20.7287 19.1541 20.5322 18.8194 20.8504 18.4825C21.1687 18.1455 21.4285 17.9442 21.6204 17.5673C21.4004 17.5392 21.065 17.4223 20.2091 17.7475C20.2553 17.7692 20.2999 17.7942 20.3426 17.8223C20.3426 17.8223 19.816 17.9675 19.6241 18.129C19.2893 18.4121 19.2472 18.6439 18.8845 18.8171C18.5218 18.9904 18.1566 18.9435 17.8549 19.0839C17.5531 19.2242 17.5085 19.3437 17.3984 19.3952C17.4218 19.4233 17.3938 19.47 17.4382 19.5098C17.4101 19.5496 17.2463 19.8164 17.0801 19.8164C17.0965 19.8796 17.2369 19.9264 17.2369 19.9264C17.2369 19.9264 17.134 20.0013 16.8718 20.02C17.0051 20.1589 17.1316 20.3102 17.4803 20.5302C17.4522 20.5887 17.3351 20.6754 17.382 20.7854C17.4336 20.8954 17.5672 21.0452 18.1005 21.1669C17.829 21.1785 17.5108 21.2417 17.0823 21.1833C16.654 21.1317 16.5838 21.1013 16.3194 21.1669C16.3475 21.195 16.4223 21.195 16.4878 21.2698C16.4177 21.2744 15.9777 21.2183 15.8279 21.415C15.6711 21.6185 15.6032 21.9533 15.615 22.1779C15.533 22.2177 15.4534 22.2879 15.4932 22.4331C15.533 22.5782 15.7413 22.625 15.8748 22.7162C16.0081 22.8144 16.0198 22.8495 16.1463 22.8262C16.2796 22.7981 16.4761 22.6648 16.5909 22.6648C16.7057 22.6648 16.7875 22.7513 16.7875 22.7513C16.7875 22.7513 17.0988 22.6015 17.1292 22.6296C17.1572 22.6577 17.1338 22.8379 17.1642 22.866C17.195 22.8871 17.5457 22.6788 17.6394 22.6202H17.6386Z"
    fill="#ECD592" />
  <path fill-rule="evenodd" clip-rule="evenodd"
    d="M24.4423 13.2542C22.9796 9.4769 19.3637 8.7771 19.3637 8.7771H9.04752L9.08732 12.6246H11.1418V21.2162H9.04736V25.0568H19.0782C21.4957 25.0568 23.4335 22.6274 23.4335 22.6274C26.5368 18.2229 24.4422 13.2542 24.4422 13.2542H24.4423ZM19.132 20.0389C19.132 20.0389 18.3452 21.1741 17.4891 21.1741H15.7767L15.7361 12.634H17.9338C17.9338 12.634 18.952 12.8469 19.6633 14.862C19.6633 14.862 20.6064 17.7469 19.132 20.0389Z"
    fill="white" fill-opacity="0.8" />
</svg>
  