<svg width="100%" height="100%" viewBox="0 0 33 33" fill="none" xmlns="http://www.w3.org/2000/svg">
  <rect x="0.5" y="0.824097" width="97%" height="97%" rx="8" fill="#213147" />
  <path fill-rule="evenodd" clip-rule="evenodd"
    d="M20.7859 12.7715C20.8629 12.5734 21.1381 12.5734 21.2152 12.7715V12.7826L25.8609 25.5087L23.2078 27.039L19.4538 16.7457C19.4208 16.6356 19.4208 16.5255 19.4538 16.4265L20.7859 12.7715ZM17.208 22.5694L18.5401 18.9145C18.6171 18.7163 18.8923 18.7163 18.9694 18.9145L22.151 27.6444L19.4978 29.1747L17.208 22.8886C17.175 22.7785 17.175 22.6685 17.208 22.5694Z"
    fill="#12AAFF" />
  <path fill-rule="evenodd" clip-rule="evenodd"
    d="M16.6906 4.82318C16.6355 4.79015 16.5695 4.76813 16.5034 4.76813V4.75712C16.4374 4.75712 16.3713 4.77914 16.3163 4.81217L6.21019 10.6468C6.1001 10.7129 6.02304 10.845 6.02304 10.9771V22.6574C6.02304 22.7896 6.08909 22.9217 6.21019 22.9877L10.41 25.4124L9.81731 27.0302L5.3515 24.4519C4.70198 24.0776 4.30566 23.395 4.30566 22.6464V10.9771C4.30566 10.2285 4.70198 9.54596 5.3515 9.17166L15.4576 3.33699C15.7862 3.15078 16.1366 3.06266 16.4979 3.06177C16.8594 3.06266 17.2206 3.15078 17.5382 3.33699L27.6553 9.17166C28.3049 9.54596 28.7012 10.2285 28.7012 10.9771V22.6464C28.7012 23.395 28.3049 24.0776 27.6553 24.4519L17.5493 30.2865C17.219 30.4737 16.8667 30.5618 16.5034 30.5618C16.1401 30.5618 15.7768 30.4737 15.4576 30.2865L10.8798 27.6436L12.1903 26.4403L16.3163 28.8224C16.3713 28.8554 16.4374 28.8774 16.5034 28.8774C16.5695 28.8774 16.6355 28.8554 16.6906 28.8224L26.7967 22.9877C26.9067 22.9217 26.9838 22.7896 26.9838 22.6574V10.9881C26.9838 10.856 26.9177 10.7239 26.7967 10.6578L16.6906 4.82318ZM16.4979 3.06177C16.4998 3.06177 16.5016 3.06177 16.5034 3.06177H16.4924C16.4942 3.06177 16.4961 3.06177 16.4979 3.06177Z"
    fill="#9DCCED" />
  <path fill-rule="evenodd" clip-rule="evenodd"
    d="M13.0796 10.1515H15.6446L15.6557 10.1404C15.8098 10.1404 15.9199 10.2946 15.8648 10.4487L9.80998 27.039L7.15686 25.5087L12.6503 10.4487C12.7163 10.2725 12.8924 10.1515 13.0796 10.1515ZM17.5712 10.1515H20.1362V10.1404C20.2904 10.1404 20.4005 10.2946 20.3454 10.4487L13.52 29.1747L10.8668 27.6444L17.1418 10.4487C17.2079 10.2725 17.384 10.1515 17.5712 10.1515Z"
    fill="white" />
</svg>
  