<svg width="100%" height="100%" viewBox="0 0 33 33" fill="none" xmlns="http://www.w3.org/2000/svg">
  <rect x="0.5" y="0.824097" width="97%" height="97%" rx="8" fill="#345D9D" />
  <path
    d="M16.4295 17.1966L14.7636 22.8141H23.674C23.7331 22.812 23.7919 22.8216 23.8472 22.8423C23.9025 22.863 23.9532 22.8943 23.9964 22.9346C24.0396 22.9749 24.0744 23.0234 24.0989 23.0771C24.1233 23.1309 24.1369 23.1889 24.1389 23.248V23.3952L23.3641 26.0683C23.3299 26.1947 23.2538 26.3057 23.1482 26.3832C23.0426 26.4606 22.9138 26.4999 22.783 26.4944H9.14619L11.4319 18.7075L8.875 19.4823L9.45611 17.7003L12.013 16.9254L15.2285 6.00052C15.2639 5.87482 15.3403 5.76458 15.4457 5.68735C15.551 5.61012 15.6791 5.57035 15.8096 5.57437H19.2576C19.3166 5.5723 19.3754 5.58189 19.4308 5.60258C19.4861 5.62327 19.5368 5.65466 19.58 5.69496C19.6231 5.73526 19.6579 5.78367 19.6824 5.83743C19.7068 5.89119 19.7205 5.94925 19.7225 6.00827V6.15549L17.0106 15.3758L19.5675 14.601L19.0251 16.4606L16.4295 17.1966Z"
    fill="white" />
</svg>
  