<svg width="100%" height="100%" viewBox="0 0 33 33" fill="none" xmlns="http://www.w3.org/2000/svg">
  <rect x="0.5" y="0.824097" width="97%" height="97%" rx="8" fill="#8247E5" />
  <path
    d="M16.9712 23.71C17.3792 23.472 17.6429 23.0153 17.6743 22.4921L17.6404 18.6837L17.688 16.1402L17.6248 12.3825C17.6269 11.9101 17.8906 11.4534 18.3279 11.1647L20.907 9.7444C21.3151 9.50638 21.8675 9.48704 22.3242 9.75071L24.8614 11.2156C25.2674 11.4499 25.5561 11.8873 25.5755 12.4397L25.5843 15.3541C25.5822 15.8265 25.3185 16.2832 24.8812 16.572L22.3021 17.9922C21.894 18.2302 21.3416 18.2496 20.8849 17.9859L19.2103 17.0191L19.2134 19.5919L20.9387 20.588C21.3447 20.8224 21.8678 20.8538 22.3559 20.5943L27.0846 17.9118C27.4926 17.6737 27.7563 17.2171 27.7877 16.6939L27.7544 11.1267C27.7858 10.6035 27.497 10.1662 27.091 9.93183L22.3211 7.17792C21.9152 6.94355 21.3921 6.91215 20.904 7.17161L16.146 9.9049C15.7379 10.1429 15.4742 10.5996 15.4428 11.1227L15.4553 14.8511L15.4584 17.4239L15.4709 21.1523C15.4688 21.6247 15.2051 22.0814 14.7677 22.3702L12.2394 23.8197C11.8313 24.0578 11.2789 24.0771 10.8222 23.8134L8.28502 22.3486C7.87907 22.1142 7.59031 21.6769 7.57097 21.1244L7.53284 18.2608C7.53495 17.7884 7.79862 17.3317 8.23597 17.0429L10.7643 15.5934C11.1724 15.3554 11.7248 15.336 12.1815 15.5997L13.8053 16.5372L13.8022 13.9644L12.1277 12.9976C11.7217 12.7632 11.1986 12.7318 10.7105 12.9913L5.95251 15.7246C5.54445 15.9626 5.28078 16.4193 5.24938 16.9424L5.26128 22.4296C5.25918 22.902 5.51865 23.3901 5.97534 23.6538L10.796 26.437C11.2019 26.6713 11.7251 26.7027 12.2132 26.4433L16.9712 23.71Z"
    fill="white" />
</svg>
  