<svg width="100%" height="100%" viewBox="0 0 33 33" fill="none" xmlns="http://www.w3.org/2000/svg">
  <rect x="0.5" y="0.824097" width="97%" height="97%" rx="8" fill="#23292F" />
  <path
    d="M26.4609 8.48425H23.5703L18.9965 13.0089C18.3306 13.6652 17.4332 14.0331 16.4982 14.0331C15.5633 14.0331 14.6659 13.6652 14 13.0089L9.42968 8.48425H6.53671L12.5547 14.4405C14.7348 16.5964 18.2668 16.5964 20.4453 14.4405L26.4609 8.48425Z"
    fill="#FCFCFD" />
  <path
    d="M6.5 25.0468H9.39258L14.0035 20.4854C14.6694 19.8291 15.5668 19.4612 16.5018 19.4612C17.4367 19.4612 18.3341 19.8291 19 20.4854L23.6094 25.0468H26.5L20.4453 19.0538C18.2652 16.8979 14.7332 16.8979 12.5547 19.0538L6.5 25.0468Z"
    fill="#FCFCFD" />
</svg>
  