<svg width="100%" height="100%" viewBox="0 0 33 33" fill="none" xmlns="http://www.w3.org/2000/svg">
  <rect x="0.5" y="0.824097" width="97%" height="97%" rx="8" fill="#E84142" />
  <path
    d="M8.77858 23.5786H11.8817C12.6123 23.5786 12.9776 23.5786 13.3036 23.4883C13.661 23.382 13.9871 23.1936 14.2581 22.9343C14.507 22.6972 14.6866 22.3828 15.0409 21.7628L15.0515 21.7442L19.0761 14.6298C19.4336 14.0053 19.6104 13.691 19.6889 13.3611C19.7753 13.0036 19.7753 12.6265 19.6889 12.2691C19.611 11.9416 19.4324 11.6296 19.0803 11.0144L17.4971 8.25081C17.1711 7.67732 17.0061 7.39058 16.7979 7.28453C16.574 7.17062 16.3069 7.17062 16.083 7.28453C15.8748 7.39058 15.7099 7.67732 15.3839 8.25081L7.72196 21.756C7.39987 22.3216 7.23881 22.6045 7.2506 22.8361C7.26632 23.0876 7.39593 23.3154 7.60805 23.4529C7.80444 23.5786 8.12653 23.5786 8.77858 23.5786Z"
    fill="white" />
  <path
    d="M24.1643 23.5786H19.718C19.062 23.5786 18.7321 23.5786 18.5396 23.4529C18.3275 23.3154 18.1979 23.0838 18.1821 22.8323C18.1704 22.6024 18.3328 22.3222 18.6576 21.7614L18.6577 21.7613L18.6653 21.7482L20.8846 17.9381C21.2106 17.3764 21.3756 17.0975 21.5798 16.9914C21.8036 16.8775 22.067 16.8775 22.2908 16.9914C22.4936 17.0947 22.6515 17.3617 22.9641 17.8905L22.9899 17.9342L25.2172 21.7443C25.228 21.763 25.2387 21.7815 25.2493 21.7996C25.558 22.3324 25.7156 22.6043 25.7043 22.8285C25.6924 23.0797 25.5589 23.3116 25.3468 23.4491C25.1503 23.5786 24.8203 23.5786 24.1643 23.5786Z"
    fill="white" />
</svg>
  