<svg width="33" height="33" viewBox="0 0 33 33" fill="none" xmlns="http://www.w3.org/2000/svg">
  <rect x="0.5" y="0.824097" width="32" height="32" rx="8" fill="#2E3148" />
  <path
    d="M16.5006 25.9482C21.5394 25.9482 25.6241 21.8634 25.6241 16.8246C25.6241 11.7859 21.5394 7.70111 16.5006 7.70111C11.4618 7.70111 7.37708 11.7859 7.37708 16.8246C7.37708 21.8634 11.4618 25.9482 16.5006 25.9482Z"
    fill="#1B1E36" />
  <path
    d="M16.5329 3.10712C14.8357 3.10712 13.4594 9.26318 13.4594 16.8571C13.4594 24.4511 14.8357 30.6071 16.5329 30.6071C18.2302 30.6071 19.6064 24.4511 19.6064 16.8571C19.6064 9.26318 18.2302 3.10712 16.5329 3.10712ZM16.7451 29.8311C16.5511 30.09 16.357 29.8958 16.357 29.8958C15.5753 28.9901 15.1845 27.3076 15.1845 27.3076C13.8173 22.9076 14.1427 13.4606 14.1427 13.4606C14.7852 5.96062 15.9541 4.18889 16.3518 3.79555C16.3924 3.75541 16.4459 3.73088 16.5028 3.72628C16.5598 3.72167 16.6165 3.7373 16.663 3.7704C17.2401 4.17933 17.7242 5.88954 17.7242 5.88954C19.1535 11.1954 19.0241 16.1777 19.0241 16.1777C19.1535 20.513 18.3078 25.3659 18.3078 25.3659C17.6569 29.054 16.7451 29.8311 16.7451 29.8311Z"
    fill="#6F7390" />
  <path
    d="M28.4595 10.0144C27.6145 8.54163 21.5904 10.4116 15.0002 14.1905C8.41007 17.9694 3.76145 22.227 4.60587 23.6991C5.45028 25.1712 11.475 23.3018 18.0652 19.5229C24.6553 15.744 29.3039 11.4865 28.4595 10.0144ZM5.3855 23.4971C5.06197 23.4563 5.13506 23.1904 5.13506 23.1904C5.53192 22.0619 6.79483 20.8856 6.79483 20.8856C9.93236 17.5099 18.2892 13.0911 18.2892 13.0911C25.1137 9.91599 27.2335 10.05 27.7712 10.198C27.8264 10.2134 27.8744 10.2479 27.9066 10.2952C27.9388 10.3426 27.9533 10.3999 27.9473 10.4569C27.8827 11.1613 26.637 12.4317 26.637 12.4317C22.7486 16.3134 18.3623 18.681 18.3623 18.681C14.6663 20.9515 10.036 22.6319 10.036 22.6319C6.51281 23.9015 5.38563 23.4971 5.38563 23.4971H5.3855Z"
    fill="#6F7390" />
  <path
    d="M28.4297 23.7482C29.2813 22.2793 24.6444 18.0023 18.0774 14.1949C11.5104 10.3876 5.48701 8.49448 4.63618 9.96582C3.78535 11.4372 8.42151 15.7117 14.9923 19.519C21.5631 23.3264 27.5789 25.2196 28.4297 23.7482ZM5.20046 10.5334C5.07467 10.2351 5.34021 10.1633 5.34021 10.1633C6.51583 9.9413 8.16717 10.4472 8.16717 10.4472C12.6597 11.4702 20.6705 16.4882 20.6705 16.4882C26.8382 20.8041 27.7842 22.7051 27.9259 23.2447C27.9404 23.3001 27.9348 23.3588 27.9101 23.4104C27.8855 23.462 27.8434 23.5033 27.7913 23.5269C27.1482 23.8214 25.4257 23.3826 25.4257 23.3826C20.1165 21.9591 15.8705 19.3509 15.8705 19.3509C12.0555 17.2932 8.28315 14.1271 8.28315 14.1271C5.41669 11.7136 5.20134 10.5366 5.20134 10.5366L5.20046 10.5334Z"
    fill="#6F7390" />
  <path
    d="M24.0712 10.6129C24.0712 11.1489 23.6511 11.5834 23.1329 11.5834C22.6147 11.5834 22.1947 11.1489 22.1947 10.6129C22.1947 10.0768 22.6147 9.64227 23.1329 9.64227C23.6511 9.64227 24.0712 10.0768 24.0712 10.6129Z"
    fill="#B7B9C8" />
  <path
    d="M18.1182 16.8246C18.1182 17.718 17.394 18.4423 16.5006 18.4423C15.6072 18.4423 14.883 17.718 14.883 16.8246C14.883 15.9312 15.6072 15.207 16.5006 15.207C17.394 15.207 18.1182 15.9312 18.1182 16.8246Z"
    fill="#B7B9C8" />
  <path
    d="M7.73293 14.8835C8.25111 14.8835 8.67118 14.4489 8.67118 13.9129C8.67118 13.3769 8.25111 12.9423 7.73293 12.9423C7.21475 12.9423 6.79468 13.3769 6.79468 13.9129C6.79468 14.4489 7.21475 14.8835 7.73293 14.8835Z"
    fill="#B7B9C8" />
  <path
    d="M15.53 25.8187C15.53 26.3548 15.11 26.7893 14.5918 26.7893C14.0736 26.7893 13.6535 26.3548 13.6535 25.8187C13.6535 25.2827 14.0736 24.8481 14.5918 24.8481C15.11 24.8481 15.53 25.2827 15.53 25.8187Z"
    fill="#B7B9C8" />
</svg>
  