<svg width="33" height="33" viewBox="0 0 33 33" fill="none" xmlns="http://www.w3.org/2000/svg">
  <rect x="0.5" y="0.824097" width="32" height="32" rx="8" fill="white" />
  <path
    d="M16.4267 5.59942C16.8447 5.62142 17.204 5.29875 17.2333 4.88075C17.2627 4.46275 16.9327 4.10342 16.5147 4.07408C16.0967 4.05208 15.7373 4.36742 15.708 4.78542C15.686 5.21075 16.0087 5.57008 16.4267 5.59942Z"
    fill="#0033AD" />
  <path
    d="M23.5473 5.7021C23.364 5.98076 22.9973 6.06143 22.7187 5.8781C22.4473 5.69476 22.3667 5.32076 22.5427 5.0421C22.726 4.77076 23.0927 4.6901 23.3713 4.87343C23.65 5.05676 23.7307 5.42343 23.5473 5.7021Z"
    fill="#0033AD" />
  <path
    d="M10.1714 5.93673C10.4647 5.79006 10.582 5.42339 10.4354 5.13006C10.2887 4.83673 9.92202 4.71939 9.62869 4.86606C9.33535 5.01273 9.21802 5.37206 9.36469 5.66539C9.51135 5.96606 9.87069 6.09073 10.1714 5.93673Z"
    fill="#0033AD" />
  <path
    d="M12.034 18.638C11.0147 18.5794 10.23 17.7067 10.2887 16.6874C10.34 15.7047 11.154 14.9347 12.1367 14.9347C13.1633 14.9274 13.992 15.756 13.992 16.7827C13.9993 17.8094 13.1707 18.638 12.144 18.638H12.034Z"
    fill="#0033AD" />
  <path
    d="M2.75 16.7754C2.76467 16.4454 3.05067 16.1887 3.38067 16.2107C3.71067 16.2327 3.96734 16.5114 3.94534 16.8414C3.92334 17.1714 3.64467 17.4281 3.31467 17.4061C2.98467 17.3914 2.73534 17.1054 2.75 16.7754Z"
    fill="#0033AD" />
  <path
    d="M12.4593 7.97543C12.6867 8.4301 12.5033 8.98743 12.0487 9.21476C11.594 9.4421 11.0367 9.25876 10.8093 8.8041C10.582 8.34943 10.7653 7.7921 11.22 7.56476C11.6747 7.33743 12.232 7.52076 12.4593 7.97543Z"
    fill="#0033AD" />
  <path
    d="M5.72734 11.4661C6.07934 11.6934 6.54867 11.5981 6.78334 11.2461C7.01067 10.8941 6.91534 10.4247 6.56334 10.1901C6.21134 9.96274 5.742 10.0581 5.50734 10.4101C5.27267 10.7621 5.37534 11.2387 5.72734 11.4661Z"
    fill="#0033AD" />
  <path
    d="M5.87401 16.7534C5.90334 16.2401 6.33601 15.8514 6.84934 15.8807C7.36268 15.9101 7.75134 16.3501 7.72201 16.8561C7.69268 17.3694 7.26001 17.7581 6.74668 17.7287C6.23334 17.6994 5.84468 17.2667 5.87401 16.7534Z"
    fill="#0033AD" />
  <path
    d="M5.83 22.0921C5.456 22.2828 5.302 22.7374 5.49267 23.1188C5.68334 23.4928 6.138 23.6468 6.51934 23.4561C6.89334 23.2654 7.04734 22.8108 6.85667 22.4294C6.666 22.0554 6.204 21.9014 5.83 22.0921Z"
    fill="#0033AD" />
  <path
    d="M10.9267 13.6514C10.604 14.1574 9.92934 14.2967 9.42334 13.9667C8.91734 13.6367 8.77801 12.9621 9.10801 12.4634C9.43068 11.9574 10.1053 11.8181 10.6113 12.1481C11.1173 12.4707 11.2567 13.1454 10.9267 13.6514Z"
    fill="#0033AD" />
  <path
    d="M20.8267 9.14142C21.252 9.42008 21.8313 9.30275 22.11 8.87742C22.3887 8.45208 22.2713 7.87275 21.846 7.59408C21.4207 7.31542 20.8413 7.43275 20.5627 7.85808C20.2767 8.29075 20.394 8.86275 20.8267 9.14142Z"
    fill="#0033AD" />
  <path
    d="M20.966 14.92C19.9467 14.8614 19.0667 15.646 19.0153 16.6654C18.9567 17.6847 19.7413 18.5647 20.7607 18.616H20.8633C21.8827 18.616 22.7113 17.7874 22.7113 16.7607C22.7187 15.7854 21.9487 14.9714 20.966 14.92Z"
    fill="#0033AD" />
  <path
    d="M14.3147 14.854C13.6107 14.854 12.9727 14.458 12.6573 13.8347C12.1953 12.9254 12.562 11.8107 13.4787 11.3414C14.388 10.8794 15.5027 11.246 15.9647 12.1627C16.0967 12.4267 16.1627 12.7127 16.1627 12.9987C16.1627 14.0254 15.334 14.854 14.3147 14.854Z"
    fill="#0033AD" />
  <path
    d="M27.17 11.466C27.544 11.2754 27.6907 10.8134 27.5 10.4394C27.3093 10.0654 26.8473 9.91871 26.4733 10.1094C26.0993 10.3 25.9527 10.7547 26.136 11.1287C26.334 11.5027 26.7887 11.6567 27.17 11.466Z"
    fill="#0033AD" />
  <path
    d="M21.9927 13.5121C21.7213 12.9767 21.9413 12.3241 22.4767 12.0527C23.012 11.7887 23.6647 12.0014 23.936 12.5367C24.2073 13.0721 23.9873 13.7247 23.452 13.9961C22.9167 14.2674 22.264 14.0474 21.9927 13.5121Z"
    fill="#0033AD" />
  <path
    d="M17.5633 9.36137C17.534 9.96271 17.0207 10.4247 16.4193 10.388C15.818 10.3587 15.3633 9.84537 15.3927 9.24404C15.422 8.64271 15.9353 8.18071 16.5367 8.21737C17.138 8.24671 17.6 8.76004 17.5633 9.36137Z"
    fill="#0033AD" />
  <path
    d="M10.5233 21.5054C11.0587 21.234 11.2787 20.5814 11.0073 20.046C10.736 19.5107 10.0833 19.2907 9.54801 19.562C9.01267 19.8334 8.79267 20.486 9.06401 21.0214C9.33534 21.5567 9.98801 21.7767 10.5233 21.5054Z"
    fill="#0033AD" />
  <path
    d="M17.6587 14.5387C16.8007 13.9814 16.566 12.8374 17.1233 11.9794C17.468 11.4587 18.0473 11.1434 18.6707 11.1434C19.03 11.1434 19.382 11.2461 19.6827 11.4441C20.5407 12.0014 20.7753 13.1454 20.218 14.0034C19.6607 14.8614 18.5167 15.0961 17.6587 14.5387Z"
    fill="#0033AD" />
  <path
    d="M20.3427 19.7234C19.8807 18.8067 18.766 18.4401 17.8567 18.9021C16.94 19.3641 16.5733 20.4787 17.0353 21.3881C17.4973 22.3047 18.612 22.6714 19.5213 22.2094C20.4307 21.7547 20.8047 20.6547 20.35 19.7381C20.35 19.7307 20.35 19.7307 20.3427 19.7234Z"
    fill="#0033AD" />
  <path
    d="M22.0733 19.9067C22.396 19.4007 23.0707 19.2614 23.5767 19.5914C24.0827 19.9214 24.222 20.5961 23.892 21.0947C23.5693 21.6007 22.8947 21.7401 22.3887 21.4101C21.8827 21.0874 21.7433 20.4127 22.0733 19.9067Z"
    fill="#0033AD" />
  <path
    d="M27.126 16.8121C27.1553 16.2987 26.7667 15.8661 26.2533 15.8367C25.74 15.8074 25.3073 16.1961 25.278 16.7094C25.2487 17.2227 25.6373 17.6554 26.1507 17.6847C26.6567 17.7141 27.0967 17.3181 27.126 16.8121Z"
    fill="#0033AD" />
  <path
    d="M29.0547 16.7167C29.0693 16.3867 29.3553 16.1301 29.6853 16.1521C30.0153 16.1741 30.2647 16.4527 30.25 16.7827C30.228 17.1127 29.9493 17.3694 29.6193 17.3474C29.2893 17.3327 29.04 17.0467 29.0547 16.7167Z"
    fill="#0033AD" />
  <path
    d="M27.2727 22.0921C26.9207 21.8647 26.4513 21.9601 26.2167 22.312C25.9893 22.6641 26.0847 23.1334 26.4367 23.3681C26.7887 23.5954 27.258 23.5001 27.4927 23.1481C27.7273 22.7961 27.6247 22.3194 27.2727 22.0921Z"
    fill="#0033AD" />
  <path
    d="M9.44534 27.8487C9.62868 27.5774 9.99534 27.4967 10.274 27.68C10.5527 27.8634 10.6333 28.2374 10.4427 28.5087C10.2593 28.78 9.89268 28.8607 9.61401 28.6774C9.34268 28.494 9.26201 28.1274 9.44534 27.8487Z"
    fill="#0033AD" />
  <path
    d="M22.8287 27.6214C22.5353 27.7681 22.418 28.1348 22.5647 28.4281C22.7113 28.7214 23.078 28.8388 23.3713 28.6921C23.6647 28.5454 23.782 28.1861 23.6353 27.8927C23.4887 27.5921 23.1293 27.4674 22.8287 27.6214Z"
    fill="#0033AD" />
  <path
    d="M15.3413 19.0121C16.1993 19.5768 16.434 20.7208 15.8767 21.5788C15.532 22.1068 14.9527 22.4221 14.322 22.4148C13.9627 22.4148 13.6107 22.3121 13.31 22.1141C12.452 21.5494 12.21 20.4054 12.7747 19.5474C13.3393 18.6894 14.4833 18.4548 15.3413 19.0121Z"
    fill="#0033AD" />
  <path
    d="M12.1733 24.4167C11.748 24.138 11.1687 24.2554 10.89 24.6807C10.6113 25.106 10.7287 25.6854 11.154 25.964C11.5793 26.2427 12.1587 26.1254 12.4373 25.7C12.7233 25.2747 12.606 24.6954 12.1733 24.4167Z"
    fill="#0033AD" />
  <path
    d="M15.686 28.6774C15.7153 28.2594 16.0747 27.9368 16.4927 27.9588C16.9107 27.9881 17.2333 28.3474 17.2113 28.7728C17.182 29.1908 16.8227 29.5061 16.4047 29.4841C15.9867 29.4548 15.6567 29.0954 15.686 28.6774Z"
    fill="#0033AD" />
  <path
    d="M16.5 23.1701C15.8987 23.1334 15.3853 23.5954 15.356 24.1967C15.3193 24.7981 15.7813 25.3114 16.3827 25.3407C16.984 25.3701 17.4973 24.9154 17.5267 24.3141C17.5633 23.7201 17.1013 23.1994 16.5 23.1701Z"
    fill="#0033AD" />
  <path
    d="M20.548 25.5901C20.3133 25.1354 20.4967 24.5781 20.9513 24.3434C21.4133 24.1088 21.9707 24.2994 22.2053 24.7541C22.4327 25.2088 22.2493 25.7661 21.7947 25.9934C21.34 26.2281 20.7827 26.0448 20.548 25.5901Z"
    fill="#0033AD" />
</svg>
  