<svg width="19" height="19" viewBox="0 0 19 19" fill="none" xmlns="http://www.w3.org/2000/svg">
<g clip-path="url(#clip0_1965_23154)">
<path d="M9.98748 18.4945C14.9178 18.4945 18.9883 14.4193 18.9883 9.49723C18.9883 4.56799 14.9106 0.5 9.98032 0.5C5.05873 0.5 0.988281 4.56799 0.988281 9.49723C0.988281 14.4193 5.06587 18.4945 9.98748 18.4945ZM9.98748 16.7221C5.97732 16.7221 2.76814 13.5065 2.76814 9.49723C2.76814 5.48795 5.97017 2.27233 9.98032 2.27233C13.9905 2.27233 17.2155 5.48795 17.2155 9.49723C17.2155 13.5065 13.9976 16.7221 9.98748 16.7221Z" fill="#D9D9D9" style="mix-blend-mode:screen"/>
<path d="M9.79085 11.2347C10.2657 11.2347 10.5765 10.9529 10.5984 10.6006C10.6 10.5673 10.6016 10.5238 10.6047 10.4977C10.6282 10.046 10.9305 9.74179 11.4996 9.37091C12.3619 8.81032 12.916 8.31142 12.916 7.29599C12.916 5.84853 11.611 5.01758 10.0641 5.01758C8.5703 5.01758 7.55918 5.70359 7.29258 6.51903C7.24119 6.66624 7.21191 6.81344 7.21191 6.97092C7.21191 7.3911 7.53721 7.65031 7.88901 7.65031C8.2056 7.65031 8.42392 7.51408 8.59485 7.2878L8.73129 7.1054C9.02679 6.63313 9.43906 6.37619 9.96474 6.37619C10.6713 6.37619 11.1414 6.79462 11.1414 7.38448C11.1414 7.93913 10.7771 8.20776 10.0411 8.72027C9.42007 9.15264 8.96531 9.60017 8.96531 10.3911C8.96531 10.4212 8.96531 10.4569 8.96531 10.487C8.96531 10.9792 9.26342 11.2347 9.79085 11.2347ZM9.77813 13.9009C10.3367 13.9009 10.7959 13.494 10.7959 12.9449C10.7959 12.3974 10.3439 11.9888 9.77813 11.9888C9.21237 11.9888 8.75568 12.4029 8.75568 12.9449C8.75568 13.4868 9.21951 13.9009 9.77813 13.9009Z" fill="#D9D9D9" style="mix-blend-mode:screen"/>
</g>
<defs>
<clipPath id="clip0_1965_23154">
<rect width="18" height="18" fill="white" transform="translate(0.988281 0.5)"/>
</clipPath>
</defs>
</svg>
