<svg width="31" height="31" viewBox="0 0 31 31" fill="none" xmlns="http://www.w3.org/2000/svg">
  <g clip-path="url(#clip0_914_398)">
    <path
      d="M15.5 0.589844C7.21652 0.589844 0.5 7.30636 0.5 15.5898C0.5 23.8733 7.21652 30.5898 15.5 30.5898C23.7835 30.5898 30.5 23.8733 30.5 15.5898C30.5 7.30636 23.7835 0.589844 15.5 0.589844ZM15.5 28.0452C8.62277 28.0452 3.04464 22.4671 3.04464 15.5898C3.04464 8.71261 8.62277 3.13449 15.5 3.13449C22.3772 3.13449 27.9554 8.71261 27.9554 15.5898C27.9554 22.4671 22.3772 28.0452 15.5 28.0452Z"
      fill="url(#paint0_linear_914_398)" />
    <path
      d="M19.2368 9.05071C18.2324 8.17013 16.9065 7.68799 15.5002 7.68799C14.094 7.68799 12.7681 8.17348 11.7636 9.05071C10.719 9.96477 10.1431 11.1936 10.1431 12.5094V12.7639C10.1431 12.9112 10.2636 13.0317 10.4109 13.0317H12.0181C12.1654 13.0317 12.2859 12.9112 12.2859 12.7639V12.5094C12.2859 11.0329 13.729 9.83085 15.5002 9.83085C17.2714 9.83085 18.7145 11.0329 18.7145 12.5094C18.7145 13.5507 17.9779 14.505 16.8361 14.9436C16.1263 15.2148 15.5236 15.6902 15.0917 16.313C14.6531 16.9491 14.4254 17.7125 14.4254 18.486V19.2058C14.4254 19.3532 14.546 19.4737 14.6933 19.4737H16.3004C16.4478 19.4737 16.5683 19.3532 16.5683 19.2058V18.4458C16.57 18.1208 16.6697 17.8038 16.8542 17.5362C17.0388 17.2686 17.2997 17.0629 17.6029 16.9458C19.5783 16.1858 20.854 14.4447 20.854 12.5094C20.8574 11.1936 20.2815 9.96477 19.2368 9.05071ZM14.1609 22.9558C14.1609 23.311 14.302 23.6517 14.5532 23.9029C14.8044 24.154 15.145 24.2951 15.5002 24.2951C15.8554 24.2951 16.1961 24.154 16.4472 23.9029C16.6984 23.6517 16.8395 23.311 16.8395 22.9558C16.8395 22.6006 16.6984 22.26 16.4472 22.0088C16.1961 21.7577 15.8554 21.6166 15.5002 21.6166C15.145 21.6166 14.8044 21.7577 14.5532 22.0088C14.302 22.26 14.1609 22.6006 14.1609 22.9558Z"
      fill="url(#paint1_linear_914_398)" />
  </g>
  <defs>
    <linearGradient id="paint0_linear_914_398" x1="0.5" y1="-69.6841" x2="54.744" y2="-47.8059"
      gradientUnits="userSpaceOnUse">
      <stop stop-color="#FB792F" />
      <stop offset="0.567708" stop-color="#F3C755" />
      <stop offset="1" stop-color="#F5C341" />
    </linearGradient>
    <linearGradient id="paint1_linear_914_398" x1="10.1431" y1="-31.2137" x2="31.2332" y2="-25.7274"
      gradientUnits="userSpaceOnUse">
      <stop stop-color="#FB792F" />
      <stop offset="0.567708" stop-color="#F3C755" />
      <stop offset="1" stop-color="#F5C341" />
    </linearGradient>
    <clipPath id="clip0_914_398">
      <rect width="30" height="30" fill="white" transform="translate(0.5 0.589844)" />
    </clipPath>
  </defs>
</svg>
  