<svg width="19" height="19" viewBox="0 0 19 19" fill="none" xmlns="http://www.w3.org/2000/svg">
<g clip-path="url(#clip0_2452_7110)">
<path d="M9.97771 18.7542C14.908 18.7542 18.9785 14.6791 18.9785 9.757C18.9785 4.82776 14.9009 0.759766 9.97056 0.759766C5.04896 0.759766 0.978516 4.82776 0.978516 9.757C0.978516 14.6791 5.0561 18.7542 9.97771 18.7542ZM9.97771 16.9819C5.96755 16.9819 2.75838 13.7663 2.75838 9.757C2.75838 5.74772 5.9604 2.53209 9.97056 2.53209C13.9807 2.53209 17.2058 5.74772 17.2058 9.757C17.2058 13.7663 13.9879 16.9819 9.97771 16.9819Z" fill="url(#paint0_linear_2452_7110)" style="mix-blend-mode:screen"/>
<path d="M9.78109 11.4945C10.2559 11.4945 10.5667 11.2126 10.5887 10.8604C10.5903 10.8271 10.5918 10.7836 10.595 10.7574C10.6185 10.3057 10.9208 10.0016 11.4899 9.63068C12.3522 9.07009 12.9063 8.57118 12.9063 7.55575C12.9063 6.10829 11.6012 5.27734 10.0543 5.27734C8.56053 5.27734 7.54941 5.96335 7.28281 6.7788C7.23143 6.926 7.20215 7.07321 7.20215 7.23068C7.20215 7.65087 7.52745 7.91008 7.87924 7.91008C8.19584 7.91008 8.41416 7.77384 8.58509 7.54756L8.72152 7.36517C9.01703 6.89289 9.42929 6.63595 9.95498 6.63595C10.6615 6.63595 11.1316 7.05439 11.1316 7.64425C11.1316 8.1989 10.7673 8.46752 10.0313 8.98004C9.41031 9.41241 8.95554 9.85994 8.95554 10.6508C8.95554 10.6809 8.95554 10.7167 8.95554 10.7468C8.95554 11.2389 9.25365 11.4945 9.78109 11.4945ZM9.76837 14.1606C10.327 14.1606 10.7861 13.7537 10.7861 13.2046C10.7861 12.6571 10.3341 12.2486 9.76837 12.2486C9.20261 12.2486 8.74592 12.6627 8.74592 13.2046C8.74592 13.7466 9.20974 14.1606 9.76837 14.1606Z" fill="url(#paint1_linear_2452_7110)" style="mix-blend-mode:screen"/>
</g>
<defs>
<linearGradient id="paint0_linear_2452_7110" x1="15.4226" y1="70.0814" x2="-6.02092" y2="68.812" gradientUnits="userSpaceOnUse">
<stop stop-color="#C868A1"/>
<stop offset="0.489583" stop-color="#91A2FF"/>
<stop offset="1" stop-color="#FFAD4D"/>
</linearGradient>
<linearGradient id="paint1_linear_2452_7110" x1="11.7794" y1="39.4992" x2="4.97008" y2="39.2405" gradientUnits="userSpaceOnUse">
<stop stop-color="#C868A1"/>
<stop offset="0.489583" stop-color="#91A2FF"/>
<stop offset="1" stop-color="#FFAD4D"/>
</linearGradient>
<clipPath id="clip0_2452_7110">
<rect width="18" height="18" fill="white" transform="translate(0.978516 0.759766)"/>
</clipPath>
</defs>
</svg>
