<svg width="36" height="36" viewBox="0 0 36 36" fill="none" xmlns="http://www.w3.org/2000/svg">
<circle cx="18.4837" cy="17.7483" r="17.4944" fill="black"/>
<g clip-path="url(#clip0_1965_23101)">
<path d="M21.2883 23.3281H11.6883C10.6383 23.3281 9.73828 22.4281 9.73828 21.3781V15.9031C9.73828 14.8531 10.6383 13.9531 11.6883 13.9531H21.2883C22.3383 13.9531 23.2383 14.8531 23.2383 15.9031V21.3781C23.2383 22.4281 22.3383 23.3281 21.2883 23.3281Z" fill="url(#paint0_linear_1965_23101)"/>
<path d="M25.4895 20.3289C25.0395 20.3289 24.7395 20.0289 24.7395 19.5789V13.2789C24.7395 12.9789 24.5895 12.7539 24.3645 12.7539H12.8145C12.3645 12.7539 12.0645 12.4539 12.0645 12.0039C12.0645 11.5539 12.3645 11.2539 12.8145 11.2539H24.3645C25.4145 11.2539 26.2395 12.1539 26.2395 13.2789V19.5789C26.2395 19.9539 25.9395 20.3289 25.4895 20.3289Z" fill="url(#paint1_linear_1965_23101)"/>
<path d="M16.4883 20.8535C15.2133 20.8535 14.2383 19.8785 14.2383 18.6035C14.2383 17.3285 15.2133 16.3535 16.4883 16.3535C17.7633 16.3535 18.7383 17.3285 18.7383 18.6035C18.7383 19.8785 17.7633 20.8535 16.4883 20.8535Z" fill="white"/>
<path d="M12.2145 19.1291C12.5044 19.1291 12.7395 18.8941 12.7395 18.6041C12.7395 18.3142 12.5044 18.0791 12.2145 18.0791C11.9245 18.0791 11.6895 18.3142 11.6895 18.6041C11.6895 18.8941 11.9245 19.1291 12.2145 19.1291Z" fill="white"/>
<path d="M20.7643 19.1291C21.0542 19.1291 21.2893 18.8941 21.2893 18.6041C21.2893 18.3142 21.0542 18.0791 20.7643 18.0791C20.4743 18.0791 20.2393 18.3142 20.2393 18.6041C20.2393 18.8941 20.4743 19.1291 20.7643 19.1291Z" fill="white"/>
</g>
<defs>
<linearGradient id="paint0_linear_1965_23101" x1="9.73828" y1="13.9531" x2="9.73828" y2="23.3281" gradientUnits="userSpaceOnUse">
<stop stop-color="#86E1A0"/>
<stop offset="1" stop-color="#4FBF67"/>
</linearGradient>
<linearGradient id="paint1_linear_1965_23101" x1="12.0645" y1="11.2539" x2="12.0645" y2="20.3289" gradientUnits="userSpaceOnUse">
<stop stop-color="#86E1A0"/>
<stop offset="1" stop-color="#4FBF67"/>
</linearGradient>
<clipPath id="clip0_1965_23101">
<rect width="18" height="14" fill="white" transform="translate(8.98926 10.2539)"/>
</clipPath>
</defs>
</svg>
