<svg width="16" height="15" viewBox="0 0 16 15" fill="none" xmlns="http://www.w3.org/2000/svg">
  <path
    d="M12.5069 6.02232C12.5069 7.34773 12.0767 8.57207 11.3519 9.5654L15.0076 13.224C15.3685 13.5849 15.3685 14.1711 15.0076 14.5321C14.6466 14.893 14.0604 14.893 13.6995 14.5321L10.0438 10.8735C9.05046 11.6012 7.82612 12.0285 6.50071 12.0285C3.18286 12.0285 0.494507 9.34017 0.494507 6.02232C0.494507 2.70447 3.18286 0.0161133 6.50071 0.0161133C9.81856 0.0161133 12.5069 2.70447 12.5069 6.02232ZM6.50071 10.1805C7.04677 10.1805 7.58747 10.0729 8.09196 9.86394C8.59645 9.65497 9.05484 9.34869 9.44096 8.96257C9.82708 8.57645 10.1334 8.11806 10.3423 7.61357C10.5513 7.10908 10.6589 6.56837 10.6589 6.02232C10.6589 5.47626 10.5513 4.93555 10.3423 4.43107C10.1334 3.92658 9.82708 3.46819 9.44096 3.08207C9.05484 2.69595 8.59645 2.38966 8.09196 2.1807C7.58747 1.97173 7.04677 1.86418 6.50071 1.86418C5.95466 1.86418 5.41395 1.97173 4.90946 2.1807C4.40497 2.38966 3.94658 2.69595 3.56046 3.08207C3.17434 3.46819 2.86806 3.92658 2.65909 4.43107C2.45012 4.93555 2.34257 5.47626 2.34257 6.02232C2.34257 6.56837 2.45012 7.10908 2.65909 7.61357C2.86806 8.11806 3.17434 8.57645 3.56046 8.96257C3.94658 9.34869 4.40497 9.65497 4.90946 9.86394C5.41395 10.0729 5.95466 10.1805 6.50071 10.1805Z"
    fill="none" />
</svg>
  