<svg width="24" height="24" viewBox="0 0 24 24" fill="none" xmlns="http://www.w3.org/2000/svg">
<g id="Iconly/Two-tone/Setting">
<g id="Setting">
<path id="Path_33946" fill-rule="evenodd" clip-rule="evenodd" d="M20.8064 7.62386L20.184 6.54377C19.6574 5.62985 18.4905 5.31456 17.5753 5.83896V5.83896C17.1397 6.09559 16.6198 6.1684 16.1305 6.04133C15.6411 5.91427 15.2224 5.59776 14.9666 5.16162C14.8021 4.88439 14.7137 4.56864 14.7103 4.24628V4.24628C14.7251 3.72947 14.5302 3.22865 14.1698 2.85791C13.8094 2.48718 13.3143 2.27811 12.7973 2.27832H11.5433C11.0367 2.27831 10.5511 2.48016 10.1938 2.83919C9.83644 3.19822 9.63693 3.68484 9.63937 4.19136V4.19136C9.62435 5.23717 8.77224 6.07706 7.72632 6.07695C7.40397 6.0736 7.08821 5.98519 6.81099 5.82065V5.82065C5.89582 5.29626 4.72887 5.61154 4.20229 6.52546L3.5341 7.62386C3.00817 8.53664 3.31916 9.70285 4.22975 10.2326V10.2326C4.82166 10.5743 5.18629 11.2058 5.18629 11.8893C5.18629 12.5728 4.82166 13.2043 4.22975 13.5461V13.5461C3.32031 14.0722 3.00898 15.2356 3.5341 16.1456V16.1456L4.16568 17.2348C4.4124 17.68 4.82636 18.0085 5.31595 18.1477C5.80554 18.2868 6.3304 18.2251 6.77438 17.9763V17.9763C7.21084 17.7216 7.73094 17.6518 8.2191 17.7824C8.70725 17.9131 9.12299 18.2333 9.37392 18.6719C9.53845 18.9491 9.62686 19.2649 9.63021 19.5872V19.5872C9.63021 20.6438 10.4867 21.5003 11.5433 21.5003H12.7973C13.8502 21.5003 14.7053 20.6494 14.7103 19.5964V19.5964C14.7079 19.0883 14.9086 18.6003 15.2679 18.241C15.6272 17.8817 16.1152 17.6809 16.6233 17.6834C16.9449 17.692 17.2594 17.78 17.5387 17.9396V17.9396C18.4515 18.4656 19.6177 18.1546 20.1474 17.244V17.244L20.8064 16.1456C21.0615 15.7077 21.1315 15.1863 21.001 14.6966C20.8704 14.207 20.55 13.7896 20.1108 13.5369V13.5369C19.6715 13.2842 19.3511 12.8668 19.2206 12.3772C19.09 11.8875 19.16 11.3661 19.4151 10.9282C19.581 10.6386 19.8211 10.3984 20.1108 10.2326V10.2326C21.0159 9.70314 21.3262 8.54374 20.8064 7.63301V7.63301V7.62386Z" stroke="#A0AEC0" stroke-width="2" stroke-linecap="round" stroke-linejoin="round"/>
<circle id="Ellipse_737" cx="12.1748" cy="11.8893" r="2.63616" stroke="#A0AEC0" stroke-width="2" stroke-linecap="round" stroke-linejoin="round"/>
</g>
</g>
</svg>
