<svg width="20" height="20" viewBox="0 0 20 20" fill="none" xmlns="http://www.w3.org/2000/svg">
  <g clip-path="url(#clip0_593_3947)">
    <path
      d="M8.8339 0.906352C5.68526 0.891117 3.85019 2.59342 3.78675 3.91768C5.09315 3.78014 6.99718 3.81795 7.18784 5.42862C6.28815 4.59858 5.04347 4.57803 3.89112 4.72737C-1.19599 5.38666 1.00167 12.5684 5.08206 11.1172C5.41147 11.8561 5.67456 13.8378 7.16644 13.9664C8.61175 14.091 8.5739 14.9956 8.79811 16.7032C8.98374 18.117 11.1723 18.9012 12.2146 19.0934C12.2146 19.0934 10.397 15.9704 11.7323 14.5824C15.1953 9.85284 10.669 7.346 7.93331 8.13428C6.07198 8.67061 6.53147 9.80127 7.76187 11.022C5.98382 10.3755 5.80901 9.54213 5.85983 8.6937C5.94198 7.32291 8.52651 6.28705 10.2005 6.64772C14.4194 7.5567 15.4 10.638 12.7 14.4349C15.4576 15.5285 19.0133 14.1628 19.0637 11.9094C19.0951 10.504 18.2257 9.36881 17.0541 8.99334C15.9908 8.71084 15.5322 9.19995 15.1713 9.91955C15.0671 9.13229 15.8603 7.7878 16.8693 8.46272C17.3421 4.17389 15.7884 0.939984 8.8339 0.906352Z"
      fill="none" />
  </g>
  <defs>
    <clipPath id="clip0_593_3947">
      <rect width="20" height="20" fill="none" />
    </clipPath>
  </defs>
</svg>
  