<svg width="16" height="16" viewBox="0 0 16 16" fill="none" xmlns="http://www.w3.org/2000/svg">
<path d="M13.3353 10.7899H11.1353C11.2458 11.2336 11.3053 11.6887 11.3126 12.1462C11.3086 12.5157 11.0113 12.8132 10.646 12.8131H4.66862V11.4643H10.002C10.002 9.97451 8.80805 8.76676 7.33529 8.76676H4.66862C3.86862 7.61287 2.20529 7.41797 1.40195 7.41797H0.00195312V13.1503L5.46329 15.6881C6.13527 16.0276 6.91071 16.0924 7.62862 15.8688L16.002 13.263C16.002 13.263 15.474 10.7899 13.3353 10.7899Z" fill="white"/>
<path fill-rule="evenodd" clip-rule="evenodd" d="M6.00195 4.04637C6.00195 1.81162 7.79281 0 10.002 0C12.2102 0.00223048 13.9997 1.81255 14.002 4.04637C14.002 6.28112 12.2111 8.09274 10.002 8.09274C7.79281 8.09274 6.00195 6.28112 6.00195 4.04637ZM9.33516 6.06981H10.6685V2.02344H9.33516V6.06981Z" fill="white"/>
</svg>
