<svg width="36" height="36" viewBox="0 0 36 36" fill="none" xmlns="http://www.w3.org/2000/svg">
<circle cx="18.4837" cy="17.7595" r="17.4944" fill="black"/>
<path fill-rule="evenodd" clip-rule="evenodd" d="M11.4863 17.76C11.4863 13.9112 14.6353 10.7622 18.4841 10.7622C22.3329 10.7622 25.4819 13.9112 25.4819 17.76C25.4819 21.6087 22.3329 24.7577 18.4841 24.7577C14.6353 24.7577 11.4863 21.6087 11.4863 17.76ZM13.2358 17.7605C13.2358 20.6471 15.5976 23.0089 18.4842 23.0089C21.3707 23.0089 23.7325 20.6471 23.7325 17.7605C23.7325 14.874 21.3707 12.5122 18.4842 12.5122C15.5976 12.5122 13.2358 14.874 13.2358 17.7605Z" fill="white"/>
<path fill-rule="evenodd" clip-rule="evenodd" d="M14.9854 17.7601C14.9854 15.8357 16.5598 14.2612 18.4842 14.2612C20.4086 14.2612 21.9831 15.8357 21.9831 17.7601C21.9831 19.6845 20.4086 21.259 18.4842 21.259C16.5598 21.259 14.9854 19.6845 14.9854 17.7601ZM16.7349 17.7597C16.7349 18.7219 17.5221 19.5091 18.4843 19.5091C19.4465 19.5091 20.2337 18.7219 20.2337 17.7597C20.2337 16.7975 19.4465 16.0103 18.4843 16.0103C17.5221 16.0103 16.7349 16.7975 16.7349 17.7597Z" fill="white"/>
</svg>
