<svg width="17" height="18" viewBox="0 0 17 18" fill="none" xmlns="http://www.w3.org/2000/svg">
  <path
    d="M0.944438 5.50056H13.2221L11.711 6.70055C11.6118 6.77935 11.5282 6.87806 11.465 6.99106C11.4018 7.10406 11.3603 7.22913 11.3427 7.35913C11.3252 7.48914 11.332 7.62152 11.3628 7.74874C11.3936 7.87595 11.4477 7.9955 11.5221 8.10056C11.6101 8.22475 11.7242 8.32555 11.8553 8.39498C11.9865 8.46441 12.1311 8.50056 12.2777 8.50056C12.482 8.50056 12.6809 8.43038 12.8444 8.30056L16.6221 5.30056C16.7376 5.20723 16.8312 5.08695 16.8957 4.94906C16.9601 4.81117 16.9936 4.6594 16.9936 4.50556C16.9936 4.35171 16.9601 4.19994 16.8957 4.06205C16.8312 3.92416 16.7376 3.80388 16.6221 3.71056L12.9766 0.710555C12.7787 0.547447 12.5277 0.474251 12.2789 0.50707C12.03 0.539889 11.8037 0.676034 11.6496 0.885555C11.4956 1.09508 11.4265 1.36081 11.4575 1.6243C11.4885 1.88779 11.617 2.12745 11.8149 2.29056L13.2977 3.50056H0.944438C0.693957 3.50056 0.453736 3.60591 0.276619 3.79345C0.0995029 3.98099 0 4.23534 0 4.50056C0 4.76577 0.0995029 5.02013 0.276619 5.20766C0.453736 5.3952 0.693957 5.50056 0.944438 5.50056Z"
    fill="white" />
  <path
    d="M16.0555 12.5006H3.77786L5.28896 11.3006C5.48934 11.1415 5.62182 10.9046 5.65724 10.642C5.69266 10.3795 5.62813 10.1128 5.47784 9.90061C5.32756 9.68844 5.10382 9.54817 4.85586 9.51066C4.60789 9.47316 4.35602 9.54148 4.15563 9.70061L0.377881 12.7006C0.262369 12.7939 0.168751 12.9142 0.104312 13.0521C0.0398718 13.19 0.00634766 13.3418 0.00634766 13.4956C0.00634766 13.6495 0.0398718 13.8012 0.104312 13.9391C0.168751 14.077 0.262369 14.1973 0.377881 14.2906L4.02341 17.2906C4.18826 17.4261 4.39084 17.4999 4.59952 17.5006C4.74375 17.5002 4.88599 17.4649 5.01532 17.3973C5.14465 17.3297 5.25764 17.2316 5.34562 17.1106C5.49899 16.9021 5.56819 16.6379 5.53811 16.3755C5.50803 16.1132 5.3811 15.8742 5.18507 15.7106L3.7023 14.5006H16.0555C16.306 14.5006 16.5462 14.3953 16.7234 14.2077C16.9005 14.0202 17 13.7658 17 13.5006C17 13.2354 16.9005 12.981 16.7234 12.7935C16.5462 12.606 16.306 12.5006 16.0555 12.5006Z"
    fill="white" />
</svg>
  