<svg width="15" height="12" viewBox="0 0 15 12" fill="none" xmlns="http://www.w3.org/2000/svg">
  <g clip-path="url(#clip0_127_3209)">
    <path
      d="M3.60416 6.98919L0.283727 5.91972C0.0686734 5.84393 -0.0517568 5.61656 0.0170605 5.39761C0.0428669 5.32182 0.0944798 5.26287 0.257921 5.1534C0.989103 4.64814 13.8493 0.0586642 13.8493 0.0586642C14.0386 -0.00870421 14.2364 -0.0171253 14.4257 0.0165589C14.5375 0.0502432 14.6149 0.134454 14.6407 0.243927C14.6665 0.336559 14.6751 0.437612 14.6665 0.530243C14.6665 0.614454 14.6579 0.690243 14.6493 0.816559C14.5719 2.0713 12.2321 11.4187 12.2321 11.4187C12.2321 11.4187 12.0945 11.966 11.587 11.9829C11.3375 11.9913 11.0966 11.8987 10.916 11.7302C9.92674 10.8881 6.52029 8.62288 5.7719 8.11761C5.73749 8.09235 5.71168 8.05866 5.71168 8.01656C5.70308 7.96603 5.75469 7.89866 5.75469 7.89866C5.75469 7.89866 11.6902 2.66919 11.845 2.12182C11.8536 2.07972 11.8106 2.05445 11.7504 2.07972C11.3547 2.22287 4.52459 6.50077 3.7762 6.97235C3.72459 6.98919 3.66437 6.98919 3.60416 6.98077"
    />
  </g>
  <defs>
    <clipPath id="clip0_127_3209">
      <rect width="14.6667" height="12" />
    </clipPath>
  </defs>
</svg>