<svg width="35" height="36" viewBox="0 0 35 36" fill="none" xmlns="http://www.w3.org/2000/svg">
<circle cx="17.4944" cy="18.3484" r="17.4944" fill="black"/>
<path d="M17.4934 16.5994C20.0301 16.5994 22.7418 15.8121 22.7418 13.9752C22.7418 12.1383 20.0301 11.3511 17.4934 11.3511C14.9568 11.3511 12.2451 12.1383 12.2451 13.9752C12.2451 15.8121 14.9568 16.5994 17.4934 16.5994Z" fill="#FFA15C"/>
<path d="M12.2451 17.0366V18.3487C12.2451 20.1856 14.9568 20.9729 17.4934 20.9729C20.0301 20.9729 22.7418 20.1856 22.7418 18.3487V17.0366C21.5172 17.8239 19.6802 18.3487 17.4934 18.3487C15.3066 18.3487 13.4697 17.8239 12.2451 17.0366Z" fill="#FFA15C"/>
<path d="M12.2451 21.4106V22.7227C12.2451 24.5596 14.9568 25.3469 17.4934 25.3469C20.0301 25.3469 22.7418 24.5596 22.7418 22.7227V21.4106C21.5172 22.2854 19.6802 22.7227 17.4934 22.7227C15.3066 22.7227 13.4697 22.1979 12.2451 21.4106Z" fill="#FFA15C"/>
</svg>
