<svg width="103" height="21" viewBox="0 0 103 21" fill="none" xmlns="http://www.w3.org/2000/svg">
  <g clip-path="url(#clip0_643_3459)">
    <path
      d="M47.2256 0.478516V13.8712L36.3181 0.478516H33.295V20.2714H36.9377V6.87869L47.852 20.2714H50.8751V0.478516H47.2324H47.2256Z"
      fill="#FBFBFB" />
    <path d="M59.7536 0.478516H56.0837V20.2578H59.7536V0.478516Z" fill="#FBFBFB" />
    <path
      d="M102.076 0.478516H98.461L92.6055 10.106L86.8181 0.478516H82.8895L90.6582 13.3401V20.2714H94.3281V13.272L102.076 0.478516Z"
      fill="#FBFBFB" />
    <path
      d="M64.969 0.47168H79.4102V3.54921H68.6389V9.5749H78.1915V12.6797H68.6389V20.2577H64.969V0.47168Z"
      fill="#FBFBFB" />
    <path fill-rule="evenodd" clip-rule="evenodd"
      d="M12.7531 8.69653L11.7931 10.0242L13.0187 11.7196H25.9484V8.70334H12.7463L12.7531 8.69653Z"
      fill="#FBFBFB" />
    <path fill-rule="evenodd" clip-rule="evenodd"
      d="M12.7531 8.69653L11.7931 10.0242L13.0187 11.7196H25.9484V8.70334H12.7463L12.7531 8.69653Z"
      fill="white" />
    <path
      d="M14.9864 20.2509H28.0863V17.1734H16.9882L11.7931 10.0243L16.4843 3.54921H28.0863V0.47168H14.7345L9.73011 7.51187L4.67125 0.47168H0.517951L7.46962 10.1673L0.123047 20.2509H4.30358L9.61436 12.7341L14.9864 20.2509Z"
      fill="#FBFBFB" />
  </g>
  <defs>
    <clipPath id="clip0_643_3459">
      <rect width="101.953" height="19.7997" fill="white" transform="translate(0.123047 0.47168)" />
    </clipPath>
  </defs>
</svg>
  