<svg width="18" height="12" viewBox="0 0 18 12" fill="none" xmlns="http://www.w3.org/2000/svg">
  <path
    d="M16.9583 1.87401C16.7594 1.13395 16.1824 0.557029 15.4424 0.35809C14.1055 4.74308e-08 8.74212 0 8.74212 0C8.74212 0 3.3827 4.74308e-08 2.04185 0.35809C1.3018 0.557029 0.724876 1.13395 0.525937 1.87401C0.167847 3.21088 0.167847 6 0.167847 6C0.167847 6 0.167847 8.7931 0.525937 10.126C0.724876 10.866 1.3018 11.443 2.04185 11.6419C3.3827 12 8.74212 12 8.74212 12C8.74212 12 14.1055 12 15.4424 11.6419C16.1824 11.443 16.7594 10.866 16.9583 10.126C17.3164 8.78912 17.3164 6 17.3164 6C17.3164 6 17.3164 3.21088 16.9583 1.87401ZM7.02726 8.57427V3.42971L11.4835 6.00398L7.02726 8.57825V8.57427Z"
    fill="none" />
</svg>
  